<svg width="156" height="232" fill="none" xmlns="http://www.w3.org/2000/svg"><path d="M108.102 103.306s4.046 30.721-9.06 36.174c-13.105 5.454-24.98 2.11-39.057-9.141-14.076-11.25-21.617-23.73-23.676-26.747 3.14-3.256 24.197-15.626 71.793-.286z" fill="#BD1823"/><path d="M87.303 144.773c-35.355 0-65.558-59.618-66.939-62.388a2.671 2.671 0 014.778-2.387c.35.702 35.341 69.759 70.4 58.086 3.944-1.314 6.726-3.95 8.51-8.057 9.988-22.993-15.571-79.333-15.83-79.901a2.671 2.671 0 011.314-3.541 2.678 2.678 0 013.54 1.319c1.1 2.398 26.802 59.095 15.874 84.249-2.39 5.501-6.332 9.202-11.718 10.997a31.238 31.238 0 01-9.93 1.623z" fill="#100F0D"/><path d="M80.456 48.69c-6.276 0-16.298 2.03-30.289 10.145C31.938 69.41 24.8 78.031 25.182 80.098c.198.4 1.485 2.742 5.547 4.17 4.868 1.71 13.972 2.15 29.728-5.482 26.299-12.727 28.51-26.59 27.917-28.36-.529-.559-3.135-1.736-7.918-1.736zM37.384 90.622c-3.517 0-6.29-.566-8.426-1.314-5.907-2.075-8.089-5.856-8.618-6.967-4.283-9.002 19.695-23.805 27.146-28.128C73.16 39.322 89.741 42.555 92.91 47.59c1.078 1.714 1.175 4.395.27 7.552-1.376 4.799-7.09 17.174-30.396 28.454-11.03 5.336-19.324 7.026-25.4 7.026zm103.503 131.191a2.671 2.671 0 01-2.326-1.353l-44.499-78.527a2.668 2.668 0 011.007-3.639 2.669 2.669 0 013.64 1.006l44.499 78.526a2.67 2.67 0 01-2.321 3.987z" fill="#100F0D"/><path d="M127.364 231.846a2.672 2.672 0 01-1.466-4.906l25.303-16.576a2.677 2.677 0 013.699.772 2.675 2.675 0 01-.772 3.699l-25.303 16.575a2.67 2.67 0 01-1.461.436z" fill="#100F0D"/><path d="M90.289 89.815a4.007 4.007 0 01-4.006 4.005 4.007 4.007 0 01-4.006-4.005 4.007 4.007 0 014.006-4.006 4.007 4.007 0 014.006 4.006z" fill="#211D1D"/><path d="M86.286 87.143a2.673 2.673 0 00-2.67 2.67 2.673 2.673 0 002.67 2.67 2.673 2.673 0 002.67-2.67 2.673 2.673 0 00-2.67-2.67zm0 8.011a5.346 5.346 0 01-5.34-5.34 5.346 5.346 0 015.34-5.342 5.346 5.346 0 015.341 5.341 5.346 5.346 0 01-5.34 5.341zm-22.7 8.013a4.008 4.008 0 01-4.006 4.006 4.008 4.008 0 01-4.006-4.006 4.007 4.007 0 014.006-4.006 4.007 4.007 0 014.006 4.006z" fill="#211D1D"/><path d="M59.58 100.495a2.674 2.674 0 00-2.671 2.671 2.673 2.673 0 002.67 2.67 2.673 2.673 0 002.67-2.67 2.673 2.673 0 00-2.67-2.671zm0 8.012a5.347 5.347 0 01-5.342-5.341 5.346 5.346 0 015.341-5.341 5.346 5.346 0 015.341 5.341 5.347 5.347 0 01-5.34 5.341z" fill="#211D1D"/><path d="M81.042 126.778c-6.198 0-11.067-2.905-13.804-6.131a2.669 2.669 0 01.307-3.766 2.678 2.678 0 013.763.308c2.721 3.207 8.543 5.912 16.01 2.98 6.895-2.708 4.32-12.872 4.294-12.976a2.674 2.674 0 011.906-3.261c1.434-.358 2.89.481 3.261 1.91 1.343 5.124 1.5 15.758-7.51 19.299-2.929 1.149-5.69 1.637-8.227 1.637zm-6.198-95.903a2.673 2.673 0 01-2.66-2.451L70.158 3.826A2.673 2.673 0 0172.6.944a2.668 2.668 0 012.879 2.444l2.03 24.595a2.67 2.67 0 01-2.666 2.892zm-26.885 5.901a2.665 2.665 0 01-2.3-1.308l-11.648-19.68a2.67 2.67 0 014.596-2.721l11.646 19.677a2.667 2.667 0 01-.937 3.659 2.64 2.64 0 01-1.357.373zM17.228 51.684c-.62 0-1.24-.214-1.747-.65L1.28 38.75a2.67 2.67 0 113.493-4.04l14.204 12.282a2.674 2.674 0 01.273 3.768 2.665 2.665 0 01-2.022.924z" fill="#100F0D"/></svg>