<svg width="422" height="635" fill="none" xmlns="http://www.w3.org/2000/svg"><path d="M334.598 140.163s-7.506-21.264-17.521-24.411c-10.015-3.125-22.518 20.031-22.518 26.282 0 5.784 4.826 34.66 5.549 38.892.064.361.149.68.298 1.02l32.023 77.443c.808 1.956 3.53 2.02 4.338.085 7.868-19.244 34.788-85.459 34.788-92.391 0-8.144 3.125-47.567-3.211-53.01-4.763-4.083-25.559-9.569-26.814-.808-1.297 8.76-6.932 26.898-6.932 26.898zm26.727 191.14s-7.506-21.264-17.522-24.411c-10.015-3.126-22.518 20.03-22.518 26.282 0 5.784 4.827 34.66 5.55 38.891.064.362.149.681.298 1.021l32.023 77.443c.808 1.935 3.53 2.02 4.338.085 7.867-19.244 34.787-85.459 34.787-92.391 0-8.144 3.126-47.567-3.211-53.011-4.763-4.082-25.559-9.568-26.813-.808-1.297 8.761-6.932 26.899-6.932 26.899zM249.818 58.83s-4.381-20.457-13.226-24.54c-8.846-4.06-23.093 15.757-23.837 21.52-.68 5.337.34 32.47.489 36.446.021.34.064.638.149.978l20.286 75.04c.51 1.892 3.019 2.275 3.976.574 9.526-16.756 42.123-74.508 42.953-80.888.957-7.484 8.505-43.378 3.317-49.161-3.891-4.338-22.391-11.823-24.581-3.913-2.19 7.91-9.526 23.943-9.526 23.943zm-72.404 156.458s-5.72-26.665-17.223-31.959c-11.525-5.295-30.088 20.519-31.067 28.025-.893 6.954.447 42.294.638 47.482.022.426.085.851.192 1.255l26.431 97.749c.659 2.467 3.912 2.977 5.188.766 12.418-21.838 54.882-97.048 55.945-105.383 1.254-9.76 11.099-56.519 4.316-64.025-5.082-5.635-29.174-15.417-32.023-5.104-2.849 10.313-12.397 31.194-12.397 31.194zM39.585 519.147s-4.55-21.221-13.716-25.453C16.706 489.484 1.905 510.046 1.14 516c-.722 5.529.341 33.682.511 37.807.021.34.064.681.149.999l21.051 77.847c.532 1.956 3.126 2.36 4.125.617 9.888-17.394 43.697-77.294 44.548-83.928 1-7.762 8.824-45.016 3.445-50.991-4.04-4.486-23.22-12.269-25.496-4.061-2.275 8.229-9.887 24.857-9.887 24.857zm43.866-414.728s-8.377-12.95-15.522-13.438c-7.145-.49-11.802 16.904-10.802 21.051.914 3.849 8.718 22.284 9.866 24.985.107.234.213.425.362.638l33.596 46.397c.851 1.17 2.68.787 2.892-.638 2.191-14.034 9.548-62.345 8.442-66.959-1.318-5.423-5.486-32.13-10.568-34.745-3.806-1.956-18.52-2.297-17.947 3.72.532 6.04-.319 18.989-.319 18.989zM286.115 407.3s-11.355-11.036-18.627-9.888c-7.272 1.149-7.931 19.606-5.975 23.539 1.808 3.636 13.843 20.307 15.608 22.753.149.212.319.382.51.552l44.25 38.743c1.106.978 2.849.17 2.743-1.297-1.042-14.566-4.742-64.578-6.89-68.958-2.53-5.125-12.843-30.897-18.542-32.343-4.274-1.084-19.052 1.935-17.117 7.847 1.914 5.869 4.04 19.052 4.04 19.052zm107.34 109.678s-.999-15.799-7.145-19.839c-6.166-4.04-19.052 9.207-20.243 13.438-1.105 3.913-3.381 24.326-3.699 27.324a4.213 4.213 0 000 .745l6.783 58.432c.17 1.468 1.998 2.042 2.913.893 8.994-11.482 39.869-51.033 41.188-55.732 1.552-5.486 11.227-31.513 7.974-36.403-2.424-3.679-15.438-11.355-17.947-5.678-2.509 5.678-9.824 16.82-9.824 16.82zM64.292 219.838s-3.147-16.139-10.037-19.456c-6.889-3.317-18.371 12.035-19.03 16.564-.617 4.189-.213 25.517-.15 28.642 0 .256.043.511.107.766l14.863 59.241c.383 1.488 2.34 1.828 3.105.51 7.718-13.035 34.17-57.922 34.915-62.941.872-5.868 7.314-33.958 3.317-38.572-2.998-3.445-17.415-9.611-19.244-3.424-1.85 6.167-7.846 18.67-7.846 18.67zm169.876 118.313s-2.126-15.799-8.59-19.393c-6.464-3.615-18.457 10.611-19.372 14.927-.829 3.998-1.658 24.666-1.764 27.707-.022.255 0 .489.063.744l10.972 58.156c.277 1.468 2.148 1.914 2.977.681 8.229-12.163 36.383-54.074 37.382-58.879 1.17-5.635 9.016-32.428 5.422-37.127-2.7-3.508-16.309-10.313-18.435-4.423-2.148 5.869-8.655 17.607-8.655 17.607zM173.141 20.385S171.015 4.586 164.55.992c-6.464-3.614-18.457 10.611-19.371 14.928-.829 3.997-1.658 24.666-1.765 27.706-.021.255 0 .49.064.745l10.972 58.156c.277 1.467 2.148 1.914 2.977.68 8.229-12.163 36.382-54.073 37.382-58.88 1.169-5.634 9.016-32.426 5.422-37.126-2.701-3.508-16.309-10.312-18.436-4.422-2.147 5.868-8.654 17.606-8.654 17.606zM38.223 357.181s-2.254-16.778-9.122-20.605c-6.868-3.828-19.605 11.248-20.562 15.841-.893 4.253-1.765 26.176-1.893 29.408-.021.277.022.532.064.787l11.653 61.771c.297 1.552 2.275 2.02 3.168.723 8.718-12.907 38.615-57.412 39.678-62.515 1.255-5.975 9.59-34.426 5.741-39.402-2.87-3.721-17.308-10.93-19.562-4.699-2.254 6.23-9.165 18.691-9.165 18.691z" fill="#BD1823"/></svg>