<svg width="32" height="32" fill="none" xmlns="http://www.w3.org/2000/svg"><path d="M16.001 3.25A4.75 4.75 0 0120.751 8v.583h3.25l.144.014a.75.75 0 01.604.678l1.333 17.333a.751.751 0 01-.747.808H6.668a.75.75 0 01-.748-.808L7.254 9.275l.025-.141A.75.75 0 018 8.583h3.25V8A4.75 4.75 0 0116 3.25zM7.48 25.916h17.046l-1.217-15.833H20.75V12a.75.75 0 01-1.5 0v-1.917h-6.5V12a.75.75 0 01-1.5 0v-1.917H8.696L7.479 25.916zM16 4.75A3.25 3.25 0 0012.751 8v.583h6.5V8a3.25 3.25 0 00-3.25-3.25z" fill="#000"/></svg>