<svg width="127" height="546" fill="none" xmlns="http://www.w3.org/2000/svg"><path d="M46.952 424.651s-12.575-17.689-22.666-17.949c-10.083-.241-15.54 24.498-13.887 30.269 1.523 5.364 13.638 30.799 15.426 34.52.154.304.328.6.532.859l50.133 63.167c1.262 1.586 3.804.931 4.032-1.066 2.2-19.887 9.552-88.275 7.708-94.705-2.153-7.523-9.705-44.834-17.01-48.193-5.486-2.522-26.18-2.081-25.022 6.357 1.166 8.458.754 26.741.754 26.741zM22.025 103.17s-8.462-12.895-15.61-13.338c-7.147-.442-11.69 16.981-10.665 21.121.94 3.843 8.863 22.227 10.03 24.92.107.234.215.424.365.636l33.898 46.178c.858 1.164 2.684.769 2.887-.657 2.1-14.048 9.142-62.406 8.006-67.013-1.353-5.414-5.695-32.093-10.794-34.675-3.819-1.932-18.535-2.176-17.922 3.837.571 6.036-.195 18.991-.195 18.991zm57.596 106.549s-3.252-16.118-10.162-19.39c-6.911-3.272-18.294 12.154-18.923 16.688-.59 4.193-.047 25.517.037 28.642.002.256.046.51.111.765l15.249 59.143c.392 1.486 2.35 1.813 3.108.49 7.633-13.084 33.793-58.143 34.505-63.166.833-5.875 7.093-34.005 3.066-38.594-3.021-3.425-17.478-9.497-19.266-3.298-1.81 6.179-7.725 18.72-7.725 18.72zm16.794-189.42S94.185 4.514 87.698.962c-6.487-3.572-18.387 10.73-19.273 15.053-.804 4.003-1.498 24.676-1.585 27.718-.02.255.003.489.069.744l11.35 58.083c.286 1.466 2.16 1.9 2.981.661 8.15-12.216 36.03-54.309 36.998-59.121 1.133-5.642 8.805-32.485 5.18-37.161-2.723-3.49-16.376-10.207-18.464-4.303-2.109 5.883-8.54 17.663-8.54 17.663zM18.521 307.406s-6.328-10.78-12.098-11.424c-5.77-.644-10.136 13.261-9.475 16.662.607 3.15 6.277 18.327 7.113 20.565.065.194.167.356.269.517l25.583 38.733c.646.971 2.126.725 2.364-.413 2.248-11.28 9.89-50.127 9.156-53.905-.853-4.427-3.306-26.182-7.348-28.47-3.018-1.714-14.909-2.497-14.663 2.389.245 4.886-.9 15.346-.9 15.346z" fill="#BD1823"/></svg>