<svg width="156" height="770" fill="none" xmlns="http://www.w3.org/2000/svg"><path d="M175.415 152.809s-8.823-20.752-19.016-23.266c-10.191-2.492-21.22 21.401-20.828 27.641.362 5.772 6.987 34.289 7.973 38.467.087.357.192.67.361 1l36.809 75.286c.929 1.902 3.649 1.795 4.335-.187 6.647-19.698 29.369-87.469 28.935-94.387-.51-8.128.141-47.67-6.524-52.706-5.009-3.776-26.108-7.95-26.811.872-.746 8.825-5.234 27.28-5.234 27.28zm-6.477 177.068s-8.823-20.752-19.015-23.266c-10.192-2.493-21.22 21.401-20.829 27.64.362 5.772 6.987 34.29 7.974 38.468.086.356.191.669.361 1l36.809 75.285c.927 1.881 3.649 1.796 4.334-.186 6.648-19.699 29.369-87.469 28.935-94.388-.51-8.128.142-47.669-6.523-52.705-5.009-3.777-26.108-7.95-26.812.872-.746 8.825-5.234 27.28-5.234 27.28zm-86-300.267S77.284 9.468 68.2 5.947c-9.082-3.5-22.06 17.172-22.442 22.97-.346 5.369 2.372 32.384 2.77 36.343.042.338.103.633.21.967l24.943 73.623c.628 1.856 3.156 2.081 4.004.324 8.459-17.32 37.377-77 37.805-83.418.486-7.53 5.773-43.825.233-49.273-4.156-4.086-23.087-10.398-24.778-2.366-1.69 8.032-8.008 24.493-8.008 24.493zM50.735 237.575s-7.378-26.254-19.191-30.818C19.71 202.194 2.8 229.12 2.294 236.672c-.457 6.996 3.093 42.183 3.609 47.349.047.423.138.844.27 1.24l32.498 95.903c.812 2.421 4.091 2.726 5.226.44 11.026-22.573 48.698-100.294 49.237-108.679.641-9.82 7.54-57.103.3-64.17-5.425-5.306-30.082-13.56-32.28-3.089-2.198 10.472-10.42 31.909-10.42 31.909zm64.461 348.899s-12.023-10.303-19.21-8.702c-7.185 1.602-6.688 20.064-4.489 23.867 2.032 3.516 15.087 19.401 17.002 21.731.161.203.342.362.543.52l46.589 35.896c1.165.907 2.854-.009 2.656-1.467-1.951-14.471-8.775-64.154-11.193-68.391-2.846-4.956-14.752-30.032-20.53-31.118-4.334-.815-18.894 3.124-16.593 8.902 2.278 5.738 5.225 18.762 5.225 18.762zm36.875 136.01s-1.11-8.778-4.679-10.817c-3.582-2.038-10.306 5.803-10.822 8.205-.48 2.221-1.035 13.688-1.108 15.372-.003.143.005.273.026.415l5.828 32.358c.147.813 1.187 1.069 1.657.396 4.615-6.72 20.455-29.863 21.026-32.53.673-3.115 5.16-17.972 3.174-20.586-1.481-1.968-9.009-5.794-10.21-2.54-1.201 3.255-4.892 9.727-4.892 9.727zM93.927 415.69s-3.111-15.635-9.788-18.816c-6.678-3.203-17.756 11.745-18.399 16.11-.577 4.042-.11 24.722-.026 27.763-.006.256.03.488.11.739l14.591 57.355c.368 1.447 2.263 1.776 3.014.493 7.451-12.654 32.926-56.246 33.622-61.104.815-5.697 6.968-32.928 3.087-37.393-2.914-3.333-16.923-9.272-18.676-3.26-1.776 5.991-7.535 18.113-7.535 18.113z" fill="#BD1823"/></svg>