<svg width="209" height="201" fill="none" xmlns="http://www.w3.org/2000/svg"><path d="M106.964 53.158s-7.722-26.491-19.733-31c-12.011-4.51-28.877 22.919-29.304 30.559-.4 7.074 3.544 42.666 4.123 47.892.055.442.138.842.29 1.255l33.827 96.751c.855 2.427 4.178 2.717 5.281.387C112.37 176.041 149.741 97.01 150.21 88.529c.552-9.929 7.06-57.863-.317-64.951-5.53-5.323-30.573-13.418-32.696-2.813-2.11 10.618-10.233 32.393-10.233 32.393z" fill="#BD1823"/><path d="M108.34 90.046s3.199-5.764 13.335-4.675c8.936.966 11.556 7.295 11.556 7.295s-4.675 5.227-12.452 4.4c-7.764-.828-9.957-3.172-12.439-7.02zm-11.486-.868s-4.11-6.095-11.735-6.095c-7.612 0-10.963 2.744-12.26 5.64 0 0 2.965 7.005 12.494 6.468 9.53-.538 11.501-6.013 11.501-6.013z" fill="#fff"/><path d="M122.462 98.527c-.593 0-1.2-.028-1.82-.096-8.523-.897-10.95-3.738-13.459-7.64a1.357 1.357 0 01-.042-1.407c.152-.275 3.751-6.564 14.7-5.378 9.64 1.034 12.563 7.847 12.673 8.136a1.365 1.365 0 01-.248 1.448c-.193.207-4.523 4.937-11.804 4.937zm-12.439-8.44c2 2.993 4.027 4.868 10.922 5.6 5.406.565 9.129-2.028 10.591-3.296-.979-1.573-3.806-4.979-9.984-5.64-7.116-.773-10.398 2.026-11.529 3.337z" fill="#12100B"/><path d="M119.099 85.233l-1.103 11.419 5.185.482.538-11.432-4.62-.469z" fill="#12100B"/><path d="M123.181 97.824h-.068l-5.186-.483a.69.69 0 01-.469-.248.747.747 0 01-.151-.51l1.117-11.418a.688.688 0 01.248-.47.725.725 0 01.51-.15l4.606.468a.705.705 0 01.621.717l-.538 11.432a.707.707 0 01-.234.483.73.73 0 01-.456.179zm-4.44-1.793l3.778.345.469-10.053-3.268-.331-.979 10.04zm-34.423.566c-9.488 0-12.59-7.033-12.715-7.35a1.395 1.395 0 01.014-1.104c1.324-2.937 4.73-6.454 13.528-6.454 8.26 0 12.687 6.427 12.866 6.702.248.359.304.828.152 1.241-.097.262-2.413 6.344-12.715 6.923a16.1 16.1 0 01-1.13.041zm-9.902-7.888c.87 1.489 3.875 5.502 10.867 5.102 6.592-.372 9.129-3.2 9.956-4.496-1.213-1.448-4.66-4.854-10.108-4.854-5.433 0-9.115 1.462-10.715 4.248z" fill="#12100B"/><path d="M83.133 83.151l-.235 12.011 4.813-.22V83.33l-4.578-.18z" fill="#12100B"/><path d="M82.9 95.853a.689.689 0 01-.482-.194.708.708 0 01-.207-.51l.234-12.01a.66.66 0 01.22-.483c.139-.125.304-.207.497-.194l4.579.18a.686.686 0 01.662.69v11.61c0 .373-.29.676-.662.69l-4.813.22H82.9zm.91-11.984l-.206 10.577 3.42-.152V84.007l-3.213-.138zm20.601 25.607c-10.025 0-18.037-3.364-21.071-4.826l-.152-.083a1.376 1.376 0 01.028-2.579c.565-.206.965-.013 1.351.18 4.4 2.137 20.024 8.536 36.461.937a1.388 1.388 0 011.834.676c.318.69.014 1.517-.675 1.834-6.206 2.855-12.287 3.861-17.776 3.861z" fill="#12100B"/><path d="M152.885 129.403s-2.096 15.858 4.674 18.685c6.771 2.813 12.894 1.09 20.162-4.716 7.267-5.806 11.17-12.259 12.231-13.818-1.627-1.682-12.493-8.081-37.067-.151z" fill="#D73328"/><path d="M163.613 150.819c-1.697 0-3.407-.262-5.131-.841-2.785-.924-4.812-2.841-6.053-5.681-5.641-12.991 7.626-42.267 8.191-43.508a1.383 1.383 0 012.51 1.158c-.138.29-13.335 29.401-8.178 41.26.924 2.124 2.358 3.475 4.399 4.165 18.12 6.04 36.172-29.635 36.351-29.994a1.394 1.394 0 011.848-.62c.676.344.965 1.172.62 1.848-.703 1.42-16.299 32.213-34.557 32.213z" fill="#12100B"/><path d="M189.398 122.853c-3.144 0-7.419-.868-13.114-3.626-12.039-5.82-14.99-12.218-15.693-14.687-.469-1.627-.414-3.02.137-3.902 1.641-2.607 10.191-4.275 23.457 3.42 3.848 2.234 16.231 9.873 14.011 14.521-.276.579-1.393 2.523-4.454 3.599-1.103.386-2.537.675-4.344.675zm-26.339-20.754c-.303.911.841 8.068 14.411 14.645 8.136 3.944 12.838 3.71 15.348 2.827 2.096-.73 2.758-1.944 2.868-2.178.193-1.035-3.502-5.489-12.907-10.95-12.715-7.391-19.086-5.019-19.72-4.344zm-27.108 88.504c-.235 0-.469-.055-.676-.179a1.379 1.379 0 01-.524-1.876l22.974-40.542a1.378 1.378 0 012.4 1.351L137.151 189.9a1.386 1.386 0 01-1.2.703z" fill="#12100B"/><path d="M142.929 195.775c-.262 0-.524-.069-.759-.221l-13.059-8.563a1.392 1.392 0 01-.4-1.917 1.377 1.377 0 011.903-.4l13.073 8.564a1.39 1.39 0 01.4 1.916 1.38 1.38 0 01-1.158.621z" fill="#12100B"/><path d="M161.859 121.861a2.08 2.08 0 002.083 2.082 2.09 2.09 0 002.082-2.082 2.09 2.09 0 00-2.082-2.083 2.09 2.09 0 00-2.083 2.083z" fill="#2B2523"/><path d="M163.944 124.632a2.772 2.772 0 110-5.543 2.772 2.772 0 010 5.543zm0-4.164c-.773 0-1.393.62-1.393 1.393 0 .772.62 1.392 1.393 1.392.772 0 1.393-.62 1.393-1.392 0-.773-.621-1.393-1.393-1.393zm12.298 8.508a2.08 2.08 0 002.083 2.082 2.09 2.09 0 002.082-2.082 2.089 2.089 0 00-2.082-2.082 2.08 2.08 0 00-2.083 2.082z" fill="#2B2523"/><path d="M178.338 131.748a2.773 2.773 0 11.001-5.545 2.773 2.773 0 01-.001 5.545zm0-4.165a1.39 1.39 0 00-1.393 1.393 1.39 1.39 0 001.393 1.393 1.39 1.39 0 001.393-1.393c0-.772-.634-1.393-1.393-1.393z" fill="#2B2523"/><path d="M166.852 141.524c-1.31 0-2.73-.248-4.247-.841-4.661-1.834-4.579-7.322-3.875-9.97a1.381 1.381 0 011.682-.979c.731.193 1.172.951.979 1.682-.055.235-1.31 5.323 2.221 6.702 5.074 1.986 7.956-1.172 8.26-1.544.482-.579 1.365-.648 1.944-.166.579.497.648 1.365.165 1.945-1.42 1.668-3.93 3.171-7.129 3.171zm3.199-49.52h-.111a1.376 1.376 0 01-1.255-1.489l1.048-12.7a1.368 1.368 0 011.49-1.256 1.388 1.388 0 011.268 1.49l-1.048 12.7a1.423 1.423 0 01-1.392 1.255zm13.888 3.049c-.234 0-.483-.056-.703-.194a1.385 1.385 0 01-.483-1.889l6.012-10.163a1.386 1.386 0 011.89-.483c.648.386.868 1.228.482 1.89l-6.012 10.163a1.4 1.4 0 01-1.186.676zm15.857 7.694c-.386 0-.772-.166-1.048-.483a1.376 1.376 0 01.138-1.944l7.336-6.344a1.376 1.376 0 011.944.138c.497.58.442 1.448-.137 1.945l-7.337 6.343a1.285 1.285 0 01-.896.345z" fill="#12100B"/><path d="M55.634 133.389s2.096 15.858-4.675 18.685c-6.77 2.813-12.893 1.09-20.16-4.716-7.268-5.806-11.17-12.259-12.233-13.818 1.628-1.696 12.494-8.081 37.068-.151z" fill="#D73328"/><path d="M44.892 154.791c-18.258 0-33.855-30.78-34.572-32.214a1.37 1.37 0 01.62-1.848 1.363 1.363 0 011.849.621c.18.359 18.244 36.02 36.35 29.993 2.041-.675 3.475-2.041 4.4-4.164 5.157-11.873-8.04-40.971-8.178-41.26a1.387 1.387 0 01.676-1.834 1.388 1.388 0 011.834.676c.565 1.241 13.845 30.517 8.191 43.507-1.227 2.841-3.268 4.758-6.054 5.682a15.85 15.85 0 01-5.116.841z" fill="#12100B"/><path d="M19.12 126.838c-1.82 0-3.24-.29-4.358-.676-3.047-1.076-4.178-3.02-4.454-3.599-2.206-4.647 10.177-12.287 14.01-14.521 13.253-7.695 21.817-6.026 23.458-3.42.551.883.607 2.275.138 3.903-.704 2.482-3.655 8.867-15.693 14.7-5.682 2.73-9.957 3.613-13.101 3.613zm22.243-21.664c-3.24 0-8.411 1.048-15.637 5.24-9.42 5.461-13.101 9.915-12.908 10.977.096.207.772 1.42 2.868 2.151 2.51.883 7.212 1.103 15.349-2.827 13.583-6.578 14.727-13.735 14.41-14.645-.262-.29-1.613-.896-4.082-.896zm31.207 89.402c-.483 0-.952-.248-1.2-.703L48.396 153.33a1.379 1.379 0 01.524-1.876 1.378 1.378 0 011.875.524l22.974 40.543a1.379 1.379 0 01-.524 1.876 1.307 1.307 0 01-.675.179z" fill="#12100B"/><path d="M65.592 199.76c-.455 0-.896-.221-1.158-.62a1.377 1.377 0 01.4-1.903l13.059-8.564a1.396 1.396 0 011.917.4 1.378 1.378 0 01-.4 1.903l-13.073 8.563a1.371 1.371 0 01-.745.221z" fill="#12100B"/><path d="M46.438 126.411a2.066 2.066 0 01-2.069 2.069 2.066 2.066 0 01-2.068-2.069c0-1.144.924-2.068 2.068-2.068 1.145 0 2.069.937 2.069 2.068z" fill="#2B2523"/><path d="M44.367 129.169a2.766 2.766 0 01-2.758-2.758 2.766 2.766 0 012.758-2.758 2.766 2.766 0 012.758 2.758 2.748 2.748 0 01-2.758 2.758zm0-4.137c-.758 0-1.379.621-1.379 1.379 0 .759.62 1.379 1.38 1.379.758 0 1.378-.62 1.378-1.379 0-.758-.62-1.379-1.379-1.379zm-11.718 8.274a2.066 2.066 0 01-2.069 2.068 2.066 2.066 0 01-2.068-2.068c0-1.145.924-2.069 2.068-2.069 1.145 0 2.069.938 2.069 2.069z" fill="#2B2523"/><path d="M30.578 136.064a2.766 2.766 0 01-2.758-2.758 2.766 2.766 0 012.758-2.758 2.766 2.766 0 012.758 2.758 2.748 2.748 0 01-2.758 2.758zm0-4.137c-.758 0-1.379.62-1.379 1.379 0 .758.62 1.379 1.38 1.379.758 0 1.378-.621 1.378-1.379 0-.759-.62-1.379-1.379-1.379z" fill="#2B2523"/><path d="M41.668 145.496c-3.199 0-5.709-1.503-7.13-3.171a1.378 1.378 0 01.153-1.945c.579-.496 1.447-.413 1.944.152 1.406 1.655 4.413 3.048 8.26 1.544 3.558-1.392 2.234-6.646 2.22-6.701a1.382 1.382 0 01.98-1.683c.744-.179 1.489.248 1.682.979.69 2.648.772 8.136-3.875 9.97-1.49.607-2.924.855-4.234.855zm-3.2-49.52c-.717 0-1.31-.552-1.38-1.269l-1.047-12.7a1.376 1.376 0 011.255-1.49c.758-.069 1.42.51 1.49 1.255l1.047 12.7a1.376 1.376 0 01-1.255 1.49c-.027.014-.069.014-.11.014zM24.58 99.023c-.469 0-.924-.234-1.186-.675l-6.012-10.164a1.385 1.385 0 01.482-1.889 1.388 1.388 0 011.89.483l6.012 10.163a1.385 1.385 0 01-.482 1.89 1.29 1.29 0 01-.704.192zm-15.872 7.695c-.317 0-.634-.11-.896-.331l-7.336-6.343A1.376 1.376 0 01.338 98.1a1.376 1.376 0 011.944-.138l7.336 6.343c.58.497.635 1.365.138 1.945a1.375 1.375 0 01-1.048.468zm117.796-21.237a1.387 1.387 0 01-1.324-.979c-.22-.73.193-1.503.924-1.71 2.248-.675 4.082-2.565 4.689-4.826a1.381 1.381 0 011.682-.98 1.38 1.38 0 01.979 1.683c-.841 3.172-3.419 5.82-6.564 6.757a1.244 1.244 0 01-.386.055zm6.84 4.813a1.372 1.372 0 01-1.352-1.117 1.37 1.37 0 011.09-1.613c2.109-.414 3.916-2.33 4.205-4.468a1.363 1.363 0 011.545-1.186 1.372 1.372 0 011.186 1.544c-.428 3.31-3.13 6.178-6.412 6.813-.083.027-.166.027-.262.027zm-60.183-2.702a5.291 5.291 0 01-3.668-1.475c-1.296-1.269-1.834-3.227-1.365-4.992a1.36 1.36 0 011.682-.98c.731.194 1.172.952.98 1.683-.208.8.04 1.738.634 2.33.593.58 1.53.828 2.33.607a1.372 1.372 0 011.696.966c.207.73-.22 1.489-.965 1.696a5.2 5.2 0 01-1.324.165zm5.049-2.855c-1.738 0-3.476-.759-4.62-2.082-1.393-1.6-1.835-3.944-1.131-5.944a1.382 1.382 0 011.765-.841 1.363 1.363 0 01.841 1.751c-.372 1.076-.124 2.372.607 3.227.745.855 1.986 1.296 3.103 1.076a1.37 1.37 0 011.613 1.09c.138.744-.345 1.475-1.09 1.612-.358.083-.73.11-1.089.11zM51.622 43.27a1.384 1.384 0 01-1.241-.785 1.375 1.375 0 01.441-1.71l2.634-1.876a1.387 1.387 0 011.93.318l.125.206 48.251-13.045A94.797 94.797 0 0198.55 8.96l-1.545 6.412c-.524 2.138-1.186 4.317-3.116 5.572-1.338.868-2.882 1.034-4.482.482-2.372-.813-4.62-3.199-5.571-5.943-.345-.993-.607-2.014-.87-3.007-.247-.951-.482-1.889-.785-2.758-.166 1.31-.483 2.62-1.034 3.862-1.186 2.62-4.027 5.295-7.502 4.95-2.124-.206-3.834-1.475-5.213-2.482l-7.281-5.378-3.392 18.327a1.394 1.394 0 01-.924 1.062 1.37 1.37 0 01-1.366-.303l-9.294-8.647a28.872 28.872 0 003.585 9.846 1.385 1.385 0 01-.482 1.89 1.385 1.385 0 01-1.89-.483 31.63 31.63 0 01-4.343-14.7 1.362 1.362 0 01.8-1.31 1.372 1.372 0 011.516.248l10.15 9.446 3.337-18.024c.083-.469.414-.855.855-1.034.441-.165.938-.11 1.324.18l9.06 6.688c1.158.854 2.482 1.82 3.847 1.958 2.014.193 3.903-1.531 4.716-3.338.98-2.165.994-4.716 1.021-7.184 0-.538.317-1.02.814-1.241a1.378 1.378 0 011.475.22c2.276 1.986 3.007 4.813 3.71 7.544.248.979.496 1.903.8 2.785.662 1.917 2.289 3.71 3.86 4.248.787.275 1.463.206 2.083-.194 1.076-.689 1.53-2.233 1.93-3.902l3.172-13.1a1.372 1.372 0 011.42-1.049 1.371 1.371 0 011.283 1.214 92.235 92.235 0 006.702 24.974 1.38 1.38 0 01-.027 1.144 1.42 1.42 0 01-.883.731L52.008 43.271c-.138-.014-.262 0-.386 0z" fill="#12100B"/></svg>