<svg width="133" height="201" fill="none" xmlns="http://www.w3.org/2000/svg"><path d="M91.628 175.65c-.835 1.669-.239 3.418-.676 5.008-.278 1.073-.596 2.146-1.828 2.425-1.153.278-1.79-.517-2.385-1.352-2.147-2.981-6.678-1.471-9.182.676-1.67 1.431-4.174 2.981-3.26 5.763.914 2.703 3.657 3.021 6.082 3.3 9.261 1.033 18.205.318 26.154-5.128 3.3-2.266 3.3-4.253.08-6.598-1.352-.994-2.822-1.829-3.975-2.982-1.709-1.748-1.033-4.054 1.272-4.491 4.253-.755 11.328.358 13.753 6.042 2.067 4.929.358 10.851-4.333 14.587-5.843 4.611-12.64 6.678-19.834 7.354-5.644.517-11.368.636-16.933-.914-4.611-1.272-8.506-3.538-9.858-8.308-1.311-4.69.08-8.864 3.816-12.203 3.697-3.299 7.672-5.803 12.879-5.246 1.868.198 2.106-.795 2.067-2.306-.12-4.293-.994-8.586.715-12.799.437-1.073-.517-1.312-1.113-1.749-3.418-2.743-3.736-4.809-1.272-8.546 1.47-2.265 0-6.002-2.067-7.671-3.696-2.981-6.2-.915-8.784 1.351-5.446 4.81-11.806 7.632-18.92 8.785-.676.119-1.352.238-2.028.278-1.43.04-3.339.556-3.776-1.312-.437-1.948 1.312-2.981 2.862-3.537 2.782-.954 5.763-1.312 8.427-2.505 7.79-3.577 14.389-9.062 21.066-14.309 2.147-1.709 4.77-3.101 6.4-6.638-3.935 1.669-7.274 2.941-10.454 4.531-4.69 2.306-9.301 4.69-14.786 3.856-1.869-.279-3.657-.835-5.128-2.027-1.034-.835-1.749-2.028-1.073-3.379.675-1.391 1.987-1.034 3.1-.596 3.896 1.51 7.552.357 11.09-1.193 4.293-1.908 8.546-3.935 12.8-5.962 1.033-.477 2.424-.835 1.629-2.464-.636-1.312-.875-3.021-3.18-2.664-10.454 1.63-20.391 4.77-29.732 9.699-6.28 3.299-11.806 7.632-17.688 11.527-9.302 6.161-19.636 8.546-30.806 7.036-1.55-.199-2.663-.915-2.742-2.544-.12-1.868 1.351-2.306 2.742-2.425 3.498-.278 6.996-.517 10.494-.954 8.546-1.113 15.78-4.968 22.617-9.897 6.121-4.412 12.362-8.387 19.437-11.368 6.36-2.703 12.72-4.969 19.398-6.519 2.226-.517 2.345-1.272.516-3.22-4.213-4.531-8.267-9.142-11.09-14.707-1.907-3.736-3.1-7.75-3.378-11.805-.795-10.653.676-21.107 3.657-31.362 1.113-3.856 1.987-7.79 4.173-11.249a14.457 14.457 0 012.862-3.339c.676-.596 1.829-1.312 2.385-.755 2.385 2.464 5.525 1.63 8.308 2.027 7.234 1.073 14.468.398 21.583-1.232.914-.199 1.948-.398 2.822-1.312-1.629-1.113-3.497-1.073-5.207-1.113-6.16-.278-12.322.239-18.483.756-1.749.119-3.657.476-4.094-1.67-.477-2.305 1.71-2.703 3.26-2.981 6.439-1.153 12.799-2.981 19.437-2.743 3.696.12 7.433-.596 11.01.914 2.703 1.153 5.008 2.664 6.28 5.406.239.517.557 1.153 1.034 1.391 4.094 2.067 4.849 6.082 5.406 9.898.834 5.724 1.232 11.487 1.391 17.25.199 6.44.596 12.92.874 19.358.517 12.919-5.167 22.498-15.701 29.653-3.418 2.305-6.916 4.452-10.453 6.519-1.153.676-1.63 1.312-.517 2.464 2.623 2.783 2.504 6.002 1.471 9.341-.438 1.391-.835 2.822-1.233 4.214-.477 1.629-.357 2.901 1.789 3.14 2.107.238 2.425 1.828 2.067 3.498-.398 2.027-.557 4.054-.755 6.121-.278 3.021-2.306 4.968-4.969 6.042-2.623 1.033-5.406 1.749-8.109 2.583-.715.239-1.63 0-2.027 1.272 3.538 1.272 6.837.835 9.937-1.192.636-.437 1.193-1.034 1.829-1.431.795-.477 1.669-.557 2.504 0 .874.556.914 1.471.716 2.345-.795 3.617-3.141 5.764-6.638 6.757-3.777 1.074-3.538 1.034-2.783 4.889.795 4.214 2.385 8.268 2.703 12.601.12 1.63.477 3.378-1.51 3.935-1.79.477-2.067-1.352-2.703-2.504-.358-.557-.438-1.232-1.431-1.391zm25.677-142.023c-2.226 2.425-4.173 4.452-6.836 5.327-11.408 3.736-22.856 4.253-34.264 0-2.027-.756-2.703-.398-3.299 1.59-2.743 9.221-5.008 18.483-5.605 28.181-.516 8.666 1.233 16.417 6.44 23.492 5.127 7.035 12.56 12.203 16.495 20.232.636 1.272 1.59 1.352 2.425 0 1.391-2.345 3.458-3.975 5.724-5.406 4.054-2.583 8.307-4.849 12.163-7.711 6.201-4.61 10.255-10.732 10.573-18.761.159-4.214-.278-8.427-.477-12.64-.596-11.29-1.629-22.459-3.339-34.304z" fill="#000"/><path d="M47.03 170.243c-8.863.954-18.006.875-26.87 3.458-4.77 1.392-9.778 1.908-14.707 2.743-1.788.318-3.497-.278-4.133-2.027-.636-1.709.477-3.18 1.947-3.895 10.573-5.208 21.186-9.938 33.588-8.984 7.274.557 14.588 1.511 21.941.756 4.532-.477 8.188-2.385 11.885-4.651 2.226-1.352 4.69-2.067 7.195-2.504 1.63-.278 3.378.199 3.895 1.868.636 1.987-1.033 2.782-2.584 3.22-2.583.755-4.81 2.186-6.995 3.657-4.571 3.06-9.54 4.928-15.065 5.286-3.34.278-6.519 1.709-10.096 1.073zm82.558-155.376c1.352.04 2.465.04 2.981 1.272.517 1.232.12 2.425-.914 3.14-2.822 1.988-5.883 3.498-9.341 3.856-1.431.159-2.782-.199-3.339-1.749-.596-1.63.358-2.584 1.59-3.379 2.783-1.947 5.963-2.742 9.023-3.14zm-12.601-7.832c.079 2.027.198 4.094-.477 6.081-.557 1.59-1.59 2.862-3.339 2.743-1.749-.12-1.908-1.789-2.067-3.1-.517-3.816.795-7.275 2.067-10.772.318-.835.914-1.55 1.987-1.352 1.073.199 1.749.954 1.829 2.027.079 1.431 0 2.902 0 4.373z" fill="#000"/><path d="M116.989 75.76c.676 8.03-1.829 14.986-9.262 19.756-14.985 9.659-27.943.675-33.19-10.335-2.106-4.412-3.02-8.864-1.709-13.674.437-1.63 1.312-2.742 2.782-3.577 3.3-1.868 6.758-3.06 10.574-3.1 6.876 0 13.316-1.868 19.636-4.333 6.598-2.584 9.778-.477 10.692 6.559.358 2.782.517 5.525.477 8.705z" fill="#BD1823"/></svg>