<svg width="193" height="201" fill="none" xmlns="http://www.w3.org/2000/svg"><path d="M72.364 57.697c.65.368 1.192.607 1.647.954.803.585.911 1.409.174 2.038-.802.693-1.258 1.56-1.865 2.363-.758.997-1.82 1.626-3.035 1.994-.65.195-1.279.325-.563 1.236.325.434 0 .954-.369 1.279-.39.347-.845.65-1.3.91-.63.39-1.691.586-1.865 1.106-.325.91.954.846 1.43 1.344 1.714 1.778 1.107 4.856-1.322 6.265-1.365.803-2.861 1.15-4.422 1.301-.369.044-.846.044-.889.499-.043.52.499.455.824.52 3.88.867 6.33 3.49 7.978 6.85 1.756 3.556.13 8.152-3.339 10.19-6.807 4.011-14.373 1.778-18.882-3.317-1.822-2.06-1.822-6.85-.13-8.932.281-.368.628-.585 1.105-.498.52.086.867.412.976.932.065.26.086.52.065.802-.044 4.51.954 6.005 5.073 7.436 3.338 1.17 6.612 1.323 9.625-.867 1.821-1.323 2.168-3.425.824-5.203-1.17-1.54-2.493-2.927-4.054-4.097-.694-.52-1.127-.65-1.496.39-.455 1.344-2.168 1.864-4.054 1.279-1.517-.477-.954-1.648-.824-2.689.109-.715.78-1.582.152-2.08-.52-.413-1.257.325-1.886.606a179.366 179.366 0 01-6.677 2.732c-4.748 1.843-9.409 1.582-14.07-.26a171.09 171.09 0 01-6.222-2.58c-4.488-1.951-9.105-1.41-13.701-.737-1.17.173-2.32.39-3.49.238-.694-.086-1.431-.303-1.475-1.192-.043-.889.672-1.236 1.344-1.344 2.667-.499 5.355-.954 8.065-1.3 5.398-.673 10.384.931 15.306 2.666 2.493.888 4.986 1.604 7.63 1.669 1.475.022 2.819-.585 4.141-1.106 2.385-.954 4.705-2.016 7.068-3.035.152-.065.282-.151.433-.195 1.02-.412 4.553-3.469 5.095-4.357.238-.39.347-.738-.13-.91-1.886-.63-2.753-2.039-2.883-4.12-1.106.607-1.713 1.366-2.342 2.081-1.474 1.626-3.273 2.753-5.203 3.686-.368.173-.78.347-1.192.412-.759.086-1.583.108-1.908-.78-.303-.846.412-1.302.976-1.627 1.886-1.062 3.468-2.493 5.05-3.945 1.345-1.236 2.386-2.732 3.231-4.358 1.843-3.599 4.705-6.135 8.282-7.935 1.517-.758 2.948-1.734 4.4-2.644.412-.26 1.236-.499.954-1.063-.325-.65-1.105-.151-1.56.044-2.169.932-4.271 1.95-6.418 2.926-2.341 1.04-4.704 2.082-6.872 3.469-.303.195-.65.412-.997.477-.716.152-1.54.455-2.081-.282-.52-.715.065-1.3.412-1.886.758-1.3 2.06-2.081 2.948-3.404-.91.26-1.864.412-2.71.78-4.834 2.039-9.43 4.532-13.918 7.242-4.293 2.601-8.802 4.119-14.026 3.078-4.206-.845-8.455-1.777-12.835-1.582-1.56.065-3.1.108-4.617.498-.76.195-1.605.39-1.886-.585-.282-1.019.411-1.626 1.322-1.843 2.363-.585 4.791-.325 7.176-.477 4.336-.26 8.628.52 12.942.542 3.014.022 5.615-1.062 8-2.515 8.628-5.268 17.669-9.517 27.598-11.728.975-.217 2.016-.087 3.013-.13.455-.022 1.04.325 1.3-.239.218-.455-.324-.737-.541-1.084-1.648-2.623-3.23-5.268-4.163-8.281-1.604-5.225-.455-10.168 1.431-15.024.954-2.428 2.125-4.79 3.209-7.176.759-1.669 1.843-3.143 3.122-4.444.607-.607 1.235-1.214 2.103-1.409 1.062-.239 1.799-.477 1.669-1.951-.13-1.453 2.254-2.862 4.422-2.97 2.493-.13 4.9.195 7.241 1.105 3.816 1.475 7.913 2.277 11.338 4.748.976.694 1.822 1.474 2.32 2.58.152.325.325.737.607.932 2.862 1.951 3.209 4.965 3.209 7.978 0 5.377-1.15 10.558-3.035 15.63-1.063 2.84-2.407 5.442-4.358 7.762-2.97 3.512-6.959 5.225-11.208 6.526-.607.195-1.236.346-1.865.477-1.257.281-2.406.433-1.018 2.146.802 1.019.281 2.254-.564 3.208-.759.91-1.778 1.583-2.97 2.255zM60.158 29.492c.044 3.035.586 5.702 1.908 8.238 1.323 2.515 2.667 4.987 4.358 7.263.52.715.021 1.778.78 2.146 1.063.52 1.301 1.951 2.06 2.233.997.369 1.452-1.236 2.363-1.8 2.168-1.343 4.53-2.124 6.829-3.1 3.75-1.625 7.11-3.75 9.018-7.544 2.884-5.701 4.38-11.772 4.64-18.145.043-.91-.369-.824-.976-.586-.976.39-1.8 1.084-2.97 1.084-3.274-.043-6.287-.954-9.192-2.428-2.927-1.474-5.376-3.685-8.26-5.203-2.211-1.17-3.382-.845-4.596 1.323-.997 1.777-2.016 3.533-2.818 5.398-1.561 3.62-3.165 7.262-3.144 11.121zM74.662 7.835a1.504 1.504 0 00-.109.281c1.063.673 2.125 1.388 3.23 2.017 2.84 1.604 5.724 3.1 9.02 3.577.52.065 1.192.151 1.365-.477.152-.564-.455-.78-.867-.998-2.558-1.365-5.312-2.19-8.065-3.078-1.539-.477-3.057-.889-4.574-1.322zM60.05 74.585c.802 0 1.323.022 1.864 0 .672-.043 1.323-.303 1.475-.997.173-.802-.564-1.02-1.084-1.344-.89-.564-1.735-.477-2.537.086-.672.456-1.95.716-1.778 1.605.217 1.084 1.496.52 2.06.65zm70.24 28.552c3.664 0 7.349-.022 11.013 0 2.515 0 5.008.065 7.523.086 7.262.022 12.747 3.989 18.254 8.065 6.287 4.661 13.115 8.216 21.05 9.214 1.019.13 1.995.368 2.927.78.498.217.997.499.932 1.149-.065.629-.564.846-1.084 1.019-1.279.434-2.536.152-3.816-.022-3.013-.412-6.048-.303-9.061-1.062-4.705-1.192-8.434-4.011-12.271-6.742-3.642-2.602-6.807-5.832-10.991-7.675-3.057-1.344-6.266-1.799-9.539-1.821-5.116-.021-10.254.174-15.371-.021-.585-.022-1.17-.044-1.994.672 5.051-1.106 9.148 1.387 13.528 2.211 1.777.325 3.598.412 5.398.607 1.17.13 2.341.217 3.382.867.52.347.889.781.78 1.453-.13.715-.672.932-1.301.954-3.75.108-7.436-.217-11.078-1.388-2.666-.867-5.268-1.994-8.173-1.994 2.038 2.059 4.466 3.316 7.284 3.858 6.613 1.28 11.642 4.835 15.176 10.558.455.716.78 1.583-.043 2.146-.954.651-1.908.239-2.494-.672-1.235-1.972-2.709-3.663-4.487-5.203-2.407-2.081-5.268-2.948-8.26-3.577-1.452-.303-2.97-.498-4.314-1.17-1.279-.629-2.472-1.431-3.707-2.602-.174 1.518-.564 2.645-1.735 3.491.889.043 1.778.173 2.645.108 1.735-.13 3.274.477 4.726 1.279 2.06 1.149 2.602 3.035 1.54 5.16-.196.39-.542.823-.326 1.192.824 1.322.672 2.667.499 4.141-.13 1.127 1.192 1.192 2.06 1.257a36.641 36.641 0 0110.427 2.385c2.147.824 4.163 1.951 6.266 2.883 1.712.759 3.533 1.041 5.441 1.236 4.965.477 9.907-.087 14.872.217 4.813.303 9.496 1.344 14.222 2.189.26.044.52.152.758.239.629.238 1.214.585 1.084 1.387-.13.759-.715 1.063-1.409 1.084a91.048 91.048 0 01-7.696-.108 580.892 580.892 0 00-12.292-.586c-5.745-.195-11.577.044-16.975-2.514-.715-.347-1.496-.629-2.103-1.128-2.254-1.842-5.008-2.579-7.609-3.663-1.084-.456-2.298-.434-3.426-.803-1.04-.346-1.235.542-.867 1.236.564 1.084 1.279 2.081 1.973 3.1.347.521.889.26 1.323.174 4.032-.846 7.739 3.122 8.043 6.525.26 2.905-.651 5.485-2.624 7.675-3.555 3.924-7.978 6.113-13.267 6.07-6.591-.044-9.864-5.94-6.634-11.707 1.105-1.973 2.623-3.642 4.314-5.138.195-.173.434-.325.65-.455 1.886-.954 1.886-.954 1.041-3.014-.13-.303-.282-.585-.347-.888-.347-1.8-1.452-2.667-3.208-3.296-2.515-.91-4.878-2.341-6.027-4.943-.694-1.539-1.063-3.186-2.623-4.205-.499-.326-.607-1.149-.217-1.778.563-.932 1.431-.607 2.623-.239-1.431-1.539-2.602-2.709-3.013-4.422-.152-.607-.803-.585-1.323-.737-4.011-1.106-4.878-4.163-2.038-7.198.564-.607 1.691-1.235 1.431-1.951-.282-.802-1.539-.26-2.341-.433-3.512-.716-6.569-2.125-9.257-4.661-3.1-2.906-4.856-6.483-6.092-10.363-.889-2.797-1.236-5.724-1.604-8.629A141.554 141.554 0 0199.375 69.1c-.021-.737.044-1.496.152-2.233.108-.759.434-1.387 1.366-1.127.412.108.672-.022.997-.26 3.967-2.97 8.347-5.182 13.138-6.46 3.555-.955 7.132-1.302 10.753-.283 1.474.412 2.428 1.28 2.796 2.775.325 1.301.932 2.472 1.604 3.642 3.643 6.46 6.504 13.246 7.87 20.574 1.084 5.875-.889 10.71-5.398 14.569-.889.758-1.713 1.56-2.558 2.363.086.195.13.325.195.477zm3.772-13.55c-.065-.564-.13-1.04-.195-1.517-.867-6.83-3.599-13.03-6.395-19.23-.607-1.344-1.149-1.453-2.363-.629-3.447 2.342-7.393 3.49-11.469 3.599-3.23.087-6.525-.26-9.69-1.084-1.106-.303-1.301.195-1.171 1.17.412 3.23.672 6.483 1.149 9.691.737 4.835 1.214 9.734 3.859 14.092 2.601 4.27 6.2 6.764 11.23 7.219 1.626.152 3.317.065 4.791 1.084.628.434 1.084.152 1.387-.499 1.67-3.555 4.444-6.243 6.981-9.127 1.192-1.365 1.778-3.035 1.886-4.769zm6.005 50.838c0 .303-.021.455 0 .607.195 1.019 1.431 2.189 0 2.97-1.431.802-2.081-.716-2.71-1.583-.585-.802-1.062-.715-1.691-.238-1.994 1.452-3.49 3.338-4.14 5.701-.759 2.71.498 4.336 3.273 4.662 3.382.411 9.539-3.079 10.926-6.179 1.041-2.32.066-4.835-2.232-5.745-.282.52 0 1.431-.846 1.561-1.279.195-1.756-.976-2.58-1.756zm-35.727-73.06c3.815.413 7.306.825 10.818.478a16.772 16.772 0 007.349-2.493c.867-.542 2.016-1.258 1.799-2.212-.238-1.04-1.626-.737-2.536-.715-5.897.173-11.425 1.864-16.715 4.357-.173.087-.303.26-.715.586zm18.601 46.091c.693-.109 1.452.217 1.712-.434.217-.563-.498-.867-.802-1.257-.238-.282-.477-.585-.759-.802-.477-.347-.867-1.149-1.582-.694-.716.434-1.518 1.019-1.539 1.886-.022.932 1.04.672 1.604.976.412.216.975.238 1.366.325zM104.296 13.342c-1.062-.021-2.146.044-3.187-.281-.715-.239-1.257-.63-1.257-1.453 0-.759.346-1.366 1.084-1.626 2.428-.845 4.856-.563 7.219.282.563.195.932.737.932 1.388 0 .628-.52.867-1.019 1.127-1.192.585-2.493.498-3.772.563zM88.97 76.407c-1.496 0-2.038-.824-1.54-1.843.369-.759.976-1.279 1.648-1.69 1.604-1.02 3.078-2.299 5.03-2.69.628-.13 1.322-.237 1.712.456.369.629-.021 1.193-.455 1.561-1.994 1.821-4.14 3.447-6.395 4.206zm6.44-10.189c-1.951-.217-3.664.195-5.355-.347-1.106-.369-2.081-.78-1.821-2.168.26-1.301 1.279-1.648 2.45-1.431 1.777.303 3.598.542 5.203 1.452.607.347 1.647.477 1.365 1.475-.26.997-1.279.954-1.842 1.019zm5.269-6.331c-.022.91-.152 1.41-.737 1.648-.52.217-.976.021-1.301-.347-1.323-1.54-2.688-3.057-3.49-4.965-.52-1.257.173-2.19 1.148-2.666 1.02-.499 1.886.173 2.298 1.127.78 1.821 1.475 3.664 2.082 5.203zM97.445 6.773c-.021-1.951 2.602-5.637 4.228-6.114.867-.26 1.648.39 1.431 1.323-.542 2.276-1.8 4.206-3.274 5.983-.347.412-.932.607-1.474.369-.715-.325-.846-1.04-.91-1.561z" fill="#000"/><path d="M74.986 42.869c-7.262.022-13.137-6.33-12.574-13.354.13-1.778 1.626-3.404 3.512-3.925 2.494-.693 4.943-.39 7.198.673 2.233 1.04 4.336.823 6.525.13 1.323-.412 2.602-.998 3.99-1.171 3.1-.369 4.769 1.496 4.01 4.596-.672 2.688-2.276 4.921-3.685 7.24-1.258 2.039-2.97 3.621-5.073 4.792-1.301.715-2.645 1.149-3.903 1.019zm55.241 44.767c-.108 3.1-.759 5.702-2.515 7.826-2.471 2.97-5.918 3.556-9.474 3.1-5.072-.65-7.847-4.162-9.799-8.498-.455-1.019-.758-2.124-.997-3.208-.585-2.558.022-3.794 2.385-4.9 1.778-.824 3.664-1.17 5.615-.737 4.076.889 8.151 1.756 12.314 2.103.823.065 1.365.542 1.712 1.257.542 1.084.867 2.19.759 3.057z" fill="#BD1823"/><path d="M78.78 186.993c-.456.911-.131 1.865-.37 2.732-.151.585-.325 1.171-.997 1.322-.628.152-.975-.282-1.3-.737-1.171-1.626-3.643-.802-5.008.369-.91.78-2.277 1.626-1.778 3.143.499 1.474 1.994 1.648 3.317 1.8 5.051.563 9.929.173 14.265-2.797 1.8-1.236 1.8-2.32.043-3.599-.737-.542-1.54-.997-2.168-1.626-.932-.954-.564-2.211.694-2.449 2.32-.412 6.178.195 7.501 3.295 1.127 2.688.195 5.918-2.363 7.956-3.187 2.515-6.894 3.642-10.818 4.011-3.079.282-6.2.347-9.235-.499-2.515-.694-4.64-1.929-5.377-4.531-.715-2.558.043-4.834 2.081-6.655 2.017-1.8 4.184-3.166 7.025-2.862 1.018.108 1.148-.434 1.127-1.257-.065-2.342-.542-4.683.39-6.981.239-.585-.282-.716-.607-.954-1.864-1.496-2.038-2.623-.694-4.661.802-1.236 0-3.274-1.127-4.184-2.016-1.626-3.382-.499-4.791.737-2.97 2.623-6.439 4.162-10.32 4.791-.368.065-.737.13-1.105.152-.78.021-1.821.303-2.06-.716-.238-1.062.716-1.626 1.561-1.929 1.518-.52 3.144-.715 4.596-1.366 4.25-1.951 7.848-4.943 11.49-7.804 1.17-.933 2.602-1.691 3.49-3.621-2.146.911-3.967 1.604-5.701 2.472-2.558 1.257-5.073 2.558-8.065 2.102-1.019-.151-1.994-.455-2.796-1.105-.564-.455-.954-1.106-.586-1.843.369-.759 1.084-.564 1.691-.325 2.125.824 4.12.195 6.049-.65 2.341-1.041 4.66-2.147 6.98-3.252.564-.26 1.323-.456.89-1.344-.347-.716-.478-1.648-1.735-1.453-5.702.889-11.121 2.602-16.216 5.29-3.425 1.799-6.439 4.162-9.647 6.287-5.073 3.36-10.71 4.661-16.802 3.837-.845-.108-1.452-.499-1.496-1.388-.065-1.018.738-1.257 1.496-1.322 1.908-.152 3.816-.282 5.724-.52 4.66-.607 8.606-2.71 12.335-5.398 3.339-2.407 6.742-4.575 10.601-6.201 3.469-1.474 6.938-2.71 10.58-3.555 1.214-.282 1.279-.694.282-1.756-2.298-2.471-4.51-4.986-6.049-8.021-1.04-2.038-1.69-4.228-1.843-6.439-.433-5.81.369-11.512 1.995-17.105.607-2.103 1.084-4.249 2.276-6.135a7.876 7.876 0 011.561-1.821c.369-.325.997-.716 1.3-.412 1.302 1.344 3.014.889 4.532 1.105 3.945.586 7.891.217 11.772-.672.498-.108 1.062-.216 1.539-.715-.89-.607-1.908-.585-2.84-.607-3.36-.152-6.72.13-10.081.412-.954.065-1.995.26-2.233-.911-.26-1.257.932-1.474 1.778-1.626 3.512-.628 6.98-1.626 10.6-1.496 2.017.066 4.055-.325 6.006.499 1.474.629 2.732 1.453 3.425 2.948.13.282.304.629.564.759 2.233 1.128 2.645 3.317 2.948 5.398.456 3.122.672 6.266.76 9.409.108 3.512.324 7.046.476 10.558.282 7.046-2.818 12.27-8.563 16.173a104.026 104.026 0 01-5.702 3.555c-.629.369-.889.716-.282 1.344 1.431 1.518 1.366 3.274.802 5.095-.238.759-.455 1.539-.672 2.298-.26.889-.195 1.582.976 1.712 1.149.131 1.322.998 1.127 1.908-.217 1.106-.303 2.212-.412 3.339-.151 1.647-1.257 2.71-2.71 3.295-1.43.564-2.948.954-4.422 1.409-.39.13-.889 0-1.106.694 1.93.694 3.73.455 5.42-.65.347-.239.65-.564.997-.781.434-.26.91-.303 1.366 0 .477.304.499.802.39 1.279-.433 1.973-1.712 3.144-3.62 3.686-2.06.585-1.93.563-1.518 2.666.434 2.298 1.301 4.51 1.475 6.873.065.888.26 1.842-.824 2.146-.976.26-1.128-.737-1.475-1.366-.195-.303-.238-.672-.78-.759zm14.004-77.46c-1.214 1.323-2.277 2.428-3.729 2.905-6.222 2.038-12.466 2.32-18.688 0-1.105-.412-1.474-.216-1.799.868-1.496 5.029-2.731 10.08-3.057 15.37-.281 4.726.672 8.954 3.512 12.813 2.797 3.837 6.851 6.655 8.997 11.034.347.694.868.737 1.323 0 .758-1.279 1.886-2.168 3.121-2.948 2.212-1.409 4.532-2.645 6.634-4.206 3.382-2.515 5.594-5.853 5.767-10.232.087-2.298-.152-4.596-.26-6.894a205.031 205.031 0 00-1.821-18.71z" fill="#000"/><path d="M54.457 184.044c-4.835.521-9.821.477-14.656 1.886-2.601.759-5.333 1.041-8.02 1.496-.976.174-1.909-.152-2.255-1.105-.347-.933.26-1.735 1.062-2.125 5.767-2.84 11.555-5.42 18.319-4.899 3.967.303 7.956.823 11.967.411 2.471-.26 4.466-1.3 6.482-2.536 1.214-.737 2.558-1.127 3.924-1.366.889-.152 1.843.109 2.124 1.019.347 1.084-.563 1.518-1.409 1.756-1.409.412-2.623 1.192-3.815 1.995-2.494 1.669-5.203 2.688-8.217 2.883-1.82.152-3.555.932-5.506.585zM99.482 99.3c.737.023 1.344.023 1.625.695.282.672.066 1.322-.498 1.712-1.54 1.084-3.209 1.908-5.095 2.103-.78.087-1.517-.108-1.82-.954-.326-.889.194-1.409.866-1.843 1.518-1.062 3.252-1.495 4.922-1.712zm-6.871-4.27c.044 1.105.109 2.232-.26 3.316-.303.867-.867 1.561-1.82 1.496-.955-.065-1.041-.976-1.128-1.691-.282-2.081.433-3.967 1.127-5.875.174-.455.499-.846 1.084-.737.585.108.954.52.997 1.105.044.78 0 1.583 0 2.385z" fill="#000"/><path d="M92.61 132.513c.368 4.379-.998 8.173-5.052 10.774-8.173 5.268-15.24.369-18.102-5.636-1.15-2.407-1.648-4.835-.932-7.458.238-.889.715-1.496 1.517-1.951 1.8-1.019 3.686-1.669 5.767-1.691 3.75 0 7.262-1.019 10.71-2.363 3.598-1.409 5.333-.26 5.831 3.577a33 33 0 01.26 4.748z" fill="#BD1823"/></svg>