<svg width="211" height="201" fill="none" xmlns="http://www.w3.org/2000/svg"><path d="M2.51 57.888C6.406 70.804 20.013 78.136 32.95 74.24 45.865 70.363 53.196 56.737 49.3 43.8c-3.896-12.915-17.503-20.246-30.438-16.35C5.946 31.346-1.386 44.972 2.51 57.888zm80.933-24.354c3.896 12.916 17.503 20.247 30.439 16.351 12.916-3.877 20.247-17.503 16.351-30.438C126.337 6.53 112.73-.801 99.795 3.095 86.898 6.991 79.567 20.618 83.443 33.534z" fill="#BA8A52"/><path d="M20.227 97.673c8.925 29.69 42.395 45.888 74.753 36.158 32.358-9.731 51.358-41.704 42.414-71.394-8.943-29.69-42.395-45.888-74.752-36.158-32.358 9.73-51.339 41.704-42.415 71.394z" fill="#BA8A52"/><path d="M98.051 29.158c1.459 4.855 6.583 7.619 11.458 6.16 4.855-1.458 7.619-6.582 6.161-11.457-1.459-4.856-6.583-7.62-11.458-6.16-4.875 1.458-7.62 6.582-6.16 11.457zM17.097 53.493c1.458 4.855 6.583 7.619 11.457 6.16 4.856-1.458 7.62-6.582 6.161-11.457-1.459-4.856-6.583-7.62-11.458-6.16-4.855 1.477-7.619 6.601-6.16 11.457z" fill="#D3A76D"/><path d="M94.443 63.204a4.817 4.817 0 006.007 3.224 4.818 4.818 0 003.225-6.007 4.818 4.818 0 00-6.007-3.224 4.832 4.832 0 00-3.225 6.007z" fill="#2B2523"/><path d="M99.373 59.998c.192.614.825.96 1.42.768.614-.192.959-.825.768-1.44a1.126 1.126 0 00-1.421-.767c-.595.192-.94.825-.767 1.44z" fill="#fff"/><path d="M47.248 77.406a4.817 4.817 0 006.007 3.224 4.817 4.817 0 003.224-6.007 4.817 4.817 0 00-6.007-3.224 4.832 4.832 0 00-3.224 6.007z" fill="#2B2523"/><path d="M52.182 74.182c.173.614.825.96 1.42.768.614-.192.96-.826.768-1.44a1.126 1.126 0 00-1.42-.767c-.614.191-.96.844-.768 1.439z" fill="#fff"/><path d="M37.136 93.662c1.458 4.855 6.582 7.619 11.457 6.16 4.856-1.458 7.62-6.582 6.16-11.457-1.458-4.856-6.582-7.62-11.457-6.16-4.855 1.458-7.619 6.601-6.16 11.457zm66.344-19.96c1.458 4.855 6.583 7.619 11.457 6.16 4.856-1.458 7.619-6.582 6.161-11.457-1.459-4.856-6.583-7.62-11.458-6.16-4.855 1.477-7.619 6.601-6.16 11.457z" fill="#F5B7B6"/><path d="M98.127 72.32c2.227 7.428-4.855 16.102-15.814 19.403-10.958 3.301-21.648-.038-23.894-7.465-2.226-7.408 5.182-14.99 16.14-18.29 10.978-3.301 21.342-1.075 23.568 6.352z" fill="#D3A76D"/><path d="M71.72 74.661c.575 1.92 3.3 2.802 6.083 1.958 2.783-.825 4.568-3.07 3.992-4.99-.576-1.92-2.955-1.631-5.719-.806-2.802.844-4.932 1.92-4.356 3.838z" fill="#2B2523"/><path d="M75.979 138.09c-26.159 0-49.784-15.545-57.135-39.996-2.245-7.446-2.821-15.142-1.727-22.896A25.91 25.91 0 011.111 58.31C-.885 51.688-.175 44.701 3.107 38.6c3.263-6.084 8.713-10.537 15.334-12.533 9.385-2.821 19.538-.077 26.235 6.986 5.413-3.55 11.305-6.276 17.542-8.157a67.586 67.586 0 0119.135-2.878 25.907 25.907 0 0118.04-20.305C106.014-.283 113 .427 119.084 3.708c6.084 3.282 10.536 8.714 12.532 15.335a25.862 25.862 0 01-4.03 22.915c5.182 5.873 8.962 12.61 11.189 20.056 9.154 30.419-10.326 63.237-43.374 73.178-6.487 1.958-13.031 2.898-19.422 2.898zM25.888 27.852c-2.207 0-4.434.326-6.602.979-5.892 1.765-10.729 5.719-13.627 11.131-2.917 5.412-3.531 11.63-1.765 17.503C6.1 64.815 11.82 70.554 19.17 72.82c.69.21 1.113.902.998 1.612-1.267 7.734-.768 15.41 1.458 22.819 8.694 28.884 41.416 44.66 72.968 35.179 31.551-9.481 50.148-40.706 41.455-69.59-2.227-7.408-6.065-14.087-11.381-19.845-.48-.537-.519-1.343-.058-1.9a22.995 22.995 0 004.261-21.226c-1.766-5.873-5.72-10.728-11.132-13.626-5.412-2.898-11.63-3.531-17.503-1.766-8.694 2.61-15.046 10.134-16.198 19.173a1.445 1.445 0 01-1.42 1.267h-.02a64.328 64.328 0 00-19.517 2.744c-6.353 1.92-12.36 4.76-17.791 8.483a1.424 1.424 0 01-1.9-.25 23.14 23.14 0 00-17.503-8.041z" fill="#2B2523"/><path d="M120.082 135.672s27.137 18.75 47.442 2.84c18.021-14.125-2.034-27.156-10.805-31.225-9.289-4.318-23.644-4.606-31.916-.326-5.316 2.763-8.214 8.866-8.137 11.361" fill="#BA8A52"/><path d="M148.542 146.305c-15.392 0-29.095-9.308-29.306-9.443l1.631-2.38c.269.192 26.504 17.945 45.734 2.898 4.894-3.838 7.121-7.811 6.66-11.803-.806-7.024-9.769-13.53-17.196-16.985-9.116-4.222-22.857-4.394-30.649-.345-4.933 2.553-7.428 8.253-7.351 10.018l-2.879.096c-.115-3.224 3.301-9.769 8.905-12.686 8.483-4.395 23.376-4.26 33.183.307 2.937 1.363 17.619 8.675 18.847 19.269.595 5.067-2.015 9.922-7.754 14.413-6.256 4.913-13.185 6.641-19.825 6.641z" fill="#2B2523"/><path d="M149.601 185.015c.365 6.948-22.185 13.799-50.378 15.296-28.193 1.497-51.339-2.936-51.722-9.884-.365-6.947 22.185-13.799 50.378-15.296 28.193-1.497 51.339 2.918 51.722 9.884z" fill="#9C9B9A"/><path d="M49.38 129.147v51.627s-.231 12.014 10.363 12.705c10.594.71 20.247 1.881 26.6-7.063 6.352-8.943 6.602-14.125 15.296-14.125 8.713 0 7.542 6.122 8.943 9.423 1.421 3.301 5.182 9.423 17.427 7.063 12.244-2.361 15.065-5.412 15.295-20.478.231-15.066 0-60.032 0-60.032" fill="#BA8A52"/><path d="M69.167 195.398c-2.553 0-5.201-.192-7.888-.365l-1.612-.115c-9.462-.633-11.803-9.557-11.707-14.183v-51.588h2.879v51.627c0 .46-.058 10.67 9.02 11.285l1.631.115c9.73.671 18.137 1.247 23.702-6.564 1.555-2.188 2.725-4.145 3.781-5.873 3.224-5.335 5.355-8.866 12.705-8.866 7.945 0 8.982 4.836 9.654 8.041.172.845.345 1.651.614 2.246 2.475 5.757 7.638 7.791 15.814 6.218 11.074-2.131 13.895-4.28 14.125-19.096.23-14.874 0-59.553 0-59.994l2.879-.019c0 .441.23 45.158 0 60.07-.25 15.431-3.167 19.307-16.467 21.879-9.442 1.823-16.025-.921-19.019-7.907-.365-.864-.576-1.842-.787-2.783-.653-3.09-1.228-5.757-6.832-5.757-5.739 0-7.14 2.341-10.23 7.465-1.074 1.766-2.283 3.781-3.895 6.046-4.78 6.698-11.247 8.118-18.367 8.118z" fill="#2B2523"/><path d="M123.825 142.063c0 14.221-11.074 25.756-24.739 25.756-13.665 0-24.738-11.535-24.738-25.756s11.073-25.755 24.738-25.755c13.665-.02 24.739 11.515 24.739 25.755z" fill="#D3A76D"/><path d="M157.43 62.456s5.067-27.867-3.896-37.502c-8.962-9.653-37.021 7.792-40.917 14.606-3.608 6.314-16.332 40.782-18.194 45.83a5.98 5.98 0 00-.307 1.286L80.758 191.003c-.345 2.629 2.591 4.414 4.664 2.783 20.574-16.064 91.123-71.452 95.461-79.013 5.066-8.867 33.029-49.86 29.517-59.764-2.649-7.427-21.898-26.35-28.711-17.58-6.833 8.771-24.259 25.026-24.259 25.026z" fill="#BD1823"/><path d="M63.714 155.249s32.972-.557 40.207-25.334c6.429-21.974-17.465-20.88-26.984-19.076-10.056 1.9-21.898 10.018-26.12 18.328-2.725 5.335-1.516 11.995 0 13.972" fill="#BA8A52"/><path d="M63.735 156.688l-.058-2.879c.326 0 32.012-.845 38.845-24.297 1.746-5.969 1.247-10.498-1.459-13.473-4.76-5.239-15.833-5.316-23.875-3.781-9.864 1.881-21.13 9.75-25.122 17.561-2.514 4.932-1.228 11.035-.154 12.436l-2.283 1.766c-1.977-2.553-3.014-9.865-.135-15.507 4.338-8.502 16.505-17.081 27.138-19.096 3.166-.595 19.384-3.205 26.542 4.683 3.436 3.78 4.127 9.231 2.092 16.217-7.408 25.487-41.186 26.35-41.531 26.37z" fill="#2B2523"/></svg>