<svg width="222" height="24" fill="none" xmlns="http://www.w3.org/2000/svg"><rect width="48" height="24" rx="2" fill="#F5F5F5"/><path d="M29.554 7c1.13 0 2.035.232 2.612.448l-.395 2.309-.262-.122a5.38 5.38 0 00-2.182-.41c-1.14 0-1.668.476-1.668.918-.007.498.617.829 1.637 1.322 1.68.76 2.457 1.682 2.446 2.894C31.72 16.571 29.731 18 26.667 18c-1.307-.013-2.566-.271-3.247-.568l.41-2.386.375.17c.957.398 1.577.558 2.743.558.838 0 1.736-.326 1.743-1.04.006-.467-.376-.8-1.51-1.322-1.105-.51-2.569-1.363-2.553-2.895C24.645 8.446 26.674 7 29.554 7zm12.445 10.845h-2.705s-.267-1.224-.354-1.597l-3.733-.004c-.113.287-.608 1.587-.613 1.6h-3.062L35.86 8.08c.308-.694.83-.884 1.528-.884h2.252l2.359 10.649zm-20.404-.003h-2.913l1.822-10.656h2.914l-1.823 10.656zM19.323 7.193L14.735 17.83l-3.084.004-2.608-9.32c1.85.923 3.505 2.768 4.036 4.47l.305 1.477 2.852-7.267h3.087zm18.27 2.875c-.147.4-.402 1.045-.385 1.017 0 0-.92 2.365-1.162 2.98h2.42l-.676-3.078-.196-.919z" fill="#1A1F71"/><path fill-rule="evenodd" clip-rule="evenodd" d="M10.737 7.187h-4.7L6 7.408c3.657.883 6.076 3.014 7.08 5.575l-1.022-4.897c-.176-.675-.688-.876-1.32-.9z" fill="#F9A51A"/><rect x="58" width="48" height="24" rx="2" fill="#F5F5F5"/><path fill-rule="evenodd" clip-rule="evenodd" d="M87.807 21C92.884 21 97 16.97 97 12s-4.116-9-9.193-9c-5.078 0-9.194 4.03-9.194 9s4.116 9 9.194 9z" fill="#F79E1B"/><path fill-rule="evenodd" clip-rule="evenodd" d="M76.194 21c5.077 0 9.193-4.03 9.193-9s-4.116-9-9.194-9C71.117 3 67 7.03 67 12s4.116 9 9.194 9z" fill="#EB001B"/><path d="M82 5.023c2.067 1.65 3.387 4.163 3.387 6.978 0 2.814-1.32 5.325-3.387 6.976-2.066-1.65-3.387-4.162-3.387-6.976S79.933 6.674 82 5.023z" fill="#FF5F00"/><rect x="116" width="48" height="24" rx="2" fill="#F5F5F5"/><path d="M131.317 8.872c.34.015 1.296.136 1.909 1.013-.049.03-1.14.65-1.127 1.943.014 1.544 1.385 2.059 1.401 2.066-.013.037-.22.733-.723 1.452-.435.621-.886 1.24-1.597 1.254-.7.012-.925-.406-1.724-.406-.799 0-1.049.393-1.71.418-.686.025-1.209-.672-1.647-1.292-.897-1.267-1.582-3.58-.663-5.143a2.564 2.564 0 012.161-1.28c.674-.012 1.31.444 1.722.444.412 0 1.185-.549 1.998-.469zm.011-2.468c.067.598-.178 1.199-.543 1.63-.365.432-.963.767-1.548.723-.08-.586.215-1.197.553-1.58.377-.43 1.013-.751 1.538-.773zm6.09 9.596h1.071v-3.065h2.166c1.613 0 2.755-1.136 2.755-2.767v-.012c0-1.63-1.142-2.743-2.755-2.743h-3.237V16zm2.963-7.635c1.226 0 1.934.672 1.934 1.803v.012c0 1.13-.708 1.803-1.934 1.803h-1.892V8.365h1.892zm5.548 7.748c.862 0 1.535-.375 1.94-1.06h.095V16h1.035v-4.392c0-1.333-.875-2.136-2.44-2.136-1.368 0-2.344.678-2.511 1.684l-.006.036h1.036l.006-.018c.166-.5.672-.786 1.44-.786.958 0 1.44.429 1.44 1.22v.583l-1.839.114c-1.494.089-2.339.75-2.339 1.892v.012c0 1.166.923 1.904 2.143 1.904zm-1.083-1.928v-.012c0-.637.428-.982 1.404-1.041l1.714-.107v.583c0 .916-.768 1.606-1.821 1.606-.744 0-1.297-.38-1.297-1.029zm5.725 4.065c1.137 0 1.667-.417 2.196-1.857l2.506-6.808h-1.089l-1.756 5.278h-.095l-1.762-5.278h-1.106l2.374 6.421-.119.38c-.232.739-.589 1.006-1.178 1.006a2.47 2.47 0 01-.429-.03v.852c.143.024.322.036.458.036z" fill="#2A2D2E"/><rect x="174" width="48" height="24" rx="2" fill="#F5F5F5"/><g clip-path="url(#clip0_7040_32025)"><path d="M192.36 12.104c0-.34-.03-.68-.091-1.015h-4.984v1.921h2.854a2.25 2.25 0 01-.363.86 2.39 2.39 0 01-.692.655v1.251h1.703c.998-.868 1.573-2.153 1.573-3.672z" fill="#4285F4"/><path d="M187.284 16.98c1.424 0 2.627-.442 3.502-1.204l-1.704-1.249c-.474.306-1.084.478-1.798.478-1.378 0-2.549-.877-2.967-2.06h-1.755v1.286a5.11 5.11 0 001.948 2.007 5.517 5.517 0 002.774.743z" fill="#34A853"/><path d="M184.318 12.945a2.834 2.834 0 010-1.91V9.75h-1.755a4.77 4.77 0 00-.563 2.242c0 .779.193 1.546.563 2.242l1.755-1.288z" fill="#FBBC04"/><path d="M197.135 12.863v3.517h-1.182V7.693h3.133c.374-.008.746.055 1.095.184.348.13.666.322.935.568.267.235.48.52.626.836a2.39 2.39 0 010 2.005c-.146.316-.359.6-.626.836-.549.494-1.225.74-2.03.74h-1.951v.001zm0-4.1v3.033h1.982c.314.006.623-.076.888-.236.266-.159.475-.389.603-.66s.169-.572.117-.865a1.479 1.479 0 00-.441-.812 1.54 1.54 0 00-.532-.349 1.617 1.617 0 00-.637-.112l-1.98.002zm7.552 1.48c.874 0 1.563.22 2.068.66.504.441.756 1.046.757 1.814v3.663h-1.13v-.824h-.051c-.49.68-1.141 1.02-1.953 1.019-.693 0-1.273-.194-1.74-.582a1.874 1.874 0 01-.524-.654 1.776 1.776 0 01-.176-.802c0-.615.246-1.104.739-1.467.492-.363 1.149-.545 1.97-.546.701 0 1.28.123 1.733.364v-.256a1.194 1.194 0 00-.126-.545 1.285 1.285 0 00-.361-.442 1.73 1.73 0 00-1.141-.406c-.66 0-1.182.262-1.567.788l-1.039-.62c.571-.776 1.418-1.164 2.541-1.164zm-1.529 4.318a.85.85 0 00.103.408.913.913 0 00.288.319 1.5 1.5 0 00.919.291 1.944 1.944 0 001.328-.52c.392-.349.587-.757.587-1.226-.368-.277-.882-.416-1.541-.416-.48 0-.88.109-1.201.327-.323.223-.485.493-.485.817h.002zm10.843-4.123L210.056 19h-1.22l1.464-2.996-2.595-5.566h1.284l1.873 4.27h.026l1.824-4.27h1.289z" fill="#5F6368"/><path d="M187.284 8.976a2.962 2.962 0 012.026.748l1.509-1.424a5.248 5.248 0 00-3.535-1.3c-.98 0-1.94.258-2.774.743a5.116 5.116 0 00-1.948 2.006l1.755 1.287c.418-1.183 1.589-2.06 2.967-2.06z" fill="#EA4335"/></g><defs><clipPath id="clip0_7040_32025"><path fill="#fff" transform="translate(182 7)" d="M0 0h32v12H0z"/></clipPath></defs></svg>