<svg width="53" height="32" fill="none" xmlns="http://www.w3.org/2000/svg"><path d="M18.974 25.342h14.522a1.575 1.575 0 001.575-1.575l5.485-20.082a1.576 1.576 0 00-1.594-1.575H15.159a1.584 1.584 0 00-1.585 1.575L8.887 23.767a1.575 1.575 0 001.575 1.575h2.043" stroke="#F09EC6" stroke-width="2.813"/><path d="M37.706 25.342h-3.253l4.688-16.21h7.706a.797.797 0 01.61.282l3.355 5.906a.76.76 0 01.188.497l-3.122 9.525h-3.375m-28.685 4.547c1.92 0 3.478-1.578 3.478-3.525 0-1.947-1.557-3.525-3.478-3.525-1.92 0-3.478 1.578-3.478 3.525 0 1.947 1.557 3.525 3.478 3.525z" stroke="#F09EC6" stroke-width="2.813"/><path d="M41.166 29.889c1.92 0 3.478-1.578 3.478-3.525 0-1.947-1.557-3.525-3.478-3.525-1.921 0-3.478 1.578-3.478 3.525 0 1.947 1.557 3.525 3.478 3.525z" stroke="#F09EC6" stroke-width="2.813"/><path d="M20.446 6.723H5.09m12.331 4.913H6.574m11.942 5.531H1.66" stroke="#F09EC6" stroke-width="2.813" stroke-linecap="round"/></svg>