<svg width="120" height="325" fill="none" xmlns="http://www.w3.org/2000/svg"><path d="M100.14 251.521c.174 0 .366.017.54.017 7.294 0 13.613-6.145 13.613-13.735 0-5.553-3.569-10.323-8.13-12.499 4.544-2.176 8.13-6.945 8.13-12.499 0-7.59-6.319-13.735-13.613-13.735-.174 0-.366 0-.54.018 0 0-8.67-.784-18.122 8.86-4.387 4.387-8.564 9.279-15.127 17.356 6.563 8.078 10.723 12.969 15.127 17.356 9.453 9.627 18.122 8.861 18.122 8.861z" fill="#BD1823"/><path d="M32.301 98.886l3.343-9.26c.818-2.177 4.073-1.132 3.498 1.096l-2.576 9.505c-.87 2.942-5.24 1.566-4.265-1.34zM35.765.704a423.049 423.049 0 0121.812 38.107c2.977 6.18 6.337 12.377 8.112 19.149 1.341 7.154-2.994 14.31-1.67 21.098 5.57 7.938 12.498 15.546 18.922 22.962 9.836 10.932 20.333 21.116 29.246 32.866 2.768 3.865 5.884 7.381 7.363 12.134.905 4.178-1.897 8.773-4.23 11.245-4.16 4.787-9.801 7.764-14.692 11.368-3.708 3.133-4.544 8.129-1.985 12.342 2.281 4.056 4.84 8.199 7.52 11.838.627.713.54 1.845-.243 2.402-.575.418-1.323.4-1.88.017-2.246-1.566-3.987-3.29-5.728-5.17-6.214-6.389-10.828-14.658-5.083-23.048 4.3-6.232 12.256-8.582 16.886-14.362 1.567-1.828 2.594-3.482 2.559-5.17-6.058-10.967-16.26-21.36-25.068-30.952-6.754-7.137-13.178-14.536-19.392-22.126-3.325-4.421-7.851-9-10.358-14.083-2.21-7.05 1.793-14.153 1.845-20.977-.017-2.036-.905-3.83-1.601-5.831-3.534-8.756-7.973-17.46-12.203-26.147-4.265-8.704-8.635-17.39-12.795-26.182a1.519 1.519 0 01.713-2.037 1.542 1.542 0 011.95.557z" fill="#000"/><path d="M91.454 163.61c-5.24 1.236-10.514 3.36-14.866 6.65-.819.661-2.055.505-2.664-.366a1.802 1.802 0 01.035-2.106 19.87 19.87 0 013.342-3.603c2.403-2.298 15.441-9.662 16.399-3.656.226 1.462-.801 2.82-2.246 3.081zm-28.566-6.79c-1.323 6.667-1.62 14.936 4.804 19.079 1.567.975.383 3.36-1.323 2.681-9.139-3.238-10.079-15.127-6.197-22.77.749-1.584 3.186-.661 2.716 1.01zM3.055 90.965c6.059 1.88 12.134 4.422 18.227 5.936 4.717.523 9.766.053 14.57.192 2.803.017 3.186 4.091.453 4.648-6.075.94-12.482 2.298-18.557.522-5.867-1.81-11.159-4.195-16.52-7.033a2.329 2.329 0 01-.94-3.168c.522-1.01 1.706-1.445 2.767-1.097zm48.552-24.824c-13.7.61-28.201.435-41.501 3.865-1.863.54-2.96-2.159-1.253-3.064 9.853-5.188 21.15-6.372 32.083-6.72 3.638-.07 7.224.035 10.914.418 1.515.157 2.612 1.515 2.473 3.03-.157 1.41-1.34 2.471-2.716 2.471zm54.645 190.115c-5.57 9.766-8.042 15.423-.418 24.684 3.325 4.422 8.252 9.192 8.287 15.32.174 12.029-8.635 22.909-20.002 26.147-10.393 3.081-21.482 1.166-31.996.4-5.153-.47-10.236-.87-15.267-.662a2.093 2.093 0 01-2.194-2.019 2.103 2.103 0 011.95-2.193c5.344-.401 10.671-.14 15.859.156 18.696 1.289 43.503 3.621 44.199-21.76.261-7.572-9.557-15.423-11.472-23.396-1.01-4.474.244-9.488 2.594-13.23 1.201-1.915 6.458-8.548 8.547-5.432.401.662.296 1.41-.087 1.985z" fill="#000"/></svg>