<svg width="146" height="280" fill="none" xmlns="http://www.w3.org/2000/svg"><path d="M14.153 151.88c-.174 0-.366-.018-.54-.018C6.32 151.862 0 158.007 0 165.597c0 5.553 3.569 10.323 8.112 12.499C3.57 180.272 0 185.042 0 190.595c0 7.59 6.32 13.735 13.613 13.735.174 0 .366 0 .54-.017 0 0 8.67.783 18.122-8.861 4.387-4.387 8.564-9.278 15.127-17.356-6.563-8.077-10.723-12.969-15.127-17.356-9.453-9.626-18.122-8.86-18.122-8.86z" fill="#BD1823"/><path d="M13.893 206.367c7.468 4.37 18.227 11.507 16.172 21.621-2.472 10.515-8.773 20.524-7.311 31.248 1.567 7.816 11.002 8.391 17.582 9.87 10.967 1.898 22.23 2.472 33.371 3.569 5.815.644 11.403.992 17.147 2.698 1.097.331 1.706 1.497 1.376 2.594a2.071 2.071 0 01-2.525 1.393c-5.187-1.132-10.967-1.289-16.363-1.602-11.35-.557-22.665-.905-33.998-2.541-14.902-2.159-25.73-6.946-22.927-24.25 1.393-8.774 5.31-16.381 7.869-24.389.278-.957.365-1.741.156-2.75-1.897-5.884-7.502-10.097-12.603-13.996-2.106-1.393-.209-4.666 2.054-3.465zM94.04 67.033c-1.532 7.555 1.566 14.953 10.044 15.371 6.946.244 15.267-.557 20.35-5.64 2.159-2.89 6.546.26 4.457 3.238-.627.783-1.01 1.062-1.515 1.514-6.876 5.588-20.646 7.033-28.74 3.76-7.486-2.855-9.505-11.942-7.573-19.027.54-1.967 3.447-1.2 2.977.784z" fill="#000"/><path d="M97.328 76.868c6.163 1.775 12.882 1.375 19.253.853l6.737-.767c1.637-.208 2.211 2.211.662 2.768-6.685 2.403-14.014 3.57-21.099 2.472-1.932-.435-9.4-1.584-7.729-4.682.47-.766 1.393-.958 2.176-.644zm-69.145 38.68c4.335.819 23.797 8.339 17.879 14.588-1.584 1.463-4.196 1.097-5.31-.748-1.305-2.107-3.447-4.109-5.849-5.832a46.835 46.835 0 00-7.92-4.491c-2.072-.888-.958-4.074 1.2-3.517zm74.823-85.908c13.944-2.577 28.688 2.384 38.576 12.377 1.41 1.392 2.594 2.976 3.865 4.49a1.83 1.83 0 01-.296 2.577c-.766.61-1.828.505-2.49-.174-10.166-10.218-24.458-16.05-38.889-15.04-2.751.365-3.482-3.656-.766-4.23z" fill="#000"/><path d="M81.765 85.588a1.517 1.517 0 01-1.515-1.392c-.087-.836.54-1.584 1.376-1.671 5.24-.505 11.332-2.02 12.028-3.465a1.519 1.519 0 012.037-.713 1.524 1.524 0 01.714 2.037c-1.776 3.707-11.542 4.909-14.501 5.204h-.14z" fill="#000"/><path d="M83.767 89.54a1.525 1.525 0 01-.418-2.994c5.083-1.41 11.037-3.639 11.803-4.666.348-.765 1.236-1.079 2.002-.73.766.347 1.096 1.287.748 2.053-1.097 2.455-9.07 4.997-13.735 6.302a2.859 2.859 0 01-.4.035z" fill="#000"/><path d="M92.054 90.812c-.574 0-1.131-.33-1.392-.888-.366-.766-.018-1.671.748-2.037 1.758-.818 6.702-3.533 8.39-6.162a1.523 1.523 0 012.124-.453c.714.453.923 1.41.453 2.124-2.524 3.917-9.383 7.137-9.679 7.277a1.717 1.717 0 01-.644.139zm15.633-88.329c-7.537 6.388-13.996 14.5-17.634 23.71-2.141 5.727-3.395 11.715-5.414 17.634-2.524 8.217-7.381 16.155-13.805 21.969-12.708 11.02-27.626 19.044-42.127 27.4a2107.31 2107.31 0 01-8.147 4.474c-3.934 2.037-8.304 6.145-8.286 10.201.696 3.029 2.541 5.867 4.108 8.635 3.255 5.779 8.982 11.211 7.572 18.47-1.218 7.172-7.711 12.029-13.508 14.953a2.116 2.116 0 01-2.855-.922 2.118 2.118 0 01.73-2.751c8.67-5.971 14.45-12.116 6.703-21.534-3.238-5.152-7.137-10.131-8.425-16.276-.349-6.076 3.812-10.689 8.181-14.083 3.151-2.09 7.782-4.422 11.037-6.337 10.74-6.093 21.308-12.43 31.544-19.288 6.528-4.44 12.777-9.453 16.99-16.12 5.518-8.547 6.946-19.027 10.932-28.41 4.422-9.853 11.89-18.174 20.855-24.006 1.41-.835 3.029 1.114 1.549 2.28z" fill="#000"/></svg>