<svg width="152" height="146" fill="none" xmlns="http://www.w3.org/2000/svg"><path d="M77.565 38.611s-5.6-19.21-14.31-22.48c-8.71-3.27-20.94 16.62-21.25 22.16-.29 5.13 2.57 30.94 2.99 34.73.04.32.1.61.21.91l24.53 70.16c.62 1.76 3.03 1.97 3.83.28 7.92-16.65 35.02-73.96 35.36-80.11.4-7.2 5.12-41.96-.23-47.1-4.01-3.86-22.17-9.73-23.71-2.04-1.53 7.7-7.42 23.49-7.42 23.49z" fill="#BD1823"/><path d="M78.566 65.362s2.32-4.18 9.67-3.39c6.48.7 8.38 5.29 8.38 5.29s-3.39 3.79-9.03 3.19c-5.63-.6-7.22-2.3-9.02-5.09zm-8.33-.629s-2.98-4.42-8.51-4.42c-5.52 0-7.95 1.99-8.89 4.09 0 0 2.15 5.08 9.06 4.69 6.91-.39 8.34-4.36 8.34-4.36z" fill="#fff"/><path d="M88.804 71.512c-.43 0-.87-.02-1.32-.07-6.18-.65-7.94-2.71-9.76-5.54-.2-.31-.21-.7-.03-1.02.11-.2 2.72-4.76 10.66-3.9 6.99.75 9.11 5.69 9.19 5.9.15.35.08.76-.18 1.05-.14.15-3.28 3.58-8.56 3.58zm-9.02-6.12c1.45 2.17 2.92 3.53 7.92 4.06 3.92.41 6.62-1.47 7.68-2.39-.71-1.14-2.76-3.61-7.24-4.09-5.16-.56-7.54 1.47-8.36 2.42z" fill="#12100B"/><path d="M86.367 61.871l-.8 8.28 3.76.35.39-8.29-3.35-.34z" fill="#12100B"/><path d="M89.324 71.002h-.05l-3.76-.35a.499.499 0 01-.34-.18.542.542 0 01-.11-.37l.81-8.28c.01-.13.08-.26.18-.34.1-.08.23-.12.37-.11l3.34.34c.26.03.46.26.45.52l-.39 8.29a.51.51 0 01-.5.48zm-3.22-1.3l2.74.25.34-7.29-2.37-.24-.71 7.28zm-24.959.41c-6.88 0-9.13-5.1-9.22-5.33-.11-.25-.1-.54.01-.8.96-2.13 3.43-4.68 9.81-4.68 5.99 0 9.2 4.66 9.33 4.86.18.26.22.6.11.9-.07.19-1.75 4.6-9.22 5.02-.29.02-.56.03-.82.03zm-7.18-5.72c.63 1.08 2.81 3.99 7.88 3.7 4.78-.27 6.62-2.32 7.22-3.26-.88-1.05-3.38-3.52-7.33-3.52-3.94 0-6.61 1.06-7.77 3.08z" fill="#12100B"/><path d="M60.283 60.361l-.17 8.71 3.49-.16v-8.42l-3.32-.13z" fill="#12100B"/><path d="M60.113 69.572a.5.5 0 01-.35-.14c-.1-.1-.15-.23-.15-.37l.17-8.71c0-.13.06-.26.16-.35.1-.09.22-.15.36-.14l3.32.13c.27.01.48.23.48.5v8.42c0 .27-.21.49-.48.5l-3.49.16h-.02zm.66-8.69l-.15 7.67 2.48-.11v-7.46l-2.33-.1zm14.941 18.57c-7.27 0-13.08-2.44-15.28-3.5l-.11-.06a.998.998 0 01.02-1.87c.41-.15.7-.01.98.13 3.19 1.55 14.52 6.19 26.44.68.5-.23 1.1-.01 1.33.49.23.5.01 1.1-.49 1.33-4.5 2.07-8.91 2.8-12.89 2.8z" fill="#12100B"/><path d="M110.863 93.901s-1.52 11.5 3.39 13.55c4.91 2.04 9.35.79 14.62-3.42s8.1-8.89 8.87-10.02c-1.18-1.22-9.06-5.86-26.88-.11z" fill="#D73328"/><path d="M118.644 109.432c-1.23 0-2.47-.19-3.72-.61-2.02-.67-3.49-2.06-4.39-4.12-4.09-9.42 5.53-30.65 5.94-31.55a1.003 1.003 0 011.82.84c-.1.21-9.67 21.32-5.93 29.92.67 1.54 1.71 2.52 3.19 3.02 13.14 4.38 26.23-21.49 26.36-21.75.25-.49.85-.69 1.34-.45.49.25.7.85.45 1.34-.51 1.03-11.82 23.36-25.06 23.36z" fill="#12100B"/><path d="M137.347 89.152c-2.28 0-5.38-.63-9.51-2.63-8.73-4.22-10.87-8.86-11.38-10.65-.34-1.18-.3-2.19.1-2.83 1.19-1.89 7.39-3.1 17.01 2.48 2.79 1.62 11.77 7.16 10.16 10.53-.2.42-1.01 1.83-3.23 2.61-.8.28-1.84.49-3.15.49zm-19.1-15.05c-.22.66.61 5.85 10.45 10.62 5.9 2.86 9.31 2.69 11.13 2.05 1.52-.53 2-1.41 2.08-1.58.14-.75-2.54-3.98-9.36-7.94-9.22-5.36-13.84-3.64-14.3-3.15zm-19.663 64.179a1 1 0 01-.87-1.49l16.66-29.4a1 1 0 011.74.98l-16.66 29.4c-.18.32-.52.51-.87.51z" fill="#12100B"/><path d="M103.643 142.032c-.19 0-.38-.05-.55-.16l-9.47-6.21c-.46-.3-.59-.92-.29-1.39a1 1 0 011.38-.29l9.48 6.21c.46.3.59.92.29 1.39-.19.29-.51.45-.84.45z" fill="#12100B"/><path d="M117.375 88.432c0 .84.68 1.51 1.51 1.51s1.51-.68 1.51-1.51-.68-1.51-1.51-1.51-1.51.68-1.51 1.51z" fill="#2B2523"/><path d="M118.885 90.442a2.01 2.01 0 110-4.02 2.01 2.01 0 010 4.02zm0-3.02c-.56 0-1.01.45-1.01 1.01s.45 1.01 1.01 1.01 1.01-.45 1.01-1.01-.45-1.01-1.01-1.01zm8.92 6.17c0 .84.68 1.51 1.51 1.51s1.51-.68 1.51-1.51-.68-1.51-1.51-1.51-1.51.67-1.51 1.51z" fill="#2B2523"/><path d="M129.326 95.602a2.01 2.01 0 110-4.02 2.01 2.01 0 010 4.02zm0-3.02c-.56 0-1.01.45-1.01 1.01s.45 1.01 1.01 1.01 1.01-.45 1.01-1.01-.46-1.01-1.01-1.01z" fill="#2B2523"/><path d="M120.995 102.692c-.95 0-1.98-.18-3.08-.61-3.38-1.33-3.32-5.31-2.81-7.23.14-.53.69-.85 1.22-.71s.85.69.71 1.22c-.04.17-.95 3.86 1.61 4.86 3.68 1.44 5.77-.85 5.99-1.12.35-.42.99-.47 1.41-.12.42.36.47.99.12 1.41-1.03 1.21-2.85 2.3-5.17 2.3zm2.319-35.91h-.08a.998.998 0 01-.91-1.08l.76-9.21c.05-.55.52-.96 1.08-.91.55.04.96.53.92 1.08l-.76 9.21c-.06.51-.5.91-1.01.91zm10.071 2.209a.96.96 0 01-.51-.14c-.47-.28-.63-.89-.35-1.37l4.36-7.37c.28-.47.89-.63 1.37-.35.47.28.63.89.35 1.37l-4.36 7.37c-.19.31-.52.49-.86.49zm11.499 5.581c-.28 0-.56-.12-.76-.35a.998.998 0 01.1-1.41l5.32-4.6a.998.998 0 011.41.1c.36.42.32 1.05-.1 1.41l-5.32 4.6a.93.93 0 01-.65.25z" fill="#12100B"/><path d="M40.345 96.792s1.52 11.5-3.39 13.55c-4.91 2.04-9.35.79-14.62-3.42s-8.1-8.89-8.87-10.02c1.18-1.23 9.06-5.86 26.88-.11z" fill="#D73328"/><path d="M32.556 112.312c-13.24 0-24.55-22.32-25.07-23.36a.993.993 0 01.45-1.34c.5-.25 1.1-.05 1.34.45.13.26 13.23 26.12 26.36 21.75 1.48-.49 2.52-1.48 3.19-3.02 3.74-8.61-5.83-29.71-5.93-29.92-.23-.5-.01-1.1.49-1.33.5-.23 1.1-.01 1.33.49.41.9 10.04 22.13 5.94 31.55-.89 2.06-2.37 3.45-4.39 4.12-1.24.42-2.48.61-3.71.61z" fill="#12100B"/><path d="M13.865 92.042c-1.32 0-2.35-.21-3.16-.49-2.21-.78-3.03-2.19-3.23-2.61-1.6-3.37 7.38-8.91 10.16-10.53 9.61-5.58 15.82-4.37 17.01-2.48.4.64.44 1.65.1 2.83-.51 1.8-2.65 6.43-11.38 10.66-4.12 1.98-7.22 2.62-9.5 2.62zm16.13-15.71c-2.35 0-6.1.76-11.34 3.8-6.83 3.96-9.5 7.19-9.36 7.96.07.15.56 1.03 2.08 1.56 1.82.64 5.23.8 11.13-2.05 9.85-4.77 10.68-9.96 10.45-10.62-.19-.21-1.17-.65-2.96-.65zm22.628 64.83c-.35 0-.69-.18-.87-.51l-16.66-29.4a1 1 0 011.74-.98l16.66 29.4a1 1 0 01-.87 1.49z" fill="#12100B"/><path d="M47.564 144.922c-.33 0-.65-.16-.84-.45a1 1 0 01.29-1.38l9.47-6.21c.46-.3 1.08-.17 1.39.29a1 1 0 01-.29 1.38l-9.48 6.21c-.17.11-.36.16-.54.16z" fill="#12100B"/><path d="M33.676 91.732c0 .83-.67 1.5-1.5 1.5s-1.5-.67-1.5-1.5.67-1.5 1.5-1.5 1.5.68 1.5 1.5z" fill="#2B2523"/><path d="M32.176 93.732c-1.1 0-2-.9-2-2s.9-2 2-2 2 .9 2 2c0 1.11-.89 2-2 2zm0-3c-.55 0-1 .45-1 1s.45 1 1 1 1-.45 1-1-.45-1-1-1zm-8.5 6c0 .83-.67 1.5-1.5 1.5s-1.5-.67-1.5-1.5.67-1.5 1.5-1.5 1.5.68 1.5 1.5z" fill="#2B2523"/><path d="M22.176 98.732c-1.1 0-2-.9-2-2s.9-2 2-2 2 .9 2 2c0 1.11-.89 2-2 2zm0-3c-.55 0-1 .45-1 1s.45 1 1 1 1-.45 1-1-.45-1-1-1z" fill="#2B2523"/><path d="M30.215 105.572c-2.32 0-4.14-1.09-5.17-2.3a.999.999 0 111.52-1.3c1.02 1.2 3.2 2.21 5.99 1.12 2.58-1.01 1.62-4.82 1.61-4.86-.14-.53.18-1.08.71-1.22.54-.13 1.08.18 1.22.71.5 1.92.56 5.9-2.81 7.23-1.08.44-2.12.62-3.07.62zm-2.322-35.911c-.52 0-.95-.4-1-.92l-.76-9.21a.998.998 0 111.99-.17l.76 9.21a.998.998 0 01-.91 1.08c-.02.01-.05.01-.08.01zm-10.07 2.211c-.34 0-.67-.17-.86-.49l-4.36-7.37c-.28-.48-.12-1.09.35-1.37s1.09-.12 1.37.35l4.36 7.37c.28.48.12 1.09-.35 1.37-.16.1-.33.14-.51.14zm-11.508 5.58c-.23 0-.46-.08-.65-.24l-5.32-4.6a.998.998 0 01-.1-1.41c.36-.42.99-.46 1.41-.1l5.32 4.6c.42.36.46.99.1 1.41-.2.23-.48.34-.76.34zm85.419-15.4c-.43 0-.83-.28-.96-.71a.988.988 0 01.67-1.24c1.63-.49 2.96-1.86 3.4-3.5.14-.53.69-.85 1.22-.71s.85.69.71 1.22c-.61 2.3-2.48 4.22-4.76 4.9-.09.03-.19.04-.28.04zm4.961 3.49c-.47 0-.89-.33-.98-.81a.994.994 0 01.79-1.17c1.53-.3 2.84-1.69 3.05-3.24.07-.55.57-.94 1.12-.86.55.07.93.57.86 1.12-.31 2.4-2.27 4.48-4.65 4.94-.06.02-.12.02-.19.02zm-43.639-1.961c-.98 0-1.95-.38-2.66-1.07a3.78 3.78 0 01-.99-3.62c.14-.54.69-.86 1.22-.71.53.14.85.69.71 1.22-.15.58.03 1.26.46 1.69.43.42 1.11.6 1.69.44a.995.995 0 011.23.7.995.995 0 01-.7 1.23c-.3.08-.63.12-.96.12zm3.658-2.07c-1.26 0-2.52-.55-3.35-1.51-1.01-1.16-1.33-2.86-.82-4.31.18-.52.75-.79 1.28-.61.52.18.8.75.61 1.27-.27.78-.09 1.72.44 2.34.54.62 1.44.94 2.25.78a.993.993 0 011.17.79 1 1 0 01-.79 1.17c-.26.06-.53.08-.79.08zM37.436 31.442a.997.997 0 01-.58-1.81l1.91-1.36c.45-.32 1.08-.22 1.4.23l.09.15 34.99-9.46a68.737 68.737 0 01-3.78-12.63l-1.12 4.65c-.38 1.55-.86 3.13-2.26 4.04-.97.63-2.09.75-3.25.35-1.72-.59-3.35-2.32-4.04-4.31-.25-.72-.44-1.46-.63-2.18-.18-.69-.35-1.37-.57-2-.12.95-.35 1.9-.75 2.8-.86 1.9-2.92 3.84-5.44 3.59-1.54-.15-2.78-1.07-3.78-1.8l-5.28-3.9-2.46 13.29a.994.994 0 01-1.66.55l-6.74-6.27c.42 2.51 1.31 4.95 2.6 7.14.28.48.12 1.09-.35 1.37-.48.28-1.09.12-1.37-.35a22.937 22.937 0 01-3.15-10.66c-.02-.41.21-.78.58-.95.37-.17.8-.1 1.1.18l7.36 6.85 2.42-13.07c.06-.34.3-.62.62-.75.32-.12.68-.08.96.13l6.57 4.85c.84.62 1.8 1.32 2.79 1.42 1.46.14 2.83-1.11 3.42-2.42.71-1.57.72-3.42.74-5.21 0-.39.23-.74.59-.9a1 1 0 011.07.16c1.65 1.44 2.18 3.49 2.69 5.47.18.71.36 1.38.58 2.02.48 1.39 1.66 2.69 2.8 3.08.57.2 1.06.15 1.51-.14.78-.5 1.11-1.62 1.4-2.83l2.3-9.5c.11-.47.55-.79 1.03-.76.48.03.88.4.93.88.76 6.24 2.4 12.33 4.86 18.11a1.002 1.002 0 01-.66 1.36l-39.16 10.59c-.1-.01-.19 0-.28 0z" fill="#12100B"/></svg>