<svg width="160" height="167" fill="none" xmlns="http://www.w3.org/2000/svg"><path d="M60.287 47.567c.542.307.993.505 1.373.794.668.488.758 1.174.144 1.698-.668.578-1.047 1.3-1.553 1.969-.632.83-1.517 1.354-2.529 1.662-.541.162-1.065.27-.47 1.029.272.361 0 .795-.306 1.066a6.475 6.475 0 01-1.084.758c-.524.325-1.409.488-1.553.921-.271.759.794.705 1.192 1.12 1.427 1.481.92 4.046-1.102 5.22-1.138.668-2.384.957-3.684 1.083-.308.037-.705.037-.74.416-.037.433.414.38.685.433 3.233.723 5.274 2.908 6.647 5.708 1.463 2.962.108 6.79-2.782 8.488-5.67 3.342-11.974 1.481-15.73-2.763-1.518-1.716-1.518-5.707-.11-7.441.236-.307.525-.488.922-.416.433.073.722.344.813.777.054.217.072.433.054.668-.036 3.757.795 5.003 4.226 6.195 2.782.976 5.509 1.102 8.02-.722 1.517-1.102 1.806-2.854.686-4.335-.976-1.282-2.077-2.438-3.378-3.413-.578-.434-.939-.542-1.246.325-.38 1.12-1.806 1.553-3.377 1.065-1.265-.397-.795-1.372-.687-2.24.09-.595.65-1.318.127-1.733-.434-.343-1.048.27-1.572.506a149.612 149.612 0 01-5.563 2.275c-3.955 1.535-7.838 1.319-11.721-.217a142.467 142.467 0 01-5.184-2.149C17.067 64.69 13.22 65.14 9.391 65.7c-.976.145-1.933.325-2.908.199-.578-.072-1.192-.253-1.228-.993-.037-.741.56-1.03 1.12-1.12 2.22-.416 4.46-.795 6.718-1.084 4.497-.56 8.651.777 12.751 2.222 2.077.74 4.154 1.336 6.358 1.39 1.228.018 2.348-.487 3.45-.92 1.986-.796 3.919-1.68 5.887-2.53.127-.054.235-.126.362-.162.849-.343 3.793-2.89 4.244-3.63.199-.325.29-.614-.108-.759-1.572-.524-2.294-1.698-2.402-3.431-.921.505-1.427 1.137-1.951 1.733-1.228 1.355-2.727 2.294-4.335 3.07-.307.145-.65.29-.993.344-.632.072-1.319.09-1.59-.65-.252-.705.344-1.084.813-1.355 1.572-.885 2.89-2.077 4.209-3.287 1.12-1.03 1.986-2.276 2.69-3.63 1.536-2.998 3.92-5.112 6.9-6.61 1.264-.633 2.456-1.446 3.666-2.204.344-.217 1.03-.416.795-.885-.27-.542-.92-.127-1.3.036-1.806.777-3.558 1.625-5.346 2.438-1.95.867-3.92 1.734-5.726 2.89-.253.163-.542.343-.83.397-.597.127-1.283.38-1.734-.234-.434-.596.054-1.084.343-1.572.632-1.083 1.715-1.734 2.456-2.835-.758.216-1.553.343-2.258.65-4.027 1.698-7.856 3.775-11.595 6.032-3.576 2.168-7.333 3.432-11.686 2.565-3.503-.704-7.043-1.481-10.692-1.319-1.3.055-2.582.09-3.847.416-.632.163-1.336.325-1.571-.488-.235-.849.343-1.354 1.102-1.535 1.968-.488 3.991-.27 5.978-.397 3.612-.217 7.188.433 10.783.451 2.51.018 4.677-.885 6.664-2.095 7.188-4.389 14.72-7.929 22.992-9.771.813-.18 1.68-.072 2.51-.108.38-.018.867.27 1.084-.199.18-.38-.27-.614-.451-.903-1.373-2.185-2.692-4.389-3.468-6.9-1.337-4.352-.38-8.47 1.192-12.516.795-2.023 1.77-3.991 2.673-5.978.632-1.39 1.535-2.619 2.6-3.703.506-.505 1.03-1.011 1.753-1.174.885-.198 1.499-.397 1.39-1.625-.108-1.21 1.879-2.384 3.685-2.474 2.077-.109 4.082.162 6.032.92 3.18 1.229 6.593 1.897 9.446 3.956.813.578 1.517 1.228 1.933 2.15.126.27.27.613.506.776 2.384 1.625 2.673 4.136 2.673 6.646 0 4.48-.958 8.796-2.529 13.023-.885 2.366-2.005 4.533-3.63 6.466-2.475 2.925-5.798 4.352-9.338 5.436a15.05 15.05 0 01-1.553.397c-1.048.235-2.005.362-.849 1.788.668.85.235 1.879-.47 2.673-.632.759-1.48 1.319-2.474 1.879zM50.119 24.069c.036 2.529.487 4.75 1.589 6.863 1.102 2.096 2.221 4.154 3.63 6.05.434.597.018 1.482.65 1.789.885.433 1.084 1.625 1.716 1.86.831.307 1.21-1.03 1.969-1.499 1.806-1.12 3.775-1.77 5.69-2.583 3.124-1.354 5.923-3.124 7.513-6.285 2.402-4.75 3.648-9.807 3.865-15.117.036-.759-.307-.686-.813-.488-.813.325-1.5.903-2.474.903-2.728-.036-5.238-.794-7.658-2.023-2.439-1.228-4.48-3.07-6.882-4.334-1.842-.976-2.817-.705-3.829 1.101-.83 1.482-1.68 2.945-2.348 4.498-1.3 3.016-2.637 6.05-2.618 9.265zM62.202 6.026a1.258 1.258 0 00-.09.235c.884.56 1.77 1.156 2.69 1.68 2.366 1.336 4.768 2.582 7.514 2.98.433.054.993.126 1.138-.398.126-.47-.38-.65-.723-.83-2.131-1.138-4.425-1.825-6.719-2.565-1.282-.398-2.546-.74-3.81-1.102zm-12.174 55.61c.669 0 1.102.018 1.553 0 .56-.036 1.102-.253 1.229-.83.144-.669-.47-.85-.903-1.12-.74-.47-1.445-.398-2.113.072-.56.38-1.626.596-1.482 1.337.181.903 1.247.433 1.716.541zm58.52 23.788c3.052 0 6.123-.019 9.175 0 2.095 0 4.172.054 6.267.072 6.051.018 10.62 3.323 15.208 6.719 5.237 3.883 10.927 6.845 17.537 7.675.849.109 1.662.308 2.438.651.416.18.831.415.777.957-.054.524-.47.704-.903.849-1.066.361-2.113.126-3.179-.018-2.51-.343-5.039-.253-7.549-.885-3.92-.994-7.026-3.341-10.223-5.617-3.034-2.168-5.671-4.859-9.157-6.394-2.547-1.12-5.22-1.499-7.947-1.517-4.262-.018-8.543.144-12.805-.018-.488-.018-.976-.036-1.662.56 4.208-.921 7.622 1.156 11.27 1.842 1.481.271 2.998.343 4.497.506.976.108 1.951.18 2.818.722.433.29.74.65.65 1.21-.108.596-.56.777-1.084.795-3.124.09-6.195-.18-9.229-1.156-2.221-.722-4.389-1.662-6.809-1.662 1.698 1.716 3.721 2.764 6.069 3.215 5.508 1.066 9.699 4.028 12.642 8.796.38.596.651 1.319-.036 1.788-.794.542-1.589.199-2.077-.56a19.007 19.007 0 00-3.738-4.334c-2.005-1.734-4.389-2.457-6.882-2.98-1.21-.253-2.474-.416-3.594-.976a12.205 12.205 0 01-3.088-2.167c-.145 1.264-.47 2.203-1.445 2.908.74.036 1.481.144 2.203.09 1.445-.108 2.728.397 3.938 1.066 1.715.957 2.167 2.528 1.282 4.298-.163.325-.452.687-.271.994.686 1.101.56 2.221.415 3.449-.108.939.994.994 1.716 1.048 2.998.235 5.888.903 8.688 1.987 1.788.686 3.467 1.625 5.219 2.402 1.427.632 2.944.867 4.534 1.029 4.136.398 8.254-.072 12.39.181 4.009.253 7.911 1.12 11.848 1.824.217.036.433.126.632.199.524.198 1.011.487.903 1.156-.108.632-.596.885-1.174.903-2.131.054-4.28.036-6.412-.091a487.113 487.113 0 00-10.24-.487c-4.787-.163-9.645.036-14.142-2.095-.596-.289-1.246-.524-1.752-.94-1.879-1.535-4.172-2.149-6.34-3.052-.903-.379-1.914-.361-2.853-.668-.867-.289-1.03.451-.723 1.029.47.903 1.066 1.734 1.644 2.583.289.433.74.217 1.102.144 3.359-.704 6.447 2.601 6.7 5.437.217 2.42-.542 4.569-2.185 6.394-2.962 3.269-6.647 5.093-11.054 5.057-5.49-.036-8.217-4.949-5.526-9.753.921-1.644 2.185-3.035 3.594-4.281.162-.144.361-.271.542-.379 1.571-.795 1.571-.795.867-2.511-.109-.252-.235-.487-.289-.74-.289-1.499-1.21-2.222-2.673-2.745-2.096-.759-4.064-1.951-5.021-4.118-.578-1.283-.885-2.655-2.186-3.504-.415-.271-.506-.958-.18-1.481.469-.777 1.192-.506 2.185-.199-1.192-1.282-2.167-2.258-2.511-3.684-.126-.506-.668-.488-1.101-.615-3.342-.92-4.064-3.467-1.698-5.996.47-.506 1.409-1.03 1.192-1.625-.235-.669-1.282-.217-1.95-.362-2.927-.596-5.473-1.77-7.713-3.883-2.582-2.42-4.046-5.4-5.075-8.633-.74-2.33-1.03-4.768-1.337-7.188a118.069 118.069 0 01-.885-11.577 10.86 10.86 0 01.127-1.86c.09-.633.361-1.157 1.138-.94.343.09.56-.018.83-.217 3.306-2.474 6.954-4.316 10.946-5.382 2.962-.795 5.942-1.084 8.958-.235 1.228.343 2.023 1.066 2.33 2.312.271 1.084.777 2.059 1.336 3.034 3.035 5.383 5.419 11.036 6.557 17.14.903 4.895-.741 8.923-4.498 12.138-.74.632-1.426 1.3-2.131 1.968.072.163.109.271.163.398zm3.142-11.289c-.054-.47-.108-.867-.162-1.264-.723-5.69-2.998-10.855-5.328-16.02-.506-1.12-.957-1.21-1.969-.524-2.872 1.95-6.159 2.908-9.554 2.998a29.087 29.087 0 01-8.074-.903c-.92-.253-1.083.163-.975.975.343 2.692.56 5.4.957 8.074.615 4.027 1.012 8.11 3.215 11.74 2.168 3.558 5.166 5.635 9.356 6.014 1.355.126 2.763.054 3.991.903.524.361.904.126 1.156-.415 1.391-2.962 3.703-5.202 5.816-7.604.993-1.138 1.481-2.529 1.571-3.974zm5.003 42.354c0 .253-.018.379 0 .505.163.849 1.192 1.825 0 2.475-1.192.668-1.734-.596-2.257-1.319-.488-.668-.885-.596-1.409-.198-1.662 1.21-2.908 2.781-3.45 4.75-.632 2.257.416 3.612 2.728 3.883 2.817.343 7.946-2.565 9.102-5.147.867-1.933.055-4.028-1.86-4.787-.235.434 0 1.192-.704 1.301-1.066.162-1.463-.813-2.15-1.463zM86.929 55.623c3.178.343 6.086.686 9.012.397a13.977 13.977 0 006.123-2.077c.722-.452 1.68-1.048 1.499-1.842-.199-.867-1.355-.614-2.113-.596-4.913.144-9.519 1.553-13.925 3.63-.145.072-.253.217-.597.488zm15.496 38.398c.578-.09 1.21.18 1.427-.362.18-.47-.416-.722-.668-1.047-.199-.235-.398-.488-.633-.668-.397-.29-.722-.958-1.318-.578-.596.36-1.264.849-1.282 1.571-.018.777.867.56 1.336.813.343.18.813.198 1.138.27zM86.89 10.614c-.885-.018-1.788.037-2.655-.234-.596-.199-1.047-.524-1.047-1.21 0-.633.288-1.138.903-1.355 2.022-.704 4.045-.47 6.014.235.47.162.777.614.777 1.156 0 .523-.434.722-.85.939-.993.488-2.076.415-3.142.47zm-12.77 52.54c-1.246 0-1.698-.686-1.282-1.535.307-.632.813-1.066 1.373-1.409 1.336-.849 2.564-1.914 4.19-2.24.523-.108 1.101-.198 1.427.38.306.524-.019.993-.38 1.3-1.661 1.517-3.45 2.872-5.328 3.504zm5.366-8.489c-1.625-.18-3.052.163-4.46-.289-.922-.307-1.735-.65-1.518-1.806.217-1.084 1.066-1.373 2.04-1.192 1.482.253 3 .452 4.336 1.21.505.29 1.372.398 1.138 1.228-.217.831-1.066.795-1.536.85zm4.389-5.274c-.018.759-.127 1.174-.614 1.373-.434.18-.813.018-1.084-.289-1.102-1.282-2.24-2.547-2.908-4.136-.433-1.048.145-1.824.957-2.221.85-.416 1.572.144 1.915.939.65 1.517 1.228 3.052 1.734 4.334zm-2.691-44.25C81.166 3.516 83.35.445 84.706.048c.722-.217 1.372.325 1.192 1.102-.452 1.896-1.5 3.504-2.728 4.985-.288.343-.776.505-1.228.307-.596-.271-.704-.867-.758-1.3z" fill="#000"/><path d="M62.471 35.214c-6.05.018-10.945-5.274-10.475-11.126.108-1.48 1.355-2.835 2.926-3.269 2.077-.578 4.118-.325 5.996.56 1.86.867 3.613.686 5.437.108 1.101-.343 2.167-.83 3.323-.975 2.583-.307 3.973 1.246 3.341 3.83-.56 2.239-1.896 4.099-3.07 6.032-1.048 1.697-2.474 3.016-4.226 3.991-1.084.596-2.204.957-3.252.849zm46.02 37.296c-.09 2.582-.632 4.75-2.095 6.52-2.059 2.474-4.93 2.962-7.892 2.582-4.227-.542-6.539-3.468-8.164-7.08-.38-.849-.632-1.77-.83-2.673-.489-2.131.017-3.16 1.986-4.082 1.48-.686 3.052-.975 4.678-.614 3.395.74 6.791 1.463 10.258 1.752.687.054 1.138.452 1.427 1.048.452.903.723 1.824.632 2.546z" fill="#BD1823"/><path d="M65.634 155.283c-.38.759-.108 1.554-.307 2.276-.126.488-.27.975-.83 1.102-.525.126-.813-.235-1.084-.614-.976-1.355-3.035-.668-4.172.307-.76.65-1.897 1.354-1.481 2.619.415 1.228 1.661 1.372 2.763 1.499 4.208.469 8.272.144 11.884-2.33 1.5-1.03 1.5-1.933.036-2.998-.614-.452-1.282-.831-1.806-1.355-.777-.795-.47-1.842.578-2.041 1.933-.343 5.147.163 6.25 2.746.938 2.239.162 4.93-1.97 6.628-2.654 2.095-5.743 3.034-9.012 3.341-2.565.235-5.166.289-7.694-.415-2.095-.578-3.865-1.608-4.48-3.775-.595-2.131.037-4.027 1.735-5.545 1.68-1.499 3.486-2.637 5.852-2.384.848.091.957-.361.939-1.047-.054-1.951-.452-3.901.325-5.816.198-.488-.235-.596-.506-.795-1.553-1.246-1.698-2.185-.578-3.883.668-1.029 0-2.727-.94-3.486-1.679-1.354-2.817-.415-3.99.614-2.475 2.186-5.365 3.468-8.598 3.992a8.096 8.096 0 01-.92.126c-.651.018-1.518.253-1.717-.596-.198-.885.596-1.354 1.3-1.607 1.265-.433 2.62-.596 3.83-1.138 3.54-1.625 6.538-4.118 9.572-6.502.975-.777 2.168-1.409 2.908-3.016-1.788.758-3.305 1.336-4.75 2.059-2.131 1.047-4.226 2.131-6.719 1.752-.849-.127-1.661-.38-2.33-.921-.47-.38-.794-.921-.487-1.536.307-.632.903-.469 1.408-.27 1.77.686 3.432.162 5.04-.542 1.95-.867 3.883-1.788 5.815-2.709.47-.217 1.102-.38.74-1.12-.288-.596-.397-1.373-1.444-1.21-4.75.74-9.266 2.167-13.51 4.407-2.854 1.499-5.364 3.467-8.037 5.237-4.227 2.8-8.922 3.883-13.998 3.197-.704-.09-1.21-.415-1.246-1.156-.054-.849.614-1.047 1.246-1.102 1.59-.126 3.18-.234 4.768-.433 3.884-.506 7.17-2.258 10.277-4.497 2.782-2.005 5.617-3.811 8.832-5.166 2.89-1.228 5.78-2.257 8.814-2.962 1.012-.235 1.066-.578.235-1.463-1.915-2.059-3.757-4.154-5.04-6.682-.866-1.698-1.408-3.522-1.534-5.365-.362-4.84.307-9.59 1.661-14.25.506-1.752.903-3.54 1.897-5.111a6.57 6.57 0 011.3-1.517c.307-.271.83-.596 1.084-.343 1.083 1.12 2.51.74 3.775.92 3.287.488 6.574.181 9.807-.56.415-.09.885-.18 1.282-.595-.74-.506-1.59-.488-2.366-.506-2.8-.126-5.599.108-8.398.343-.795.054-1.662.217-1.86-.758-.217-1.048.776-1.228 1.48-1.355 2.926-.524 5.816-1.355 8.832-1.246 1.68.054 3.378-.271 5.003.415 1.228.524 2.276 1.21 2.854 2.457.108.234.253.523.47.632 1.86.939 2.203 2.763 2.456 4.497.38 2.6.56 5.22.632 7.839.09 2.925.27 5.869.397 8.795.235 5.87-2.348 10.223-7.134 13.474a86.229 86.229 0 01-4.75 2.962c-.524.307-.74.596-.235 1.12 1.192 1.264 1.138 2.727.669 4.244-.2.632-.38 1.283-.56 1.915-.217.74-.163 1.318.812 1.426.958.109 1.102.831.94 1.59-.181.921-.253 1.842-.344 2.781-.126 1.373-1.047 2.258-2.257 2.746-1.192.469-2.457.794-3.685 1.174-.325.108-.74 0-.92.578 1.606.577 3.106.379 4.514-.542.29-.199.542-.47.831-.651.361-.216.759-.252 1.138 0 .397.253.415.669.325 1.066-.361 1.644-1.427 2.619-3.016 3.071-1.716.487-1.608.469-1.264 2.221.36 1.915 1.083 3.757 1.228 5.725.054.741.217 1.536-.686 1.788-.813.217-.94-.614-1.229-1.137-.162-.253-.198-.56-.65-.633zm11.668-64.532c-1.012 1.102-1.897 2.023-3.107 2.42-5.183 1.698-10.385 1.933-15.569 0-.92-.343-1.228-.18-1.499.722-1.246 4.19-2.275 8.399-2.546 12.806-.235 3.937.56 7.459 2.926 10.674 2.33 3.197 5.707 5.545 7.495 9.193.289.578.722.614 1.102 0 .632-1.065 1.571-1.806 2.6-2.456 1.843-1.174 3.775-2.204 5.527-3.504 2.818-2.095 4.66-4.877 4.805-8.525.072-1.914-.127-3.829-.217-5.743-.271-5.13-.74-10.205-1.517-15.587z" fill="#000"/><path d="M45.37 152.828c-4.029.433-8.183.397-12.21 1.571-2.168.632-4.443.867-6.683 1.246-.813.145-1.59-.126-1.878-.921-.29-.777.216-1.445.885-1.77 4.804-2.366 9.626-4.515 15.261-4.082 3.306.253 6.629.687 9.97.343 2.06-.216 3.72-1.083 5.4-2.113 1.012-.614 2.132-.939 3.27-1.138.74-.126 1.535.091 1.77.849.288.903-.47 1.265-1.174 1.463-1.174.343-2.186.994-3.18 1.662-2.076 1.391-4.334 2.239-6.844 2.402-1.517.126-2.962.777-4.588.488zm37.512-70.601c.614.018 1.12.018 1.354.578.235.56.054 1.101-.415 1.426-1.282.903-2.673 1.59-4.245 1.752-.65.072-1.264-.09-1.517-.794-.27-.74.163-1.174.723-1.536 1.264-.885 2.709-1.246 4.1-1.426zm-5.722-3.559c.035.921.09 1.86-.218 2.764-.252.722-.722 1.3-1.517 1.246-.794-.054-.867-.813-.939-1.409-.235-1.734.361-3.305.94-4.895.144-.379.415-.704.902-.614.488.09.795.434.831.921.036.65 0 1.319 0 1.987z" fill="#000"/><path d="M77.155 109.897c.307 3.648-.83 6.809-4.208 8.976-6.809 4.389-12.697.307-15.081-4.696-.957-2.004-1.373-4.027-.777-6.213.199-.74.596-1.246 1.265-1.625 1.499-.849 3.07-1.391 4.804-1.409 3.124 0 6.05-.849 8.922-1.969 2.998-1.174 4.443-.216 4.859 2.98a27.61 27.61 0 01.216 3.956z" fill="#BD1823"/></svg>