<svg width="210" height="38" fill="none" xmlns="http://www.w3.org/2000/svg"><path d="M9.852 2.431v15.493c.661-.04 1.295-.045 1.92-.121 1.554-.19 2.675-.977 3.223-2.476.15-.41.272-.838.342-1.268.328-2 .29-4.017.184-6.03a17.138 17.138 0 00-.354-2.642c-.218-1.03-.72-1.916-1.71-2.417-1.135-.575-2.366-.541-3.605-.539zm-.015 33.146c.887-.057 1.742-.057 2.58-.176 1.855-.266 3.067-1.303 3.575-3.135.338-1.218.431-2.462.462-3.715.05-1.99.055-3.98-.342-5.942-.288-1.422-.88-2.648-2.32-3.26-.845-.36-1.74-.481-2.647-.523-.431-.02-.864-.004-1.308-.004v16.755zM2.35 2.425H0V1.53h.414c3.7 0 7.401-.004 11.102 0 2.316.004 4.597.249 6.774 1.098 2.151.84 3.915 2.146 4.77 4.372 1.348 3.503.432 7.549-3.454 9.661-1.556.846-3.23 1.295-4.97 1.539-.063.009-.127.015-.19.029-.021.005-.037.032-.103.093.498.068.957.12 1.412.195 2.207.365 4.217 1.17 5.983 2.575 4.36 3.469 4.049 10.155-.619 13.192-1.934 1.26-4.076 1.861-6.348 2.058-.797.069-1.601.081-2.403.082-3.96.01-7.919.004-11.878.004H.005v-.883H2.35V2.425zm62.708 33.102h2.427v.881H55.206v-.857h2.34V2.423h-2.343v-.868h12.282v.858h-2.428v15.861c.1-.117.168-.182.22-.257 2.771-4.13 5.551-8.256 8.3-12.4.439-.662.776-1.398 1.093-2.128.232-.536.04-.853-.536-.949-.557-.093-1.128-.108-1.722-.16v-.82h7.396v.846c-.269.012-.535.042-.8.035-1.327-.035-2.355.514-3.104 1.588-1.368 1.96-2.724 3.927-4.083 5.894-.551.797-1.089 1.603-1.647 2.395-.134.19-.159.335-.051.554 3.654 7.451 7.302 14.905 10.944 22.363.115.237.252.314.505.304.462-.019.925-.005 1.412-.005v.866h-12.47v-.858h2.66l-8.043-16.781-.073.02v16.746zm78.944-16.548h-.011c0 3.85-.009 7.7.009 11.55.003.759.05 1.528.185 2.272.401 2.205 1.714 3.344 3.85 3.42 1.999.072 3.421-.92 3.952-2.844a8.359 8.359 0 00.32-2.175c.023-8.1.018-16.202.009-24.303a9.48 9.48 0 00-.16-1.655c-.405-2.275-1.728-3.441-3.942-3.51-1.974-.061-3.359.917-3.878 2.823a8.619 8.619 0 00-.319 2.174c-.031 4.082-.015 8.165-.015 12.248zm-8.369-.124c.036-3.59.66-7.165 2.273-10.522 1.096-2.282 2.557-4.286 4.677-5.73 3.953-2.694 8.903-2.282 12.406.997 2.272 2.128 3.7 4.764 4.563 7.71 1.671 5.703 1.546 11.37-.549 16.955-.925 2.464-2.297 4.656-4.329 6.377-4.056 3.435-9.503 3.3-13.393-.32-2.148-1.996-3.489-4.49-4.398-7.239-.872-2.635-1.232-5.352-1.25-8.228zM99.497 25.8c-.103.006-.18.014-.255.014-.18.003-.36.001-.578.001-.03-.527-.053-1.039-.09-1.548-.075-1.023-.248-2.026-.654-2.975-.663-1.547-1.892-2.296-3.525-2.46-.194-.019-.388-.02-.582-.028-.077-.003-.154-.001-.26-.001v16.73c.477 0 .961.002 1.446 0 1.403-.004 2.792-.11 4.125-.592 2.307-.835 3.704-2.55 4.566-4.768.595-1.526.9-3.12 1.097-4.74.019-.153.043-.304.066-.475h.786l-.398 11.445H83.704v-.854h2.344V2.427H83.7v-.87h21.275v9.114h-.801c-.223-.974-.379-1.945-.671-2.873-1.042-3.321-3.486-5.179-6.97-5.33-.982-.042-1.965-.006-2.979-.006v15.39c2.668.06 4.074-.978 4.618-3.062.21-.806.28-1.65.403-2.48.043-.29.049-.587.072-.899h.851V25.8zM124.59 2.46v33.073h3.13v.866h-13.753v-.86h3.119V2.45a7.035 7.035 0 00-2.36.584c-2.18.949-3.435 2.7-4.194 4.87-.516 1.474-.74 3.004-.852 4.555-.007.103-.011.206-.021.309-.002.023-.023.044-.048.087h-.822V1.559h24.089v11.292h-.851c-.048-.51-.086-1.02-.147-1.527-.257-2.124-.75-4.17-2.03-5.944-1.245-1.723-2.959-2.649-5.049-2.92-.062-.008-.125 0-.211 0zm63.808-.07c-.434.05-.848.073-1.25.15-.925.174-1.331.667-1.359 1.604-.007.181-.004.362-.004.542l-.001 31.909v.53c-.669 0-1.3.013-1.929-.014-.107-.004-.243-.161-.305-.28-1.197-2.302-2.384-4.61-3.573-6.916l-11.82-22.923a.952.952 0 00-.289-.37c-.006.135-.018.27-.018.404v26.325c0 1.365.624 2.036 1.999 2.147.257.02.514.034.798.053v.845h-6.59v-.823c.409-.052.811-.072 1.198-.159.84-.188 1.285-.713 1.366-1.567.025-.27.04-.54.04-.812.002-9.512.002-19.023.001-28.535 0-1.473-.468-1.964-1.951-2.047-.217-.013-.433-.024-.664-.036v-.869c.122-.007.235-.02.348-.02 2.924 0 5.848.005 8.772-.008.282-.001.401.107.521.338a23120.23 23120.23 0 0010.606 20.457c.064.123.134.243.275.358.009-.104.026-.207.026-.31.001-5.97.003-11.942-.001-17.912-.001-1.125-.484-1.691-1.627-1.904-.43-.08-.87-.103-1.334-.155v-.843h6.765v.842zM46.183 2.274v-.852h6.315v.85c-.274.017-.555.032-.837.051-1.183.084-1.615.54-1.616 1.715-.001 3.93.003 19.802-.002 23.743-.002 1.545-.144 3.069-.701 4.53-.793 2.081-2.258 3.473-4.37 4.137-2.78.874-5.609.978-8.412.17-3.512-1.012-5.413-3.624-5.832-7.156-.087-.728-.1-1.469-.1-2.204-.007-8.09-.004-16.18-.004-24.271v-.554h-2.468V1.55h12.476v.853h-2.52c-.016.142-.036.24-.036.338.002 9.087.001 18.173.012 27.258.002 1.253.219 2.472.86 3.576.652 1.126 1.658 1.754 2.925 1.957 1.66.266 3.23.057 4.59-1.018 1.103-.87 1.745-2.053 2.02-3.396.211-1.03.35-2.096.353-3.146.029-7.742.018-15.614.01-23.356 0-.41-.033-.831-.137-1.225-.204-.778-.853-.976-1.552-1.058-.318-.038-.64-.04-.974-.06z" fill="#000"/><path d="M201.521 10.05s.011-4.646-1.715-5.943c-1.727-1.297-5.752 2.331-6.184 3.545-.4 1.124-1.453 7.059-1.608 7.93a.985.985 0 00-.013.218l.872 17.232c.022.434.545.638.835.314 2.855-3.19 12.641-14.182 13.12-15.529.562-1.578 3.888-9.011 3.032-10.507-.642-1.122-4.3-3.618-5.147-2.005-.847 1.613-3.192 4.745-3.192 4.745z" fill="#BE1E2D"/></svg>