<svg width="103" height="154" fill="none" xmlns="http://www.w3.org/2000/svg"><path d="M71.61 68.036s2.688 20.418-6.023 24.042c-8.709 3.624-16.602 1.402-25.957-6.075S25.263 70.232 23.894 68.226c2.088-2.163 16.082-10.384 47.715-.19z" fill="#F09EC6"/><path d="M57.785 95.597c-23.497 0-43.57-39.623-44.488-41.464a1.774 1.774 0 013.175-1.587c.233.467 23.488 46.363 46.788 38.605 2.622-.873 4.471-2.625 5.657-5.355 6.638-15.281-10.35-52.725-10.522-53.103a1.775 1.775 0 01.874-2.353 1.78 1.78 0 012.353.876c.731 1.594 17.812 39.276 10.55 55.993-1.589 3.656-4.208 6.116-7.788 7.309a20.75 20.75 0 01-6.6 1.079z" fill="#100F0D"/><path d="M53.236 31.739c-4.17 0-10.831 1.349-20.13 6.743-12.115 7.028-16.859 12.757-16.605 14.13.131.267.987 1.824 3.686 2.773 3.236 1.136 9.286 1.429 19.758-3.644 17.478-8.459 18.948-17.672 18.554-18.848-.352-.371-2.084-1.154-5.263-1.154zM24.61 59.607c-2.337 0-4.18-.376-5.6-.873-3.925-1.379-5.375-3.892-5.727-4.63-2.847-5.983 13.09-15.821 18.041-18.695 17.064-9.896 28.084-7.747 30.189-4.401.717 1.14.78 2.921.179 5.019-.914 3.19-4.712 11.414-20.201 18.91-7.33 3.547-12.843 4.67-16.88 4.67zm68.788 87.191c-.62 0-1.22-.325-1.546-.9L62.278 93.709a1.774 1.774 0 113.088-1.75l29.574 52.189a1.774 1.774 0 01-1.542 2.65z" fill="#100F0D"/><path d="M84.41 153.466a1.776 1.776 0 01-.974-3.261l16.815-11.016a1.78 1.78 0 012.459.513c.536.82.307 1.92-.513 2.458L85.38 153.177c-.3.195-.637.289-.97.289z" fill="#100F0D"/><path d="M59.77 59.071a2.663 2.663 0 01-5.325 0 2.663 2.663 0 015.325 0z" fill="#211D1D"/><path d="M57.108 57.296c-.978 0-1.775.795-1.775 1.774 0 .98.797 1.775 1.775 1.775.978 0 1.775-.795 1.775-1.775 0-.98-.797-1.774-1.775-1.774zm0 5.324a3.553 3.553 0 01-3.55-3.55 3.553 3.553 0 013.55-3.55 3.553 3.553 0 013.55 3.55 3.553 3.553 0 01-3.55 3.55zm-15.084 5.325a2.663 2.663 0 01-5.325 0 2.663 2.663 0 015.325 0z" fill="#211D1D"/><path d="M39.362 66.17c-.978 0-1.775.795-1.775 1.775a1.776 1.776 0 003.55 0c0-.98-.797-1.775-1.775-1.775zm0 5.324a3.553 3.553 0 01-3.55-3.55 3.553 3.553 0 013.55-3.55 3.553 3.553 0 013.55 3.55 3.553 3.553 0 01-3.55 3.55z" fill="#211D1D"/><path d="M53.624 83.637c-4.119 0-7.355-1.931-9.174-4.075a1.773 1.773 0 01.204-2.503 1.779 1.779 0 012.501.204c1.809 2.132 5.678 3.93 10.64 1.981 4.583-1.8 2.872-8.555 2.854-8.624a1.777 1.777 0 011.267-2.167 1.78 1.78 0 012.168 1.269c.892 3.406.997 10.473-4.991 12.827-1.947.763-3.783 1.088-5.469 1.088zM49.508 19.9a1.777 1.777 0 01-1.768-1.63L46.393 1.922A1.777 1.777 0 0148.017.007a1.773 1.773 0 011.913 1.624l1.349 16.346a1.775 1.775 0 01-1.771 1.922zM31.64 23.821c-.607 0-1.198-.31-1.528-.87L22.37 9.874a1.775 1.775 0 013.054-1.809l7.74 13.077c.5.845.222 1.933-.623 2.432a1.755 1.755 0 01-.901.248zm-20.426 9.907a1.78 1.78 0 01-1.161-.43L.614 25.132a1.774 1.774 0 112.322-2.685l9.44 8.162a1.777 1.777 0 01-1.162 3.118z" fill="#100F0D"/></svg>