<svg width="156" height="232" viewBox="0 0 156 232" fill="none" xmlns="http://www.w3.org/2000/svg">
<path d="M108.102 103.306C108.102 103.306 112.148 134.027 99.0413 139.48C85.9372 144.934 74.0615 141.59 59.9853 130.339C45.909 119.089 38.3675 106.609 36.3086 103.592C39.4491 100.336 60.506 87.9665 108.102 103.306Z" fill="#BD1823"/>
<path d="M87.3029 144.773C51.9482 144.773 21.7448 85.1545 20.3641 82.3852C19.7045 81.066 20.2413 79.4637 21.5605 78.8041C22.8824 78.1471 24.4847 78.6812 25.1417 79.9978C25.4915 80.7001 60.4831 149.757 95.5414 138.084C99.4857 136.77 102.268 134.134 104.052 130.027C114.04 107.034 88.4806 50.6944 88.2216 50.1255C87.6074 48.785 88.1949 47.1987 89.5355 46.5845C90.8814 45.9783 92.465 46.5631 93.0765 47.9037C94.1768 50.3018 119.878 106.999 108.95 132.153C106.56 137.654 102.618 141.355 97.2318 143.15C93.891 144.263 90.5716 144.773 87.3029 144.773Z" fill="#100F0D"/>
<path d="M80.4561 48.6899C74.1804 48.6899 64.158 50.7194 50.1673 58.8351C31.9384 69.4103 24.8002 78.0307 25.1821 80.0976C25.3797 80.4982 26.6669 82.8402 30.7287 84.2689C35.597 85.9781 44.7008 86.4187 60.4567 78.7864C86.7558 66.0588 88.967 52.1962 88.3741 50.4257C87.8454 49.8675 85.239 48.6899 80.4561 48.6899ZM37.3836 90.6221C33.8665 90.6221 31.0946 90.0559 28.9582 89.3082C23.051 87.2332 20.8692 83.4518 20.3404 82.3408C16.057 73.3386 40.0354 58.536 47.4861 54.2125C73.1603 39.3217 89.7414 42.5557 92.9086 47.5896C93.9875 49.3041 94.0837 51.9853 93.1784 55.1418C91.8031 59.9407 86.0882 72.3158 62.7827 83.596C51.7536 88.9316 43.459 90.6221 37.3836 90.6221Z" fill="#100F0D"/>
<path d="M140.887 221.813C139.955 221.813 139.052 221.325 138.561 220.46L94.0624 141.933C93.336 140.649 93.7846 139.02 95.0692 138.294C96.3537 137.567 97.9827 138.016 98.709 139.3L143.208 217.826C143.934 219.108 143.485 220.74 142.201 221.466C141.784 221.701 141.333 221.813 140.887 221.813Z" fill="#100F0D"/>
<path d="M127.364 231.846C126.494 231.846 125.639 231.421 125.129 230.639C124.32 229.405 124.665 227.749 125.898 226.94L151.201 210.364C152.438 209.558 154.091 209.905 154.9 211.136C155.706 212.37 155.362 214.025 154.128 214.835L128.825 231.41C128.374 231.704 127.866 231.846 127.364 231.846Z" fill="#100F0D"/>
<path d="M90.2888 89.8146C90.2888 92.0257 88.4943 93.8203 86.2831 93.8203C84.0719 93.8203 82.2773 92.0257 82.2773 89.8146C82.2773 87.6034 84.0719 85.8088 86.2831 85.8088C88.4943 85.8088 90.2888 87.6034 90.2888 89.8146Z" fill="#211D1D"/>
<path d="M86.2863 87.1428C84.8149 87.1428 83.6158 88.3392 83.6158 89.8133C83.6158 91.2874 84.8149 92.4838 86.2863 92.4838C87.7578 92.4838 88.9568 91.2874 88.9568 89.8133C88.9568 88.3392 87.7578 87.1428 86.2863 87.1428ZM86.2863 95.1543C83.3408 95.1543 80.9453 92.7589 80.9453 89.8133C80.9453 86.8677 83.3408 84.4723 86.2863 84.4723C89.2319 84.4723 91.6273 86.8677 91.6273 89.8133C91.6273 92.7589 89.2319 95.1543 86.2863 95.1543Z" fill="#211D1D"/>
<path d="M63.5857 103.167C63.5857 105.378 61.7911 107.173 59.58 107.173C57.3688 107.173 55.5742 105.378 55.5742 103.167C55.5742 100.956 57.3688 99.1613 59.58 99.1613C61.7911 99.1613 63.5857 100.956 63.5857 103.167Z" fill="#211D1D"/>
<path d="M59.5793 100.495C58.1078 100.495 56.9088 101.692 56.9088 103.166C56.9088 104.64 58.1078 105.836 59.5793 105.836C61.0507 105.836 62.2498 104.64 62.2498 103.166C62.2498 101.692 61.0507 100.495 59.5793 100.495ZM59.5793 108.507C56.6337 108.507 54.2383 106.111 54.2383 103.166C54.2383 100.22 56.6337 97.8248 59.5793 97.8248C62.5248 97.8248 64.9203 100.22 64.9203 103.166C64.9203 106.111 62.5248 108.507 59.5793 108.507Z" fill="#211D1D"/>
<path d="M81.0418 126.778C74.8435 126.778 69.9752 123.873 67.238 120.647C66.2819 119.523 66.4181 117.835 67.5451 116.881C68.672 115.931 70.3544 116.07 71.3078 117.189C74.029 120.396 79.8507 123.101 87.3175 120.169C94.2127 117.461 91.6383 107.297 91.6116 107.193C91.2378 105.767 92.0923 104.309 93.5184 103.932C94.9524 103.574 96.4078 104.413 96.779 105.842C98.1223 110.966 98.2799 121.6 89.2696 125.141C86.3401 126.29 83.5788 126.778 81.0418 126.778Z" fill="#100F0D"/>
<path d="M74.8442 30.875C73.4689 30.875 72.2992 29.8175 72.1844 28.4235L70.1575 3.8255C70.0373 2.35672 71.1295 1.06687 72.601 0.944025C74.0698 0.81851 75.3596 1.91876 75.4798 3.38753L77.5094 27.9828C77.6295 29.4543 76.5373 30.7441 75.0659 30.8643C74.9911 30.8697 74.9163 30.875 74.8442 30.875Z" fill="#100F0D"/>
<path d="M47.9589 36.7764C47.0456 36.7764 46.1564 36.309 45.6596 35.4678L34.0109 15.7889C33.2578 14.5204 33.6771 12.8807 34.9483 12.1303C36.2141 11.3799 37.8538 11.7965 38.6069 13.0677L50.2529 32.7439C51.006 34.0151 50.5867 35.6521 49.3156 36.4025C48.891 36.6562 48.4209 36.7764 47.9589 36.7764Z" fill="#100F0D"/>
<path d="M17.228 51.6836C16.6085 51.6836 15.9889 51.47 15.4815 51.0347L1.27981 38.7504C0.163536 37.7863 0.0406941 36.0985 1.00742 34.9823C1.97147 33.866 3.65388 33.7458 4.77282 34.7099L18.9772 46.9915C20.0908 47.9556 20.2137 49.6433 19.2496 50.7596C18.7208 51.3711 17.9758 51.6836 17.228 51.6836Z" fill="#100F0D"/>
</svg>
