<svg width="422" height="635" viewBox="0 0 422 635" fill="none" xmlns="http://www.w3.org/2000/svg">
<path d="M334.598 140.163C334.598 140.163 327.092 118.899 317.077 115.752C307.062 112.627 294.559 135.783 294.559 142.034C294.559 147.818 299.385 176.694 300.108 180.926C300.172 181.287 300.257 181.606 300.406 181.946L332.429 259.389C333.237 261.345 335.959 261.409 336.767 259.474C344.635 240.23 371.555 174.015 371.555 167.083C371.555 158.939 374.68 119.516 368.344 114.073C363.581 109.99 342.785 104.504 341.53 113.265C340.233 122.025 334.598 140.163 334.598 140.163Z" fill="#BD1823"/>
<path d="M361.325 331.303C361.325 331.303 353.819 310.039 343.803 306.892C333.788 303.766 321.285 326.922 321.285 333.174C321.285 338.958 326.112 367.834 326.835 372.065C326.899 372.427 326.984 372.746 327.133 373.086L359.156 450.529C359.964 452.464 362.686 452.549 363.494 450.614C371.361 431.37 398.281 365.155 398.281 358.223C398.281 350.079 401.407 310.656 395.07 305.212C390.307 301.13 369.511 295.644 368.257 304.404C366.96 313.165 361.325 331.303 361.325 331.303Z" fill="#BD1823"/>
<path d="M249.818 58.8292C249.818 58.8292 245.437 38.3734 236.592 34.2908C227.746 30.2294 213.499 50.0472 212.755 55.8097C212.075 61.1469 213.095 88.2794 213.244 92.2558C213.265 92.596 213.308 92.8937 213.393 93.2339L233.679 168.274C234.189 170.166 236.698 170.549 237.655 168.848C247.181 152.092 279.778 94.3396 280.608 87.9605C281.565 80.4756 289.113 44.5824 283.925 38.7987C280.034 34.4609 261.534 26.9761 259.344 34.8862C257.154 42.7963 249.818 58.8292 249.818 58.8292Z" fill="#BD1823"/>
<path d="M177.414 215.288C177.414 215.288 171.694 188.623 160.191 183.329C148.666 178.034 130.103 203.848 129.124 211.354C128.231 218.308 129.571 253.648 129.762 258.836C129.784 259.262 129.847 259.687 129.954 260.091L156.385 357.84C157.044 360.307 160.297 360.817 161.573 358.606C173.991 336.768 216.455 261.558 217.518 253.223C218.772 243.463 228.617 196.704 221.834 189.198C216.752 183.563 192.66 173.781 189.811 184.094C186.962 194.407 177.414 215.288 177.414 215.288Z" fill="#BD1823"/>
<path d="M39.5847 519.147C39.5847 519.147 35.0342 497.926 25.8695 493.694C16.7049 489.484 1.90531 510.046 1.13981 516C0.416847 521.529 1.48003 549.682 1.65014 553.807C1.67141 554.147 1.71394 554.488 1.79899 554.806L22.8501 632.653C23.3817 634.609 25.9759 635.013 26.9753 633.27C36.8629 615.876 70.6723 555.976 71.5228 549.342C72.5222 541.58 80.3473 504.326 74.9675 498.351C70.9274 493.865 51.7475 486.082 49.4723 494.29C47.1971 502.519 39.5847 519.147 39.5847 519.147Z" fill="#BD1823"/>
<path d="M83.4514 104.419C83.4514 104.419 75.0735 91.4698 67.9289 90.9807C60.7843 90.4917 56.1275 107.885 57.1269 112.032C58.0412 115.881 65.845 134.316 66.9933 137.017C67.0996 137.251 67.2059 137.442 67.3548 137.655L100.951 184.052C101.802 185.222 103.631 184.839 103.843 183.414C106.034 169.38 113.391 121.069 112.285 116.455C110.967 111.032 106.799 84.3252 101.717 81.7097C97.9108 79.7535 83.1962 79.4133 83.7704 85.4309C84.302 91.4698 83.4514 104.419 83.4514 104.419Z" fill="#BD1823"/>
<path d="M286.115 407.3C286.115 407.3 274.76 396.264 267.488 397.412C260.216 398.561 259.557 417.018 261.513 420.951C263.321 424.587 275.356 441.258 277.121 443.704C277.27 443.916 277.44 444.086 277.631 444.256L321.881 482.999C322.987 483.977 324.73 483.169 324.624 481.702C323.582 467.136 319.882 417.124 317.734 412.744C315.204 407.619 304.891 381.847 299.192 380.401C294.918 379.317 280.14 382.336 282.075 388.248C283.989 394.117 286.115 407.3 286.115 407.3Z" fill="#BD1823"/>
<path d="M393.455 516.978C393.455 516.978 392.456 501.179 386.31 497.139C380.144 493.099 367.258 506.346 366.067 510.577C364.962 514.49 362.686 534.903 362.368 537.901C362.346 538.157 362.346 538.39 362.368 538.646L369.151 597.078C369.321 598.546 371.149 599.12 372.064 597.971C381.058 586.489 411.933 546.938 413.252 542.239C414.804 536.753 424.479 510.726 421.226 505.836C418.802 502.157 405.788 494.481 403.279 500.158C400.77 505.836 393.455 516.978 393.455 516.978Z" fill="#BD1823"/>
<path d="M64.2919 219.838C64.2919 219.838 61.1449 203.699 54.2554 200.382C47.366 197.065 35.8836 212.417 35.2244 216.946C34.6077 221.135 35.0118 242.463 35.0755 245.588C35.0755 245.844 35.1181 246.099 35.1819 246.354L50.0452 305.595C50.428 307.083 52.3842 307.423 53.1497 306.105C60.8685 293.07 87.3206 248.183 88.0648 243.164C88.9366 237.296 95.3795 209.206 91.3819 204.592C88.3837 201.147 73.9669 194.981 72.1382 201.168C70.2883 207.335 64.2919 219.838 64.2919 219.838Z" fill="#BD1823"/>
<path d="M234.168 338.151C234.168 338.151 232.042 322.352 225.578 318.758C219.114 315.143 207.121 329.369 206.206 333.685C205.377 337.683 204.548 358.351 204.442 361.392C204.42 361.647 204.442 361.881 204.505 362.136L215.477 420.292C215.754 421.76 217.625 422.206 218.454 420.973C226.683 408.81 254.837 366.899 255.836 362.094C257.006 356.459 264.852 329.666 261.258 324.967C258.558 321.459 244.949 314.654 242.823 320.544C240.675 326.413 234.168 338.151 234.168 338.151Z" fill="#BD1823"/>
<path d="M173.141 20.3849C173.141 20.3849 171.015 4.58599 164.55 0.992418C158.086 -2.62242 146.093 11.603 145.179 15.9196C144.35 19.9171 143.521 40.5855 143.414 43.6262C143.393 43.8814 143.414 44.1153 143.478 44.3705L154.45 102.527C154.727 103.994 156.598 104.441 157.427 103.207C165.656 91.0444 193.809 49.1335 194.809 44.3279C195.978 38.693 203.825 11.9007 200.231 7.20143C197.53 3.69292 183.922 -3.11148 181.795 2.77857C179.648 8.64737 173.141 20.3849 173.141 20.3849Z" fill="#BD1823"/>
<path d="M38.2229 357.181C38.2229 357.181 35.969 340.403 29.1008 336.576C22.2326 332.748 9.49562 347.824 8.53875 352.417C7.64568 356.67 6.77386 378.593 6.64628 381.825C6.62502 382.102 6.66755 382.357 6.71007 382.612L18.3626 444.383C18.6603 445.935 20.6378 446.403 21.5309 445.106C30.249 432.199 60.1459 387.694 61.209 382.591C62.4636 376.616 70.799 348.165 66.9503 343.189C64.0797 339.468 49.6416 332.259 47.3876 338.49C45.1337 344.72 38.2229 357.181 38.2229 357.181Z" fill="#BD1823"/>
</svg>
