<svg width="32" height="32" viewBox="0 0 32 32" fill="none" xmlns="http://www.w3.org/2000/svg">
<path d="M16.0012 3.25C18.6246 3.25 20.7512 5.37665 20.7512 8V8.58301H24.0012L24.1448 8.59668C24.47 8.65969 24.7228 8.93362 24.7493 9.27539L26.0823 26.6084C26.0983 26.8166 26.0268 27.0225 25.885 27.1758C25.7432 27.329 25.544 27.4159 25.3352 27.416H6.66821C6.45937 27.416 6.26033 27.329 6.1184 27.1758C5.97654 27.0225 5.90414 26.8166 5.92016 26.6084L7.25414 9.27539L7.27856 9.13379C7.36643 8.81443 7.65849 8.58315 8.00121 8.58301H11.2512V8C11.2512 5.37673 13.378 3.25013 16.0012 3.25ZM7.47875 25.916H24.5247L23.3079 10.083H20.7512V12C20.7512 12.4142 20.4154 12.75 20.0012 12.75C19.5871 12.7499 19.2512 12.4141 19.2512 12V10.083H12.7512V12C12.7512 12.4142 12.4154 12.75 12.0012 12.75C11.5871 12.7499 11.2512 12.4141 11.2512 12V10.083H8.69555L7.47875 25.916ZM16.0012 4.75C14.2064 4.75013 12.7512 6.20516 12.7512 8V8.58301H19.2512V8C19.2512 6.20507 17.7961 4.75 16.0012 4.75Z" fill="black"/>
</svg>
