<svg width="127" height="546" viewBox="0 0 127 546" fill="none" xmlns="http://www.w3.org/2000/svg">
<path d="M46.9517 424.651C46.9517 424.651 34.3766 406.962 24.2856 406.702C14.2029 406.461 8.74607 431.2 10.3986 436.971C11.9219 442.335 24.0369 467.77 25.8252 471.491C25.9793 471.795 26.153 472.091 26.3573 472.35L76.4898 535.517C77.752 537.103 80.2944 536.448 80.5224 534.451C82.7216 514.564 90.0736 446.176 88.23 439.746C86.0772 432.223 78.5246 394.912 71.2199 391.553C65.7343 389.031 45.0403 389.472 46.198 397.91C47.3642 406.368 46.9517 424.651 46.9517 424.651Z" fill="#BD1823"/>
<path d="M22.0249 103.17C22.0249 103.17 13.5629 90.2748 6.41521 89.8322C-0.732442 89.3896 -5.27592 106.813 -4.24957 110.953C-3.3102 114.796 4.61339 133.18 5.77918 135.873C5.88702 136.107 5.99458 136.297 6.14481 136.509L40.0427 182.687C40.9009 183.851 42.727 183.456 42.9304 182.03C45.0292 167.982 52.0719 119.624 50.9362 115.017C49.5826 109.603 45.2412 82.9239 40.1423 80.3415C36.3234 78.4101 21.607 78.1656 22.2203 84.1794C22.7911 90.2147 22.0249 103.17 22.0249 103.17Z" fill="#BD1823"/>
<path d="M79.6214 209.719C79.6214 209.719 76.3694 193.601 69.4585 190.329C62.5476 187.057 51.1653 202.483 50.5356 207.017C49.9463 211.21 50.489 232.534 50.5732 235.659C50.5748 235.915 50.619 236.169 50.6845 236.424L65.933 295.567C66.3254 297.053 68.2839 297.38 69.0408 296.057C76.6745 282.973 102.834 237.914 103.546 232.891C104.379 227.016 110.639 198.886 106.612 194.297C103.591 190.872 89.1344 184.8 87.3461 190.999C85.5363 197.178 79.6214 209.719 79.6214 209.719Z" fill="#BD1823"/>
<path d="M96.4148 20.2985C96.4148 20.2985 94.1857 4.51368 87.6983 0.962243C81.2107 -2.61045 69.3108 11.6927 68.4245 16.0151C67.6213 20.018 66.9265 40.6913 66.84 43.7327C66.8204 43.988 66.8431 44.2217 66.9086 44.4765L78.2589 102.56C78.5448 104.026 80.4189 104.46 81.2402 103.221C89.3899 91.0051 117.27 48.912 118.238 44.0999C119.371 38.4576 127.043 11.6148 123.418 6.93896C120.695 3.44809 107.042 -3.26762 104.954 2.63615C102.845 8.51879 96.4148 20.2985 96.4148 20.2985Z" fill="#BD1823"/>
<path d="M18.5214 307.406C18.5214 307.406 12.1931 296.626 6.42285 295.982C0.65256 295.338 -3.71297 309.243 -3.05226 312.644C-2.44531 315.794 3.22473 330.971 4.0613 333.209C4.1258 333.403 4.22767 333.565 4.32953 333.726L29.9129 372.459C30.5591 373.43 32.0393 373.184 32.2769 372.046C34.5255 360.766 42.1674 321.919 41.4333 318.141C40.5803 313.714 38.1273 291.959 34.085 289.671C31.0671 287.957 19.1763 287.174 19.4216 292.06C19.6669 296.946 18.5214 307.406 18.5214 307.406Z" fill="#BD1823"/>
</svg>
