<svg width="156" height="770" viewBox="0 0 156 770" fill="none" xmlns="http://www.w3.org/2000/svg">
<path d="M175.415 152.809C175.415 152.809 166.592 132.057 156.399 129.543C146.208 127.051 135.179 150.944 135.571 157.184C135.933 162.956 142.558 191.473 143.544 195.651C143.631 196.008 143.736 196.321 143.905 196.651L180.714 271.937C181.643 273.839 184.363 273.732 185.049 271.75C191.696 252.052 214.418 184.281 213.984 177.363C213.474 169.235 214.125 129.693 207.46 124.657C202.451 120.881 181.352 116.707 180.649 125.529C179.903 134.354 175.415 152.809 175.415 152.809Z" fill="#BD1823"/>
<path d="M168.938 329.877C168.938 329.877 160.115 309.125 149.923 306.611C139.731 304.118 128.703 328.012 129.094 334.251C129.456 340.023 136.081 368.541 137.068 372.719C137.154 373.075 137.259 373.388 137.429 373.719L174.238 449.004C175.165 450.885 177.887 450.8 178.572 448.818C185.22 429.119 207.941 361.349 207.507 354.43C206.997 346.302 207.649 306.761 200.984 301.725C195.975 297.948 174.876 293.775 174.172 302.597C173.426 311.422 168.938 329.877 168.938 329.877Z" fill="#BD1823"/>
<path d="M82.9375 29.6095C82.9375 29.6095 77.2851 9.46811 68.2012 5.94727C59.1185 2.44766 46.1405 23.1185 45.7585 28.9163C45.4135 34.2856 48.1309 61.301 48.5284 65.2602C48.5709 65.5984 48.632 65.8929 48.7381 66.2271L73.6819 139.85C74.3097 141.706 76.8379 141.931 77.6864 140.174C86.1448 122.854 115.063 63.1745 115.491 56.756C115.977 49.2259 121.264 12.9306 115.724 7.483C111.568 3.39733 92.6367 -2.91465 90.946 5.11706C89.2554 13.1488 82.9375 29.6095 82.9375 29.6095Z" fill="#BD1823"/>
<path d="M50.7348 237.575C50.7348 237.575 43.3566 211.321 31.544 206.757C19.7102 202.194 2.79953 229.12 2.29324 236.672C1.83723 243.668 5.38674 278.855 5.90256 284.021C5.95041 284.444 6.0407 284.865 6.1721 285.261L38.6708 381.164C39.4831 383.585 42.762 383.89 43.8969 381.604C54.9234 359.031 92.5952 281.31 93.1344 272.925C93.7755 263.105 100.674 215.822 93.4342 208.755C88.0093 203.449 63.3524 195.195 61.1543 205.666C58.9562 216.138 50.7348 237.575 50.7348 237.575Z" fill="#BD1823"/>
<path d="M115.196 586.474C115.196 586.474 103.173 576.171 95.9868 577.772C88.8008 579.374 89.2984 597.836 91.4971 601.639C93.5286 605.155 106.584 621.04 108.499 623.37C108.66 623.573 108.841 623.732 109.042 623.89L155.631 659.786C156.796 660.693 158.485 659.777 158.287 658.319C156.336 643.848 149.512 594.165 147.094 589.928C144.248 584.972 132.342 559.896 126.564 558.81C122.23 557.995 107.67 561.934 109.971 567.712C112.249 573.45 115.196 586.474 115.196 586.474Z" fill="#BD1823"/>
<path d="M152.071 722.484C152.071 722.484 150.961 713.706 147.392 711.667C143.81 709.629 137.086 717.47 136.57 719.872C136.09 722.093 135.535 733.56 135.462 735.244C135.459 735.387 135.467 735.517 135.488 735.659L141.316 768.017C141.463 768.83 142.503 769.086 142.973 768.413C147.588 761.693 163.428 738.55 163.999 735.883C164.672 732.768 169.159 717.911 167.173 715.297C165.692 713.329 158.164 709.503 156.963 712.757C155.762 716.012 152.071 722.484 152.071 722.484Z" fill="#BD1823"/>
<path d="M93.9269 415.69C93.9269 415.69 90.8156 400.055 84.1391 396.874C77.4613 393.671 66.3827 408.619 65.7404 412.984C65.163 417.026 65.6293 437.706 65.7135 440.747C65.7083 441.003 65.7442 441.235 65.8238 441.486L80.4153 498.841C80.783 500.288 82.6785 500.617 83.429 499.334C90.8805 486.68 116.355 443.088 117.051 438.23C117.866 432.533 124.019 405.302 120.138 400.837C117.224 397.504 103.215 391.565 101.462 397.577C99.686 403.568 93.9269 415.69 93.9269 415.69Z" fill="#BD1823"/>
</svg>
