<svg width="209" height="201" viewBox="0 0 209 201" fill="none" xmlns="http://www.w3.org/2000/svg">
<path d="M106.964 53.1577C106.964 53.1577 99.2419 26.667 87.2308 22.1577C75.2196 17.6483 58.3543 45.0768 57.9269 52.7165C57.5269 59.7908 61.4709 95.3829 62.0501 100.609C62.1052 101.051 62.1879 101.451 62.3396 101.864L96.1667 198.615C97.0217 201.042 100.345 201.332 101.448 199.002C112.37 176.041 149.741 97.0102 150.21 88.5293C150.762 78.6004 157.27 30.6661 149.893 23.578C144.363 18.2551 119.32 10.1603 117.197 20.7649C115.087 31.3832 106.964 53.1577 106.964 53.1577Z" fill="#BD1823"/>
<path d="M108.34 90.0462C108.34 90.0462 111.539 84.282 121.675 85.3714C130.611 86.3367 133.231 92.6663 133.231 92.6663C133.231 92.6663 128.556 97.8928 120.779 97.0654C113.015 96.238 110.822 93.8937 108.34 90.0462Z" fill="white"/>
<path d="M96.8541 89.1782C96.8541 89.1782 92.7447 83.083 85.1188 83.083C77.5066 83.083 74.1556 85.8272 72.8594 88.7231C72.8594 88.7231 75.8243 95.7285 85.3533 95.1907C94.8822 94.6529 96.8541 89.1782 96.8541 89.1782Z" fill="white"/>
<path d="M122.462 98.5271C121.869 98.5271 121.262 98.4995 120.642 98.4306C112.119 97.5342 109.692 94.6934 107.183 90.7908C106.907 90.3634 106.893 89.8256 107.141 89.3843C107.293 89.1085 110.892 82.8202 121.841 84.0061C131.481 85.0404 134.404 91.8527 134.514 92.1423C134.721 92.6249 134.625 93.1903 134.266 93.5903C134.073 93.7971 129.743 98.5271 122.462 98.5271ZM110.023 90.0876C112.023 93.08 114.05 94.9555 120.945 95.6863C126.351 96.2517 130.074 93.6592 131.536 92.3905C130.557 90.8184 127.73 87.4123 121.552 86.7504C114.436 85.9781 111.154 88.7775 110.023 90.0876Z" fill="#12100B"/>
<path d="M119.099 85.2334L117.996 96.6516L123.181 97.1342L123.719 85.7023L119.099 85.2334Z" fill="#12100B"/>
<path d="M123.181 97.8239C123.154 97.8239 123.14 97.8239 123.113 97.8239L117.927 97.3413C117.748 97.3275 117.569 97.2309 117.458 97.093C117.348 96.9551 117.293 96.7621 117.307 96.5828L118.424 85.1646C118.438 84.9854 118.534 84.8061 118.672 84.6958C118.81 84.5854 118.989 84.5303 119.182 84.5441L123.788 85.013C124.147 85.0543 124.422 85.3715 124.409 85.73L123.871 97.162C123.857 97.3551 123.774 97.5205 123.637 97.6446C123.499 97.755 123.347 97.8239 123.181 97.8239ZM118.741 96.0312L122.519 96.376L122.988 86.323L119.72 85.992L118.741 96.0312Z" fill="#12100B"/>
<path d="M84.3178 96.5965C74.8302 96.5965 71.7273 89.5636 71.6032 89.2464C71.4515 88.9017 71.4653 88.5017 71.617 88.1432C72.9408 85.2059 76.3471 81.6895 85.1451 81.6895C93.4054 81.6895 97.8319 88.1156 98.0112 88.3914C98.2594 88.75 98.3146 89.2188 98.1629 89.6325C98.0664 89.8945 95.7497 95.976 85.4485 96.5552C85.0486 96.5827 84.6763 96.5965 84.3178 96.5965ZM74.4164 88.7086C75.2852 90.1979 78.2914 94.2108 85.283 93.8109C91.8747 93.4386 94.412 90.6116 95.2394 89.3154C94.0259 87.8674 90.5784 84.4613 85.1313 84.4613C79.698 84.4613 76.0161 85.923 74.4164 88.7086Z" fill="#12100B"/>
<path d="M83.1328 83.1514L82.8984 95.1625L87.7112 94.9419V83.3306L83.1328 83.1514Z" fill="#12100B"/>
<path d="M82.9004 95.8526C82.7212 95.8526 82.5419 95.7837 82.4178 95.6595C82.2799 95.5216 82.2109 95.3424 82.2109 95.1493L82.4453 83.1382C82.4453 82.9589 82.528 82.7796 82.6659 82.6555C82.8039 82.5314 82.9693 82.4486 83.1624 82.4624L87.7408 82.6417C88.1131 82.6555 88.4027 82.9589 88.4027 83.3312V94.9425C88.4027 95.3148 88.1131 95.6182 87.7408 95.632L82.928 95.8526C82.928 95.8526 82.9142 95.8526 82.9004 95.8526ZM83.8106 83.869L83.6037 94.446L87.0237 94.2943V84.0069L83.8106 83.869Z" fill="#12100B"/>
<path d="M104.411 109.476C94.3859 109.476 86.3739 106.112 83.34 104.65L83.1884 104.567C82.8298 104.429 82.5265 104.14 82.3886 103.754C82.1266 103.036 82.4989 102.25 83.216 101.988C83.7814 101.782 84.1813 101.975 84.5674 102.168C88.9664 104.305 104.591 110.704 121.028 103.105C121.718 102.788 122.545 103.092 122.862 103.781C123.18 104.471 122.876 105.298 122.187 105.615C115.981 108.47 109.9 109.476 104.411 109.476Z" fill="#12100B"/>
<path d="M152.885 129.403C152.885 129.403 150.789 145.261 157.559 148.088C164.33 150.901 170.453 149.178 177.721 143.372C184.988 137.566 188.891 131.113 189.952 129.554C188.325 127.872 177.459 121.473 152.885 129.403Z" fill="#D73328"/>
<path d="M163.613 150.819C161.916 150.819 160.206 150.557 158.482 149.978C155.697 149.054 153.67 147.137 152.429 144.297C146.788 131.306 160.055 102.03 160.62 100.789C160.937 100.099 161.751 99.7959 162.454 100.113C163.144 100.43 163.447 101.244 163.13 101.947C162.992 102.237 149.795 131.348 154.952 143.207C155.876 145.331 157.31 146.682 159.351 147.372C177.471 153.412 195.523 117.737 195.702 117.378C196.047 116.703 196.874 116.427 197.55 116.758C198.226 117.102 198.515 117.93 198.17 118.606C197.467 120.026 181.871 150.819 163.613 150.819Z" fill="#12100B"/>
<path d="M189.398 122.853C186.254 122.853 181.979 121.985 176.284 119.227C164.245 113.407 161.294 107.009 160.591 104.54C160.122 102.913 160.177 101.52 160.728 100.638C162.369 98.0313 170.919 96.3627 184.185 104.058C188.033 106.292 200.416 113.931 198.196 118.579C197.92 119.158 196.803 121.102 193.742 122.178C192.639 122.564 191.205 122.853 189.398 122.853ZM163.059 102.099C162.756 103.01 163.9 110.167 177.47 116.744C185.606 120.688 190.308 120.454 192.818 119.571C194.914 118.841 195.576 117.627 195.686 117.393C195.879 116.358 192.184 111.904 182.779 106.443C170.064 99.0518 163.693 101.424 163.059 102.099Z" fill="#12100B"/>
<path d="M135.951 190.603C135.716 190.603 135.482 190.548 135.275 190.424C134.613 190.052 134.379 189.21 134.751 188.548L157.725 148.006C158.098 147.344 158.939 147.109 159.601 147.482C160.263 147.854 160.497 148.695 160.125 149.357L137.151 189.9C136.902 190.341 136.434 190.603 135.951 190.603Z" fill="#12100B"/>
<path d="M142.929 195.775C142.667 195.775 142.405 195.706 142.17 195.554L129.111 186.991C128.477 186.577 128.297 185.722 128.711 185.074C129.125 184.439 129.98 184.26 130.614 184.674L143.687 193.238C144.321 193.651 144.501 194.506 144.087 195.154C143.825 195.554 143.384 195.775 142.929 195.775Z" fill="#12100B"/>
<path d="M161.859 121.861C161.859 123.019 162.797 123.943 163.942 123.943C165.086 123.943 166.024 123.005 166.024 121.861C166.024 120.716 165.086 119.778 163.942 119.778C162.797 119.778 161.859 120.716 161.859 121.861Z" fill="#2B2523"/>
<path d="M163.944 124.632C162.413 124.632 161.172 123.391 161.172 121.861C161.172 120.33 162.413 119.089 163.944 119.089C165.474 119.089 166.716 120.33 166.716 121.861C166.716 123.391 165.474 124.632 163.944 124.632ZM163.944 120.468C163.171 120.468 162.551 121.088 162.551 121.861C162.551 122.633 163.171 123.253 163.944 123.253C164.716 123.253 165.337 122.633 165.337 121.861C165.337 121.088 164.716 120.468 163.944 120.468Z" fill="#2B2523"/>
<path d="M176.242 128.976C176.242 130.134 177.18 131.058 178.325 131.058C179.469 131.058 180.407 130.12 180.407 128.976C180.407 127.831 179.469 126.894 178.325 126.894C177.18 126.894 176.242 127.817 176.242 128.976Z" fill="#2B2523"/>
<path d="M178.338 131.748C176.808 131.748 175.566 130.507 175.566 128.976C175.566 127.445 176.808 126.204 178.338 126.204C179.869 126.204 181.11 127.445 181.11 128.976C181.11 130.507 179.869 131.748 178.338 131.748ZM178.338 127.583C177.566 127.583 176.945 128.204 176.945 128.976C176.945 129.748 177.566 130.369 178.338 130.369C179.11 130.369 179.731 129.748 179.731 128.976C179.731 128.204 179.097 127.583 178.338 127.583Z" fill="#2B2523"/>
<path d="M166.852 141.524C165.542 141.524 164.122 141.276 162.605 140.683C157.944 138.849 158.026 133.361 158.73 130.713C158.923 129.982 159.681 129.541 160.412 129.734C161.143 129.927 161.584 130.685 161.391 131.416C161.336 131.651 160.081 136.739 163.612 138.118C168.686 140.104 171.568 136.946 171.872 136.574C172.354 135.995 173.237 135.926 173.816 136.408C174.395 136.905 174.464 137.773 173.981 138.353C172.561 140.021 170.051 141.524 166.852 141.524Z" fill="#12100B"/>
<path d="M170.051 92.0043C170.009 92.0043 169.968 92.0043 169.94 92.0043C169.182 91.9353 168.616 91.2734 168.685 90.515L169.733 77.8143C169.802 77.0559 170.45 76.4905 171.223 76.5594C171.981 76.6146 172.547 77.2903 172.491 78.0487L171.443 90.7494C171.361 91.4527 170.754 92.0043 170.051 92.0043Z" fill="#12100B"/>
<path d="M183.939 95.0526C183.705 95.0526 183.456 94.9974 183.236 94.8595C182.588 94.4734 182.367 93.6322 182.753 92.9702L188.765 82.807C189.152 82.1588 189.993 81.9382 190.655 82.3243C191.303 82.7104 191.523 83.5516 191.137 84.2136L185.125 94.3768C184.863 94.8043 184.408 95.0526 183.939 95.0526Z" fill="#12100B"/>
<path d="M199.796 102.747C199.41 102.747 199.024 102.581 198.748 102.264C198.251 101.685 198.307 100.816 198.886 100.32L206.222 93.9763C206.801 93.4799 207.67 93.535 208.166 94.1142C208.663 94.6934 208.608 95.5622 208.029 96.0586L200.692 102.402C200.444 102.636 200.127 102.747 199.796 102.747Z" fill="#12100B"/>
<path d="M55.6341 133.389C55.6341 133.389 57.7302 149.247 50.9593 152.074C44.1883 154.887 38.0656 153.164 30.7982 147.358C23.5308 141.552 19.6282 135.099 18.5664 133.54C20.1936 131.844 31.0602 125.459 55.6341 133.389Z" fill="#D73328"/>
<path d="M44.8919 154.791C26.6339 154.791 11.0374 124.011 10.3203 122.577C9.97556 121.902 10.2513 121.074 10.9408 120.729C11.6303 120.385 12.4578 120.66 12.7888 121.35C12.9681 121.709 31.033 157.37 49.1394 151.343C51.1803 150.668 52.6144 149.302 53.5384 147.179C58.6958 135.306 45.4988 106.208 45.3609 105.919C45.0438 105.229 45.3471 104.402 46.0366 104.085C46.7261 103.768 47.5535 104.071 47.8707 104.761C48.436 106.002 61.716 135.278 56.062 148.268C54.8347 151.109 52.7938 153.026 50.0082 153.95C48.2982 154.529 46.5881 154.791 44.8919 154.791Z" fill="#12100B"/>
<path d="M19.12 126.838C17.2997 126.838 15.8793 126.548 14.7623 126.162C11.7147 125.086 10.584 123.142 10.3082 122.563C8.10175 117.916 20.4853 110.276 24.3189 108.042C37.5712 100.347 46.1348 102.016 47.7758 104.622C48.3275 105.505 48.3826 106.897 47.9137 108.525C47.2104 111.007 44.2593 117.392 32.2206 123.225C26.5391 125.955 22.2642 126.838 19.12 126.838ZM41.3634 105.174C38.1228 105.174 32.9515 106.222 25.7255 110.414C16.3069 115.875 12.6248 120.329 12.8179 121.391C12.9144 121.598 13.5902 122.811 15.6863 123.542C18.1961 124.425 22.8985 124.645 31.0347 120.715C44.6179 114.137 45.7624 106.98 45.4452 106.07C45.1832 105.78 43.8319 105.174 41.3634 105.174Z" fill="#12100B"/>
<path d="M72.5697 194.576C72.0871 194.576 71.6182 194.328 71.37 193.873L48.3957 153.33C48.0233 152.668 48.2578 151.827 48.9197 151.454C49.5816 151.082 50.4228 151.316 50.7951 151.978L73.7694 192.521C74.1418 193.183 73.9073 194.024 73.2454 194.397C73.0386 194.521 72.8041 194.576 72.5697 194.576Z" fill="#12100B"/>
<path d="M65.592 199.76C65.1369 199.76 64.6956 199.539 64.4336 199.14C64.0199 198.505 64.1993 197.65 64.8336 197.237L77.8928 188.673C78.5271 188.259 79.3821 188.438 79.8096 189.073C80.2233 189.707 80.044 190.562 79.4096 190.976L66.3367 199.539C66.1022 199.691 65.8402 199.76 65.592 199.76Z" fill="#12100B"/>
<path d="M46.4378 126.411C46.4378 127.556 45.5139 128.48 44.3693 128.48C43.2247 128.48 42.3008 127.556 42.3008 126.411C42.3008 125.267 43.2247 124.343 44.3693 124.343C45.5139 124.343 46.4378 125.28 46.4378 126.411Z" fill="#2B2523"/>
<path d="M44.3674 129.169C42.8505 129.169 41.6094 127.928 41.6094 126.411C41.6094 124.894 42.8505 123.653 44.3674 123.653C45.8843 123.653 47.1254 124.894 47.1254 126.411C47.1254 127.942 45.8981 129.169 44.3674 129.169ZM44.3674 125.032C43.6089 125.032 42.9884 125.653 42.9884 126.411C42.9884 127.17 43.6089 127.79 44.3674 127.79C45.1258 127.79 45.7464 127.17 45.7464 126.411C45.7464 125.653 45.1258 125.032 44.3674 125.032Z" fill="#2B2523"/>
<path d="M32.6487 133.306C32.6487 134.45 31.7248 135.374 30.5802 135.374C29.4357 135.374 28.5117 134.45 28.5117 133.306C28.5117 132.161 29.4357 131.237 30.5802 131.237C31.7248 131.237 32.6487 132.175 32.6487 133.306Z" fill="#2B2523"/>
<path d="M30.5783 136.064C29.0614 136.064 27.8203 134.823 27.8203 133.306C27.8203 131.789 29.0614 130.548 30.5783 130.548C32.0952 130.548 33.3363 131.789 33.3363 133.306C33.3363 134.837 32.109 136.064 30.5783 136.064ZM30.5783 131.927C29.8199 131.927 29.1993 132.547 29.1993 133.306C29.1993 134.064 29.8199 134.685 30.5783 134.685C31.3368 134.685 31.9573 134.064 31.9573 133.306C31.9573 132.547 31.3368 131.927 30.5783 131.927Z" fill="#2B2523"/>
<path d="M41.6682 145.496C38.469 145.496 35.9591 143.993 34.5387 142.325C34.0423 141.746 34.1114 140.877 34.6906 140.38C35.2697 139.884 36.1384 139.967 36.6348 140.532C38.0414 142.187 41.0476 143.58 44.8951 142.076C48.4529 140.684 47.129 135.43 47.1153 135.375C46.9222 134.644 47.3636 133.885 48.0945 133.692C48.8391 133.513 49.5838 133.94 49.7768 134.671C50.4663 137.319 50.549 142.807 45.9017 144.641C44.4124 145.248 42.9783 145.496 41.6682 145.496Z" fill="#12100B"/>
<path d="M38.4679 95.976C37.7508 95.976 37.1579 95.4244 37.0889 94.7073L36.0409 82.0066C35.9719 81.2482 36.5372 80.5862 37.2956 80.5173C38.0541 80.4483 38.7161 81.0275 38.7851 81.7722L39.8331 94.4729C39.9021 95.2313 39.3366 95.8932 38.5782 95.9622C38.5506 95.976 38.5093 95.976 38.4679 95.976Z" fill="#12100B"/>
<path d="M24.5803 99.0232C24.1114 99.0232 23.6564 98.7888 23.3944 98.3475L17.3819 88.1842C16.9958 87.5223 17.2164 86.6811 17.8645 86.295C18.5127 85.9089 19.3677 86.1295 19.7538 86.7777L25.7662 96.9409C26.1524 97.6029 25.9317 98.4441 25.2836 98.8302C25.063 98.9681 24.8285 99.0232 24.5803 99.0232Z" fill="#12100B"/>
<path d="M8.70817 106.718C8.391 106.718 8.07379 106.608 7.81178 106.387L0.475537 100.044C-0.103646 99.5475 -0.158773 98.6788 0.33767 98.0996C0.834113 97.5204 1.70293 97.4652 2.28212 97.9617L9.61836 104.305C10.1975 104.802 10.2527 105.67 9.75623 106.25C9.48043 106.567 9.09429 106.718 8.70817 106.718Z" fill="#12100B"/>
<path d="M126.504 85.4815C125.911 85.4815 125.36 85.0953 125.18 84.5024C124.96 83.7715 125.373 82.9993 126.104 82.7924C128.352 82.1167 130.186 80.2274 130.793 77.9659C130.986 77.235 131.744 76.7937 132.475 76.9868C133.206 77.1798 133.648 77.9383 133.454 78.6692C132.613 81.8409 130.035 84.4886 126.89 85.4263C126.766 85.4677 126.628 85.4815 126.504 85.4815Z" fill="#12100B"/>
<path d="M133.344 90.2942C132.695 90.2942 132.116 89.8391 131.992 89.1772C131.84 88.4326 132.337 87.7017 133.082 87.5638C135.191 87.1501 136.998 85.2333 137.287 83.0958C137.384 82.3374 138.074 81.7995 138.832 81.9099C139.59 82.0064 140.114 82.6959 140.018 83.4543C139.59 86.764 136.888 89.6323 133.606 90.2666C133.523 90.2942 133.44 90.2942 133.344 90.2942Z" fill="#12100B"/>
<path d="M73.1612 87.5924C71.8098 87.5924 70.4723 87.0683 69.4932 86.1168C68.1969 84.8481 67.6591 82.89 68.128 81.1248C68.3211 80.3802 69.0795 79.9389 69.8103 80.1457C70.5412 80.3388 70.9824 81.0972 70.7894 81.8281C70.5825 82.6279 70.8307 83.5657 71.4237 84.1586C72.0167 84.7378 72.9545 84.986 73.7543 84.7654C74.4852 84.5585 75.2436 84.986 75.4504 85.7307C75.6573 86.4616 75.2299 87.22 74.4852 87.4269C74.0715 87.5372 73.6163 87.5924 73.1612 87.5924Z" fill="#12100B"/>
<path d="M78.2093 84.7368C76.4718 84.7368 74.7343 83.9784 73.5897 82.6545C72.1969 81.0549 71.7555 78.7106 72.4588 76.711C72.707 75.9939 73.4931 75.6216 74.224 75.8698C74.9411 76.118 75.3272 76.9041 75.0652 77.6211C74.6928 78.6968 74.9411 79.993 75.672 80.848C76.4167 81.703 77.6578 82.1443 78.7748 81.9236C79.5194 81.772 80.2502 82.2684 80.3881 83.0131C80.526 83.7577 80.0435 84.4886 79.2988 84.6265C78.9403 84.7092 78.5679 84.7368 78.2093 84.7368Z" fill="#12100B"/>
<path d="M51.622 43.2707C51.098 43.2707 50.6153 42.9674 50.3809 42.4847C50.0913 41.8779 50.2844 41.1608 50.8223 40.7747L53.4562 38.8993C54.0768 38.458 54.9454 38.5959 55.3867 39.2165C55.4281 39.2854 55.4695 39.3544 55.5109 39.4233L103.762 26.3779C101.473 20.7515 99.7218 14.9183 98.5497 8.96103L97.0052 15.3734C96.4812 17.5109 95.8192 19.6897 93.8886 20.9446C92.551 21.8134 91.0065 21.9789 89.4069 21.4273C87.035 20.6136 84.7871 18.228 83.8356 15.4837C83.4909 14.4908 83.2288 13.4704 82.9668 12.4775C82.7186 11.526 82.4843 10.5883 82.1809 9.71948C82.0154 11.0295 81.6982 12.3396 81.1466 13.5807C79.9607 16.2008 77.12 18.8761 73.6449 18.5313C71.5212 18.3245 69.8112 17.0558 68.4322 16.0491L61.151 10.671L57.7587 28.998C57.6622 29.4945 57.3174 29.8944 56.8347 30.0598C56.3521 30.2115 55.828 30.1012 55.4695 29.7565L46.175 21.1101C46.7542 24.5714 47.9815 27.9362 49.7604 30.9562C50.1465 31.6181 49.9259 32.4593 49.2778 32.8454C48.6159 33.2316 47.7747 33.0109 47.3885 32.3628C44.7546 27.9086 43.2653 22.8201 43.0446 17.6626C43.0171 17.0972 43.3342 16.5869 43.8444 16.3525C44.3546 16.1181 44.9477 16.2146 45.3614 16.6007L55.5109 26.0469L58.848 8.0233C58.9307 7.55444 59.2617 7.16832 59.703 6.98904C60.1443 6.82356 60.6408 6.87873 61.0269 7.16832L70.0869 13.8565C71.2453 14.7115 72.5692 15.6768 73.9344 15.8147C75.9478 16.0078 77.8369 14.284 78.6505 12.4775C79.6296 10.3125 79.6436 7.76129 79.6711 5.29287C79.6711 4.75506 79.9883 4.2724 80.4847 4.05176C80.9812 3.83112 81.5465 3.91387 81.9602 4.27241C84.2355 6.25818 84.9665 9.08514 85.6698 11.8156C85.918 12.7947 86.1662 13.7186 86.4696 14.6012C87.1315 16.518 88.7588 18.3107 90.3308 18.8485C91.1169 19.1243 91.7926 19.0554 92.4132 18.6555C93.4888 17.966 93.9437 16.4215 94.3436 14.7529L97.5154 1.65229C97.6671 1.00416 98.2739 0.562874 98.9358 0.604244C99.5978 0.645614 100.149 1.15584 100.218 1.81777C101.266 10.4228 103.528 18.8209 106.92 26.7916C107.072 27.1639 107.072 27.5776 106.893 27.9362C106.713 28.2947 106.396 28.5567 106.01 28.667L52.0082 43.2707C51.8703 43.2569 51.7461 43.2707 51.622 43.2707Z" fill="#12100B"/>
</svg>
