<svg width="133" height="201" viewBox="0 0 133 201" fill="none" xmlns="http://www.w3.org/2000/svg">
<path d="M91.6276 175.65C90.7929 177.319 91.3892 179.068 90.9519 180.658C90.6737 181.731 90.3557 182.804 89.1235 183.083C87.9708 183.361 87.3348 182.566 86.7385 181.731C84.5921 178.75 80.0608 180.26 77.5566 182.407C75.8871 183.838 73.383 185.388 74.2972 188.17C75.2114 190.873 77.9541 191.191 80.3787 191.47C89.6402 192.503 98.5837 191.788 106.533 186.342C109.833 184.076 109.833 182.089 106.613 179.744C105.261 178.75 103.791 177.915 102.638 176.762C100.929 175.014 101.605 172.708 103.91 172.271C108.163 171.516 115.238 172.629 117.663 178.313C119.73 183.242 118.021 189.164 113.33 192.9C107.487 197.511 100.69 199.578 93.4958 200.254C87.8515 200.771 82.1277 200.89 76.5629 199.34C71.952 198.068 68.0567 195.802 66.7052 191.032C65.3935 186.342 66.7847 182.168 70.5211 178.829C74.2177 175.53 78.1926 173.026 83.3997 173.583C85.2678 173.781 85.5063 172.788 85.4666 171.277C85.3473 166.984 84.4729 162.691 86.1821 158.478C86.6193 157.405 85.6653 157.166 85.0691 156.729C81.6507 153.986 81.3327 151.92 83.7971 148.183C85.2678 145.918 83.7972 142.181 81.7302 140.512C78.0336 137.531 75.5294 139.597 72.9457 141.863C67.5002 146.673 61.1404 149.495 54.0253 150.648C53.3496 150.767 52.6739 150.886 51.9981 150.926C50.5672 150.966 48.6593 151.482 48.222 149.614C47.7848 147.666 49.5337 146.633 51.0839 146.077C53.8664 145.123 56.8475 144.765 59.5107 143.572C67.3014 139.995 73.8997 134.51 80.5775 129.263C82.7239 127.554 85.3473 126.162 86.977 122.625C83.0419 124.294 79.703 125.566 76.5231 127.156C71.8328 129.462 67.2219 131.846 61.7366 131.012C59.8684 130.733 58.0797 130.177 56.609 128.985C55.5755 128.15 54.8601 126.957 55.5358 125.606C56.2115 124.215 57.5232 124.572 58.6362 125.01C62.5316 126.52 66.1884 125.367 69.7261 123.817C74.0189 121.909 78.2721 119.882 82.5252 117.855C83.5586 117.378 84.9499 117.02 84.1549 115.391C83.5189 114.079 83.2804 112.37 80.975 112.727C70.5211 114.357 60.5839 117.497 51.2429 122.426C44.9626 125.725 39.4375 130.058 33.5547 133.953C24.2535 140.114 13.9189 142.499 2.74947 140.989C1.19927 140.79 0.0862958 140.074 0.0067983 138.445C-0.112448 136.577 1.35826 136.139 2.74947 136.02C6.24736 135.742 9.74525 135.503 13.2431 135.066C21.7891 133.953 29.0234 130.098 35.8602 125.169C41.9815 120.757 48.222 116.782 55.2973 113.801C61.6571 111.098 68.0169 108.832 74.6947 107.282C76.9206 106.765 77.0399 106.01 75.2114 104.062C70.9981 99.5307 66.9437 94.9199 64.1215 89.3551C62.2136 85.6187 61.0211 81.6041 60.7429 77.5497C59.9479 66.897 61.4186 56.4431 64.3998 46.1879C65.5127 42.3323 66.3872 38.3972 68.5734 34.939C69.3683 33.6671 70.3223 32.5541 71.4353 31.6002C72.111 31.0039 73.2637 30.2884 73.8202 30.8449C76.2051 33.3094 79.3453 32.4746 82.1277 32.8721C89.362 33.9453 96.5962 33.2696 103.711 31.6399C104.625 31.4411 105.659 31.2424 106.533 30.3282C104.904 29.2152 103.036 29.255 101.326 29.2152C95.1653 28.937 89.0042 29.4537 82.8432 29.9705C81.0942 30.0897 79.1863 30.4474 78.7491 28.301C78.2721 25.9956 80.4583 25.5981 82.0085 25.3199C88.4478 24.1671 94.8075 22.3387 101.446 22.5772C105.142 22.6964 108.879 21.9809 112.456 23.4914C115.159 24.6441 117.464 26.1546 118.736 28.8972C118.975 29.414 119.293 30.05 119.77 30.2884C123.864 32.3554 124.619 36.37 125.176 40.1859C126.01 45.9097 126.408 51.6733 126.567 57.4368C126.766 63.8761 127.163 70.3552 127.441 76.7945C127.958 89.7128 122.274 99.2923 111.74 106.447C108.322 108.752 104.824 110.899 101.287 112.966C100.134 113.642 99.6569 114.278 100.77 115.43C103.393 118.213 103.274 121.432 102.241 124.771C101.803 126.162 101.406 127.593 101.008 128.985C100.531 130.614 100.651 131.886 102.797 132.125C104.904 132.363 105.222 133.953 104.864 135.623C104.466 137.65 104.307 139.677 104.109 141.744C103.831 144.765 101.803 146.712 99.1402 147.786C96.5167 148.819 93.7343 149.535 91.0314 150.369C90.3159 150.608 89.4017 150.369 89.0042 151.641C92.5418 152.913 95.841 152.476 98.9414 150.449C99.5774 150.012 100.134 149.415 100.77 149.018C101.565 148.541 102.439 148.461 103.274 149.018C104.148 149.574 104.188 150.489 103.99 151.363C103.195 154.98 100.849 157.127 97.3515 158.12C93.5753 159.194 93.8138 159.154 94.569 163.009C95.364 167.223 96.954 171.277 97.272 175.61C97.3912 177.24 97.749 178.988 95.7615 179.545C93.9728 180.022 93.6946 178.193 93.0586 177.041C92.7009 176.484 92.6214 175.809 91.6276 175.65ZM117.305 33.6273C115.079 36.052 113.132 38.0792 110.469 38.9536C99.0606 42.69 87.613 43.2068 76.2051 38.9536C74.178 38.1984 73.5022 38.5562 72.906 40.5436C70.1633 49.7653 67.8976 59.0268 67.3014 68.7255C66.7847 77.3907 68.5336 85.1417 73.7407 92.217C78.8683 99.2525 86.3013 104.42 90.2364 112.449C90.8724 113.721 91.8264 113.801 92.6611 112.449C94.0523 110.104 96.1192 108.474 98.3849 107.043C102.439 104.46 106.692 102.194 110.548 99.332C116.749 94.7211 120.803 88.5998 121.121 80.5706C121.28 76.3572 120.843 72.1439 120.644 67.9305C120.048 56.6419 119.015 45.4725 117.305 33.6273Z" fill="black"/>
<path d="M47.0306 170.243C38.1667 171.197 29.0245 171.118 20.1605 173.701C15.3906 175.093 10.3823 175.609 5.45347 176.444C3.66478 176.762 1.95558 176.166 1.3196 174.417C0.683616 172.708 1.79657 171.237 3.26728 170.522C13.8404 165.314 24.4534 160.584 36.855 161.538C44.129 162.095 51.4427 163.049 58.7963 162.294C63.3276 161.817 66.9845 159.909 70.6812 157.643C72.9071 156.291 75.3715 155.576 77.8757 155.139C79.5054 154.861 81.2543 155.338 81.771 157.007C82.407 158.994 80.7376 159.789 79.1874 160.227C76.6037 160.982 74.3778 162.413 72.1916 163.884C67.6205 166.944 62.6519 168.812 57.1268 169.17C53.7879 169.448 50.608 170.879 47.0306 170.243Z" fill="black"/>
<path d="M129.588 14.8672C130.94 14.9069 132.053 14.907 132.569 16.1392C133.086 17.3714 132.689 18.5638 131.655 19.2793C128.833 21.2667 125.772 22.7772 122.314 23.1349C120.883 23.2939 119.532 22.9362 118.975 21.386C118.379 19.7563 119.333 18.8023 120.565 18.0074C123.348 16.0597 126.528 15.2647 129.588 14.8672Z" fill="black"/>
<path d="M116.987 7.03461C117.066 9.0618 117.185 11.1287 116.51 13.1162C115.953 14.7061 114.92 15.9781 113.171 15.8588C111.422 15.7396 111.263 14.0701 111.104 12.7584C110.587 8.94256 111.899 5.48446 113.171 1.98657C113.489 1.15185 114.085 0.436322 115.158 0.635066C116.231 0.833809 116.907 1.58907 116.987 2.66229C117.066 4.09324 116.987 5.56391 116.987 7.03461Z" fill="black"/>
<path d="M116.989 75.7606C117.665 83.7898 115.16 90.7459 107.727 95.5157C92.7422 105.175 79.7841 96.1914 74.5373 85.181C72.4306 80.7689 71.5164 76.3171 72.8281 71.5075C73.2653 69.8778 74.1398 68.7648 75.6105 67.9301C78.9096 66.0619 82.3678 64.8694 86.1836 64.8297C93.0602 64.8297 99.4995 62.9615 105.82 60.497C112.418 57.9134 115.598 60.0201 116.512 67.0556C116.87 69.838 117.029 72.5807 116.989 75.7606Z" fill="#BD1823"/>
</svg>
