<svg width="193" height="201" viewBox="0 0 193 201" fill="none" xmlns="http://www.w3.org/2000/svg">
<path d="M72.3639 57.6969C73.0142 58.0654 73.5562 58.3039 74.0115 58.6508C74.8136 59.2361 74.922 60.0599 74.1849 60.6886C73.3828 61.3824 72.9275 62.2495 72.3205 63.0517C71.5617 64.0489 70.4994 64.6776 69.2854 65.0462C68.635 65.2413 68.0063 65.3714 68.7217 66.2819C69.0469 66.7155 68.7217 67.2358 68.3532 67.561C67.963 67.9078 67.5077 68.2113 67.0524 68.4715C66.4237 68.8617 65.3615 69.0568 65.188 69.5771C64.8628 70.4877 66.1419 70.4226 66.6189 70.9212C68.3315 72.6989 67.7245 75.7774 65.2964 77.1865C63.9306 77.9887 62.4348 78.3356 60.8739 78.4873C60.5053 78.5307 60.0284 78.5307 59.985 78.9859C59.9417 79.5062 60.4836 79.4412 60.8088 79.5062C64.6894 80.3734 67.1392 82.9966 68.7868 86.3569C70.5428 89.9123 68.9169 94.5083 65.4482 96.5461C58.6409 100.557 51.0748 98.3238 46.5655 93.2292C44.7445 91.1696 44.7445 86.3785 46.4355 84.2973C46.7173 83.9288 47.0642 83.712 47.5411 83.7987C48.0614 83.8854 48.4083 84.2106 48.5167 84.7309C48.5817 84.9911 48.6034 85.2512 48.5817 85.5331C48.5384 90.0424 49.5356 91.5382 53.6547 92.969C56.9933 94.1397 60.2668 94.2915 63.2802 92.1019C65.1013 90.7794 65.4482 88.6765 64.1041 86.8988C62.9334 85.3596 61.611 83.9721 60.05 82.8015C59.3563 82.2812 58.9227 82.1511 58.5542 83.1917C58.0989 84.5358 56.3863 85.0561 54.5002 84.4708C52.9826 83.9938 53.5463 82.8231 53.6763 81.7825C53.7847 81.0671 54.4568 80.2 53.8281 79.7013C53.3078 79.2894 52.5707 80.0265 51.942 80.3084C49.7307 81.2623 47.5194 82.1728 45.2648 83.0399C40.517 84.8827 35.856 84.6225 31.195 82.7798C29.1138 81.956 27.0325 81.1105 24.973 80.2C20.4854 78.2488 15.8677 78.7908 11.2717 79.4629C10.1011 79.6363 8.95205 79.8531 7.78137 79.7013C7.08764 79.6146 6.35054 79.3978 6.30719 78.509C6.26383 77.6201 6.97925 77.2733 7.6513 77.1649C10.3179 76.6663 13.0061 76.211 15.716 75.8641C21.1141 75.1921 26.1003 76.7963 31.0215 78.5307C33.5146 79.4195 36.0078 80.1349 38.6526 80.2C40.1268 80.2216 41.4709 79.6146 42.7934 79.0943C45.1781 78.1404 47.4977 77.0781 49.8608 76.0592C50.0125 75.9942 50.1426 75.9075 50.2944 75.8641C51.3133 75.4522 54.847 72.3954 55.389 71.5066C55.6275 71.1164 55.7359 70.7695 55.2589 70.5961C53.3728 69.9674 52.5057 68.5582 52.3756 66.477C51.2699 67.084 50.6629 67.8428 50.0342 68.5582C48.56 70.1842 46.7607 71.3115 44.8312 72.2437C44.4627 72.4171 44.0508 72.5906 43.6389 72.6556C42.8801 72.7423 42.0563 72.764 41.7311 71.8751C41.4276 71.0296 42.143 70.5744 42.7066 70.2492C44.5927 69.1869 46.1753 67.7561 47.7579 66.3036C49.102 65.0678 50.1426 63.572 50.9881 61.946C52.8309 58.3473 55.6925 55.8108 59.2696 54.0114C60.7871 53.2527 62.218 52.2771 63.6705 51.3666C64.0824 51.1064 64.9062 50.868 64.6244 50.3043C64.2992 49.6539 63.5187 50.1525 63.0635 50.3476C60.8955 51.2798 58.7926 52.2988 56.6464 53.2743C54.305 54.3149 51.942 55.3556 49.7741 56.743C49.4706 56.9381 49.1237 57.1549 48.7768 57.2199C48.0614 57.3717 47.2376 57.6752 46.6956 56.9381C46.1753 56.2227 46.7607 55.6374 47.1075 55.052C47.8663 53.7513 49.1671 52.9708 50.0559 51.6484C49.1454 51.9085 48.1915 52.0603 47.346 52.4288C42.5115 54.4667 37.9155 56.9598 33.4279 59.6697C29.1354 62.2712 24.6262 63.7888 19.4015 62.7482C15.1957 61.9027 10.9466 60.9705 6.56734 61.1656C5.00644 61.2306 3.4672 61.274 1.94965 61.6642C1.19088 61.8593 0.345398 62.0544 0.0635675 61.0789C-0.218263 60.06 0.475475 59.4529 1.386 59.2361C3.74904 58.6508 6.17711 58.9109 8.56183 58.7592C12.8977 58.499 17.1902 59.2795 21.5043 59.3012C24.5178 59.3228 27.1193 58.2389 29.504 56.7864C38.1323 51.5183 47.1726 47.2692 57.1017 45.0579C58.0772 44.8411 59.1178 44.9712 60.1151 44.9278C60.5703 44.9061 61.1557 45.253 61.4158 44.6893C61.6326 44.2341 61.0906 43.9522 60.8739 43.6054C59.2262 40.9822 57.6436 38.3373 56.7114 35.3239C55.1072 30.0992 56.2562 25.1563 58.1423 20.3002C59.0962 17.8721 60.2668 15.5091 61.3508 13.1244C62.1096 11.4551 63.1935 9.98086 64.4726 8.68011C65.0796 8.07309 65.7083 7.46608 66.5755 7.27097C67.6378 7.0325 68.3749 6.79404 68.2448 5.31985C68.1147 3.86734 70.4994 2.45817 72.6674 2.34977C75.1605 2.21969 77.5669 2.5449 79.9082 3.45543C83.7238 4.92962 87.8212 5.73173 91.2465 8.20316C92.2221 8.8969 93.0675 9.67735 93.5662 10.783C93.7179 11.1082 93.8914 11.5201 94.1732 11.7152C97.0348 13.6664 97.3817 16.6798 97.3817 19.6932C97.3817 25.0696 96.2327 30.251 94.3466 35.3239C93.2843 38.1639 91.9402 40.7654 89.9891 43.0851C87.019 46.5971 83.0301 48.3098 78.7809 49.6105C78.1739 49.8057 77.5452 49.9574 76.9165 50.0875C75.6591 50.3693 74.5101 50.5211 75.8976 52.2337C76.6997 53.2527 76.1794 54.4884 75.3339 55.4423C74.5751 56.3528 73.5562 57.0248 72.3639 57.6969ZM60.1584 29.4922C60.2018 32.5273 60.7438 35.1938 62.0662 37.7303C63.3886 40.2451 64.7328 42.7165 66.4237 44.9929C66.9441 45.7083 66.4454 46.7706 67.2042 47.1391C68.2665 47.6594 68.505 49.0902 69.2637 49.3721C70.261 49.7406 70.7162 48.1363 71.6268 47.5727C73.7947 46.2286 76.1577 45.4481 78.4557 44.4726C82.2062 42.8466 85.5665 40.722 87.4743 36.9282C90.3576 31.2265 91.8535 25.1563 92.1137 18.7826C92.157 17.8721 91.7451 17.9588 91.1381 18.1973C90.1625 18.5875 89.3387 19.2813 88.168 19.2813C84.8945 19.2379 81.881 18.3274 78.976 16.8532C76.0493 15.379 73.5996 13.1677 70.7162 11.6502C68.505 10.4795 67.3343 10.8047 66.1202 12.9726C65.123 14.7503 64.1041 16.5063 63.3019 18.3707C61.741 21.9912 60.1368 25.6333 60.1584 29.4922ZM74.6619 7.83462C74.6185 7.92133 74.5752 8.02974 74.5535 8.11646C75.6158 8.78851 76.678 9.50395 77.7837 10.1326C80.6237 11.7369 83.507 13.2328 86.8022 13.7097C87.3225 13.7747 87.9946 13.8615 88.168 13.2328C88.3198 12.6691 87.7128 12.4523 87.3009 12.2355C84.7427 10.8697 81.9894 10.0459 79.2362 9.15705C77.697 8.68011 76.1794 8.2682 74.6619 7.83462ZM60.05 74.585C60.8522 74.585 61.3725 74.6067 61.9145 74.585C62.5865 74.5417 63.2369 74.2815 63.3887 73.5878C63.5621 72.7857 62.825 72.5689 62.3047 72.2437C61.4158 71.68 60.5704 71.7667 59.7682 72.3304C59.0962 72.7856 57.8171 73.0458 57.9905 73.9347C58.2073 75.0186 59.4864 74.455 60.05 74.585Z" fill="black"/>
<path d="M130.29 103.137C133.954 103.137 137.639 103.115 141.303 103.137C143.818 103.137 146.311 103.202 148.826 103.223C156.088 103.245 161.573 107.212 167.08 111.288C173.367 115.949 180.195 119.504 188.13 120.502C189.149 120.632 190.125 120.87 191.057 121.282C191.555 121.499 192.054 121.781 191.989 122.431C191.924 123.06 191.425 123.277 190.905 123.45C189.626 123.884 188.369 123.602 187.089 123.428C184.076 123.016 181.041 123.125 178.028 122.366C173.323 121.174 169.594 118.355 165.757 115.624C162.115 113.022 158.95 109.792 154.766 107.949C151.709 106.605 148.5 106.15 145.227 106.128C140.111 106.107 134.973 106.302 129.856 106.107C129.271 106.085 128.686 106.063 127.862 106.779C132.913 105.673 137.01 108.166 141.39 108.99C143.167 109.315 144.988 109.402 146.788 109.597C147.958 109.727 149.129 109.814 150.17 110.464C150.69 110.811 151.059 111.245 150.95 111.917C150.82 112.632 150.278 112.849 149.649 112.871C145.899 112.979 142.213 112.654 138.571 111.483C135.905 110.616 133.303 109.489 130.398 109.489C132.436 111.548 134.864 112.805 137.682 113.347C144.295 114.627 149.324 118.182 152.858 123.905C153.313 124.621 153.638 125.488 152.815 126.051C151.861 126.702 150.907 126.29 150.321 125.379C149.086 123.407 147.612 121.716 145.834 120.176C143.427 118.095 140.566 117.228 137.574 116.599C136.122 116.296 134.604 116.101 133.26 115.429C131.981 114.8 130.788 113.998 129.553 112.827C129.379 114.345 128.989 115.472 127.818 116.318C128.707 116.361 129.596 116.491 130.463 116.426C132.198 116.296 133.737 116.903 135.189 117.705C137.249 118.854 137.791 120.74 136.729 122.865C136.533 123.255 136.187 123.688 136.403 124.057C137.227 125.379 137.075 126.724 136.902 128.198C136.772 129.325 138.094 129.39 138.962 129.455C142.56 129.737 146.029 130.539 149.389 131.84C151.536 132.664 153.552 133.791 155.655 134.723C157.367 135.482 159.188 135.764 161.096 135.959C166.061 136.436 171.003 135.872 175.968 136.176C180.781 136.479 185.464 137.52 190.19 138.365C190.45 138.409 190.71 138.517 190.948 138.604C191.577 138.842 192.162 139.189 192.032 139.991C191.902 140.75 191.317 141.054 190.623 141.075C188.065 141.14 185.485 141.119 182.927 140.967C178.83 140.728 174.732 140.533 170.635 140.381C164.89 140.186 159.058 140.425 153.66 137.867C152.945 137.52 152.164 137.238 151.557 136.739C149.303 134.897 146.549 134.16 143.948 133.076C142.864 132.62 141.65 132.642 140.522 132.273C139.482 131.927 139.287 132.815 139.655 133.509C140.219 134.593 140.934 135.59 141.628 136.609C141.975 137.13 142.517 136.869 142.951 136.783C146.983 135.937 150.69 139.905 150.994 143.308C151.254 146.213 150.343 148.793 148.37 150.983C144.815 154.907 140.392 157.096 135.103 157.053C128.512 157.009 125.239 151.113 128.469 145.346C129.574 143.373 131.092 141.704 132.783 140.208C132.978 140.035 133.217 139.883 133.433 139.753C135.319 138.799 135.319 138.799 134.474 136.739C134.344 136.436 134.192 136.154 134.127 135.851C133.78 134.051 132.675 133.184 130.919 132.555C128.404 131.645 126.041 130.214 124.892 127.612C124.198 126.073 123.829 124.426 122.269 123.407C121.77 123.081 121.662 122.258 122.052 121.629C122.615 120.697 123.483 121.022 124.675 121.39C123.244 119.851 122.073 118.681 121.662 116.968C121.51 116.361 120.859 116.383 120.339 116.231C116.328 115.125 115.461 112.068 118.301 109.033C118.865 108.426 119.992 107.798 119.732 107.082C119.45 106.28 118.193 106.822 117.391 106.649C113.879 105.933 110.822 104.524 108.134 101.988C105.034 99.0825 103.278 95.5054 102.042 91.6248C101.153 88.8282 100.806 85.9015 100.438 82.9965C99.8522 78.3788 99.5053 73.7611 99.3752 69.1001C99.3536 68.363 99.4186 67.6042 99.527 66.8672C99.6354 66.1084 99.9606 65.4797 100.893 65.7398C101.305 65.8482 101.565 65.7182 101.89 65.4797C105.857 62.5096 110.237 60.2983 115.028 59.0192C118.583 58.0654 122.16 57.7185 125.781 58.7374C127.255 59.1493 128.209 60.0165 128.577 61.5124C128.902 62.8131 129.509 63.9838 130.181 65.1545C133.824 71.6149 136.685 78.4005 138.051 85.7281C139.135 91.6032 137.162 96.4376 132.653 100.297C131.764 101.055 130.94 101.857 130.095 102.66C130.181 102.855 130.225 102.985 130.29 103.137ZM134.062 89.587C133.997 89.0233 133.932 88.5464 133.867 88.0695C133 81.2405 130.268 75.0402 127.472 68.8399C126.865 67.4958 126.323 67.3874 125.109 68.2113C121.662 70.5526 117.716 71.7016 113.64 71.81C110.41 71.8967 107.115 71.5499 103.95 70.7261C102.844 70.4225 102.649 70.9212 102.779 71.8967C103.191 75.1269 103.451 78.3788 103.928 81.5873C104.665 86.4218 105.142 91.3213 107.787 95.6789C110.388 99.9497 113.987 102.443 119.017 102.898C120.643 103.05 122.334 102.963 123.808 103.982C124.436 104.416 124.892 104.134 125.195 103.483C126.865 99.928 129.639 97.2398 132.176 94.3564C133.368 92.9906 133.954 91.3213 134.062 89.587ZM140.067 140.425C140.067 140.728 140.046 140.88 140.067 141.032C140.262 142.051 141.498 143.221 140.067 144.002C138.636 144.804 137.986 143.286 137.357 142.419C136.772 141.617 136.295 141.704 135.666 142.181C133.672 143.633 132.176 145.519 131.526 147.882C130.767 150.592 132.024 152.218 134.799 152.544C138.181 152.955 144.338 149.465 145.725 146.365C146.766 144.045 145.791 141.53 143.493 140.62C143.211 141.14 143.493 142.051 142.647 142.181C141.368 142.376 140.891 141.205 140.067 140.425ZM104.34 67.3658C108.155 67.7777 111.646 68.1896 115.158 67.8427C117.803 67.5826 120.252 66.7587 122.507 65.3496C123.374 64.8076 124.523 64.0922 124.306 63.1383C124.068 62.0977 122.68 62.4012 121.77 62.4229C115.873 62.5963 110.345 64.2873 105.055 66.7804C104.882 66.8671 104.752 67.0406 104.34 67.3658ZM122.941 113.456C123.634 113.347 124.393 113.673 124.653 113.022C124.87 112.459 124.155 112.155 123.851 111.765C123.613 111.483 123.374 111.18 123.092 110.963C122.615 110.616 122.225 109.814 121.51 110.269C120.794 110.703 119.992 111.288 119.971 112.155C119.949 113.087 121.011 112.827 121.575 113.131C121.987 113.347 122.55 113.369 122.941 113.456Z" fill="black"/>
<path d="M104.296 13.3425C103.234 13.3208 102.15 13.3858 101.109 13.0606C100.394 12.8222 99.8516 12.4319 99.8516 11.6081C99.8516 10.8493 100.198 10.2423 100.936 9.98218C103.364 9.13669 105.792 9.41853 108.155 10.264C108.718 10.4591 109.087 11.0011 109.087 11.6515C109.087 12.2802 108.567 12.5186 108.068 12.7788C106.876 13.3641 105.575 13.2774 104.296 13.3425Z" fill="black"/>
<path d="M88.9696 76.4069C87.4738 76.4069 86.9318 75.5831 87.4304 74.5641C87.799 73.8054 88.406 73.2851 89.078 72.8732C90.6823 71.8542 92.1565 70.5752 94.1076 70.1849C94.7363 70.0549 95.4301 69.9465 95.8203 70.6402C96.1888 71.2689 95.7986 71.8326 95.365 72.2011C93.3705 74.0222 91.2243 75.6481 88.9696 76.4069Z" fill="black"/>
<path d="M95.4097 66.2176C93.4586 66.0008 91.7459 66.4127 90.0549 65.8707C88.9493 65.5021 87.9737 65.0902 88.2339 63.7028C88.494 62.402 89.5129 62.0551 90.6836 62.2719C92.4613 62.5754 94.2824 62.8139 95.8866 63.7244C96.4937 64.0713 97.5343 64.2014 97.2524 65.1986C96.9923 66.1959 95.9734 66.1525 95.4097 66.2176Z" fill="black"/>
<path d="M100.679 59.8872C100.657 60.7977 100.527 61.2963 99.9415 61.5348C99.4212 61.7516 98.966 61.5564 98.6408 61.1879C97.3183 59.6487 95.9526 58.1311 95.1504 56.2234C94.6301 54.966 95.3239 54.0338 96.2994 53.5568C97.3184 53.0582 98.1855 53.7302 98.5974 54.6841C99.3779 56.5052 100.072 58.3479 100.679 59.8872Z" fill="black"/>
<path d="M97.4454 6.77286C97.4238 4.82172 100.047 1.13624 101.673 0.659293C102.54 0.399142 103.321 1.04952 103.104 1.98173C102.562 4.25805 101.304 6.18752 99.8302 7.96522C99.4833 8.37713 98.898 8.57224 98.356 8.33376C97.6406 8.00858 97.5105 7.29316 97.4454 6.77286Z" fill="black"/>
<path d="M74.9864 42.8689C67.7239 42.8906 61.8488 36.5385 62.4124 29.5145C62.5425 27.7368 64.0384 26.1108 65.9245 25.5905C68.4176 24.8968 70.8674 25.2003 73.122 26.2626C75.355 27.3032 77.4579 27.0864 79.6475 26.3927C80.9699 25.9808 82.249 25.3954 83.6364 25.222C86.7366 24.8534 88.4059 26.7178 87.6471 29.818C86.975 32.5062 85.3708 34.7392 83.9616 37.0589C82.7042 39.0967 80.9916 40.6793 78.8887 41.85C77.5879 42.5654 76.2438 42.999 74.9864 42.8689Z" fill="#BD1823"/>
<path d="M130.227 87.6361C130.119 90.7362 129.468 93.3377 127.712 95.4623C125.241 98.4323 121.794 99.0177 118.238 98.5624C113.166 97.912 110.391 94.4 108.439 90.0641C107.984 89.0452 107.681 87.9396 107.442 86.8556C106.857 84.2975 107.464 83.0617 109.827 81.9561C111.605 81.1323 113.491 80.7854 115.442 81.219C119.518 82.1079 123.593 82.975 127.756 83.3219C128.579 83.3869 129.121 83.8639 129.468 84.5793C130.01 85.6633 130.335 86.7689 130.227 87.6361Z" fill="#BD1823"/>
<path d="M78.7791 186.993C78.3238 187.904 78.649 188.858 78.4105 189.725C78.2588 190.31 78.0853 190.896 77.4133 191.047C76.7846 191.199 76.4377 190.765 76.1125 190.31C74.9418 188.684 72.4704 189.508 71.1046 190.679C70.1941 191.459 68.8283 192.305 69.3269 193.822C69.8255 195.296 71.3214 195.47 72.6438 195.622C77.6951 196.185 82.5729 195.795 86.9088 192.825C88.7082 191.589 88.7082 190.505 86.9521 189.226C86.215 188.684 85.4129 188.229 84.7842 187.6C83.852 186.646 84.2205 185.389 85.4779 185.151C87.7976 184.739 91.6565 185.346 92.979 188.446C94.1063 191.134 93.1741 194.364 90.6159 196.402C87.4291 198.917 83.7219 200.044 79.798 200.413C76.7195 200.695 73.5977 200.76 70.5626 199.914C68.0478 199.22 65.9233 197.985 65.1862 195.383C64.4708 192.825 65.2295 190.549 67.2674 188.728C69.2836 186.928 71.4515 185.562 74.2915 185.866C75.3104 185.974 75.4405 185.432 75.4188 184.609C75.3537 182.267 74.8768 179.926 75.809 177.628C76.0475 177.043 75.5272 176.912 75.202 176.674C73.3376 175.178 73.1641 174.051 74.5083 172.013C75.3104 170.777 74.5083 168.739 73.3809 167.829C71.3648 166.203 69.999 167.33 68.5898 168.566C65.6198 171.189 62.1511 172.728 58.2705 173.357C57.902 173.422 57.5334 173.487 57.1649 173.509C56.3844 173.53 55.3438 173.812 55.1053 172.793C54.8669 171.731 55.8207 171.167 56.6662 170.864C58.1838 170.344 59.8097 170.149 61.2622 169.498C65.5114 167.547 69.1101 164.555 72.7522 161.694C73.9229 160.761 75.3537 160.003 76.2426 158.073C74.0964 158.984 72.2753 159.677 70.5409 160.545C67.9828 161.802 65.468 163.103 62.4763 162.647C61.4574 162.496 60.4818 162.192 59.6797 161.542C59.116 161.087 58.7258 160.436 59.0943 159.699C59.4629 158.94 60.1783 159.135 60.7853 159.374C62.9098 160.198 64.9043 159.569 66.8338 158.724C69.1752 157.683 71.4948 156.577 73.8145 155.472C74.3782 155.212 75.137 155.016 74.7034 154.128C74.3565 153.412 74.2264 152.48 72.969 152.675C67.2674 153.564 61.8476 155.277 56.7529 157.965C53.3276 159.764 50.3142 162.127 47.1057 164.252C42.0327 167.612 36.3961 168.913 30.3043 168.089C29.4588 167.981 28.8518 167.59 28.8084 166.701C28.7434 165.683 29.5455 165.444 30.3043 165.379C32.212 165.227 34.1198 165.097 36.0276 164.859C40.6886 164.252 44.6343 162.149 48.3631 159.461C51.7017 157.054 55.1053 154.886 58.9642 153.26C62.4329 151.786 65.9016 150.55 69.5437 149.705C70.7577 149.423 70.8228 149.011 69.8255 147.949C67.5275 145.478 65.3163 142.963 63.777 139.928C62.7364 137.89 62.0861 135.7 61.9343 133.489C61.5007 127.679 62.3028 121.977 63.9288 116.384C64.5358 114.281 65.0127 112.135 66.2051 110.249C66.6387 109.555 67.159 108.948 67.766 108.428C68.1346 108.103 68.7632 107.712 69.0668 108.016C70.3675 109.36 72.0802 108.905 73.5977 109.121C77.5434 109.707 81.489 109.338 85.3696 108.449C85.8682 108.341 86.4318 108.233 86.9088 107.734C86.0199 107.127 85.001 107.149 84.0688 107.127C80.7085 106.975 77.3482 107.257 73.988 107.539C73.0341 107.604 71.9935 107.799 71.755 106.628C71.4948 105.371 72.6872 105.154 73.5327 105.002C77.0447 104.374 80.5134 103.376 84.1338 103.506C86.15 103.572 88.1879 103.181 90.139 104.005C91.6132 104.634 92.8706 105.458 93.5643 106.953C93.6944 107.235 93.8678 107.582 94.128 107.712C96.3609 108.84 96.7728 111.029 97.0764 113.11C97.5316 116.232 97.7484 119.376 97.8351 122.519C97.9435 126.031 98.1603 129.565 98.3121 133.077C98.5939 140.123 95.4938 145.347 89.7488 149.25C87.8843 150.507 85.9766 151.678 84.0471 152.805C83.4184 153.174 83.1583 153.521 83.7653 154.149C85.1961 155.667 85.1311 157.423 84.5674 159.244C84.3289 160.003 84.1122 160.783 83.8954 161.542C83.6352 162.431 83.7002 163.124 84.8709 163.254C86.0199 163.385 86.1934 164.252 85.9983 165.162C85.7815 166.268 85.6947 167.374 85.5863 168.501C85.4346 170.148 84.329 171.211 82.8764 171.796C81.4456 172.36 79.9281 172.75 78.4539 173.205C78.0636 173.335 77.565 173.205 77.3482 173.899C79.2777 174.593 81.0771 174.354 82.768 173.249C83.1149 173.01 83.4184 172.685 83.7653 172.468C84.1989 172.208 84.6758 172.165 85.1311 172.468C85.608 172.772 85.6297 173.27 85.5213 173.747C85.0877 175.72 83.8087 176.891 81.9009 177.433C79.8414 178.018 79.9714 177.996 80.3833 180.099C80.8169 182.397 81.6841 184.609 81.8575 186.972C81.9226 187.86 82.1177 188.814 81.0337 189.118C80.0581 189.378 79.9064 188.381 79.5595 187.752C79.3644 187.449 79.321 187.08 78.7791 186.993ZM92.7839 109.533C91.5698 110.856 90.5075 111.961 89.055 112.438C82.8331 114.476 76.5895 114.758 70.3675 112.438C69.2619 112.026 68.8933 112.222 68.5681 113.306C67.0723 118.335 65.8366 123.386 65.5114 128.676C65.2295 133.402 66.1834 137.63 69.0234 141.489C71.82 145.326 75.8741 148.144 78.0203 152.523C78.3672 153.217 78.8875 153.26 79.3427 152.523C80.1015 151.244 81.2288 150.355 82.4645 149.575C84.6758 148.166 86.9955 146.93 89.0984 145.369C92.4804 142.854 94.6916 139.516 94.8651 135.137C94.9518 132.839 94.7133 130.541 94.6049 128.243C94.2797 122.086 93.7161 115.994 92.7839 109.533Z" fill="black"/>
<path d="M54.4567 184.044C49.6222 184.565 44.636 184.521 39.8015 185.93C37.2 186.689 34.4684 186.971 31.7802 187.426C30.8046 187.6 29.8724 187.274 29.5255 186.321C29.1787 185.388 29.7857 184.586 30.5878 184.196C36.3545 181.356 42.1429 178.776 48.9068 179.297C52.8741 179.6 56.8631 180.12 60.8737 179.708C63.3451 179.448 65.3397 178.408 67.3558 177.172C68.5699 176.435 69.914 176.045 71.2798 175.806C72.1686 175.654 73.1225 175.915 73.4043 176.825C73.7512 177.909 72.8407 178.343 71.9952 178.581C70.586 178.993 69.372 179.773 68.1796 180.576C65.6865 182.245 62.9766 183.264 59.9632 183.459C58.1421 183.611 56.4078 184.391 54.4567 184.044Z" fill="black"/>
<path d="M99.4816 99.3008C100.219 99.3225 100.826 99.3225 101.107 99.9945C101.389 100.667 101.173 101.317 100.609 101.707C99.0696 102.791 97.4003 103.615 95.5143 103.81C94.7338 103.897 93.9967 103.702 93.6932 102.856C93.368 101.967 93.8883 101.447 94.5604 101.013C96.0779 99.9512 97.8123 99.5176 99.4816 99.3008Z" fill="black"/>
<path d="M92.6113 95.0291C92.6547 96.1348 92.7197 97.2621 92.3512 98.3461C92.0477 99.2132 91.484 99.907 90.5301 99.8419C89.5762 99.7769 89.4895 98.8664 89.4028 98.151C89.121 96.0698 89.8364 94.1837 90.5301 92.2759C90.7036 91.8206 91.0288 91.4304 91.6141 91.5388C92.1994 91.6472 92.568 92.0591 92.6113 92.6444C92.6547 93.4249 92.6113 94.227 92.6113 95.0291Z" fill="black"/>
<path d="M92.6094 132.513C92.9779 136.892 91.6121 140.686 87.5581 143.287C79.3851 148.555 72.3176 143.656 69.4559 137.651C68.3069 135.244 67.8083 132.816 68.5237 130.193C68.7622 129.304 69.2392 128.697 70.0413 128.242C71.8407 127.223 73.7268 126.573 75.808 126.551C79.5585 126.551 83.0705 125.532 86.5175 124.188C90.1163 122.779 91.8506 123.928 92.3492 127.765C92.5444 129.283 92.6311 130.778 92.6094 132.513Z" fill="#BD1823"/>
</svg>
