<svg width="211" height="201" viewBox="0 0 211 201" fill="none" xmlns="http://www.w3.org/2000/svg">
<path d="M2.51038 57.8882C6.40634 70.8044 20.0134 78.1357 32.9487 74.2398C45.8649 70.363 53.1963 56.7367 49.3003 43.8014C45.4043 30.8852 31.7973 23.5539 18.8619 27.4498C5.94577 31.3458 -1.38559 44.9721 2.51038 57.8882Z" fill="#BA8A52"/>
<path d="M83.4432 33.5337C87.3392 46.4499 100.946 53.7812 113.882 49.8853C126.798 46.0085 134.129 32.3822 130.233 19.4469C126.337 6.5307 112.73 -0.800623 99.7948 3.09534C86.8978 6.9913 79.5665 20.6176 83.4432 33.5337Z" fill="#BA8A52"/>
<path d="M20.2274 97.6731C29.1517 127.363 62.6225 143.561 94.9801 133.831C127.338 124.1 146.338 92.1266 137.394 62.4367C128.451 32.7468 94.9993 16.5488 62.6418 26.2791C30.2842 36.0094 11.3032 67.9832 20.2274 97.6731Z" fill="#BA8A52"/>
<path d="M98.0514 29.1578C99.51 34.0134 104.634 36.777 109.509 35.3184C114.364 33.8598 117.128 28.7356 115.67 23.8608C114.211 19.0053 109.087 16.2416 104.212 17.7002C99.3372 19.1588 96.5928 24.2831 98.0514 29.1578Z" fill="#D3A76D"/>
<path d="M17.0967 53.4928C18.5553 58.3483 23.6797 61.112 28.5544 59.6534C33.41 58.1948 36.1736 53.0705 34.715 48.1958C33.2564 43.3402 28.1322 40.5766 23.2575 42.0352C18.4019 43.513 15.6381 48.6372 17.0967 53.4928Z" fill="#D3A76D"/>
<path d="M94.4431 63.2037C95.2108 65.7562 97.8977 67.1957 100.45 66.428C103.003 65.6603 104.442 62.9734 103.675 60.4209C102.907 57.8684 100.22 56.429 97.6675 57.1967C95.1342 57.9643 93.6755 60.6512 94.4431 63.2037Z" fill="#2B2523"/>
<path d="M99.3726 59.9983C99.5646 60.6124 100.198 60.9579 100.793 60.766C101.407 60.5741 101.752 59.9407 101.561 59.3266C101.388 58.7125 100.735 58.367 100.14 58.5589C99.5454 58.7508 99.1999 59.3842 99.3726 59.9983Z" fill="white"/>
<path d="M47.2479 77.4059C48.0155 79.9584 50.7024 81.3978 53.2549 80.6301C55.8075 79.8624 57.2467 77.1756 56.479 74.623C55.7114 72.0705 53.0245 70.6311 50.472 71.3988C47.9386 72.1665 46.4802 74.8534 47.2479 77.4059Z" fill="#2B2523"/>
<path d="M52.182 74.1819C52.3547 74.796 53.0072 75.1415 53.6021 74.9496C54.2163 74.7577 54.5618 74.1243 54.3699 73.5102C54.1971 72.8961 53.5446 72.5506 52.9497 72.7425C52.3355 72.9344 51.99 73.5869 52.182 74.1819Z" fill="white"/>
<path d="M37.1358 93.6617C38.5944 98.5173 43.7185 101.281 48.5933 99.8223C53.4489 98.3637 56.2124 93.2395 54.7538 88.3647C53.2952 83.5092 48.1711 80.7455 43.2963 82.2041C38.4407 83.6627 35.6772 88.8062 37.1358 93.6617Z" fill="#F5B7B6"/>
<path d="M103.48 73.7017C104.938 78.5573 110.063 81.321 114.937 79.8624C119.793 78.4038 122.556 73.2795 121.098 68.4048C119.639 63.5492 114.515 60.7856 109.64 62.2442C104.785 63.7219 102.021 68.8462 103.48 73.7017Z" fill="#F5B7B6"/>
<path d="M98.1274 72.3204C100.354 79.7477 93.2719 88.4224 82.3133 91.7234C71.3547 95.0244 60.6647 91.685 58.4192 84.2578C56.1929 76.8497 63.6011 69.2689 74.5597 65.9679C85.5375 62.6668 95.9012 64.8931 98.1274 72.3204Z" fill="#D3A76D"/>
<path d="M71.7195 74.6614C72.2952 76.5806 75.0203 77.4634 77.8032 76.619C80.586 75.7937 82.371 73.5482 81.7952 71.6291C81.2195 69.7099 78.8397 69.9977 76.0761 70.823C73.2741 71.6674 71.1437 72.7422 71.7195 74.6614Z" fill="#2B2523"/>
<path d="M75.9787 138.09C49.8201 138.09 26.1948 122.545 18.8443 98.0944C16.5988 90.6479 16.023 82.952 17.117 75.1984C9.421 72.4156 3.49076 66.1782 1.11096 58.3095C-0.885003 51.6883 -0.174827 44.7025 3.10699 38.5994C6.36962 32.5156 11.8201 28.0631 18.4413 26.0671C27.8262 23.2459 37.9786 25.9903 44.6765 33.053C50.0887 29.5025 55.9806 26.7772 62.218 24.8964C68.4554 23.0156 74.8848 22.056 81.3525 22.0176C83.0414 12.4216 90.0079 4.53376 99.3928 1.71255C106.014 -0.283413 113 0.426676 119.084 3.7085C125.168 6.99032 129.62 12.4216 131.616 19.0429C133.977 26.9115 132.48 35.3944 127.586 41.958C132.768 47.8307 136.548 54.5671 138.775 62.0136C147.929 92.4328 128.449 125.251 95.4009 135.192C88.914 137.15 82.3696 138.09 75.9787 138.09ZM25.8878 27.8519C23.6807 27.8519 21.4543 28.1782 19.2857 28.8307C13.3937 30.5964 8.55742 34.5499 5.65944 39.9621C2.74226 45.3742 2.12804 51.5924 3.89369 57.4651C6.10077 64.8156 11.8201 70.554 19.1706 72.8186C19.8615 73.0298 20.2838 73.7207 20.1686 74.4308C18.902 82.1651 19.401 89.8419 21.6273 97.25C30.3212 126.134 63.0432 141.91 94.5948 132.429C126.146 122.948 144.743 91.7227 136.05 62.8388C133.823 55.4307 129.985 48.752 124.669 42.9944C124.189 42.457 124.15 41.6509 124.611 41.0944C129.486 35.1449 131.079 27.2186 128.872 19.8681C127.106 13.9954 123.152 9.13983 117.74 6.24184C112.328 3.34386 106.11 2.71052 100.237 4.47618C91.5434 7.08628 85.1907 14.6095 84.0392 23.6489C83.9433 24.3782 83.3291 24.9156 82.619 24.9156H82.5998C76.0362 24.8196 69.4343 25.7408 63.0818 27.66C56.7292 29.5792 50.7221 32.4196 45.2908 36.1429C44.6767 36.5651 43.8706 36.4499 43.3908 35.8934C38.9191 30.7115 32.4898 27.8519 25.8878 27.8519Z" fill="#2B2523"/>
<path d="M120.082 135.672C120.082 135.672 147.219 154.422 167.524 138.512C185.545 124.387 165.49 111.356 156.719 107.287C147.43 102.969 133.075 102.681 124.803 106.961C119.487 109.724 116.589 115.827 116.666 118.322" fill="#BA8A52"/>
<path d="M148.542 146.305C133.15 146.305 119.447 136.997 119.236 136.862L120.867 134.482C121.136 134.674 147.371 152.427 166.601 137.38C171.495 133.542 173.722 129.569 173.261 125.577C172.455 118.553 163.492 112.047 156.065 108.592C146.949 104.37 133.208 104.198 125.416 108.247C120.483 110.8 117.988 116.5 118.065 118.265L115.186 118.361C115.071 115.137 118.487 108.592 124.091 105.675C132.574 101.28 147.467 101.415 157.274 105.982C160.211 107.345 174.893 114.657 176.121 125.251C176.716 130.318 174.106 135.173 168.367 139.664C162.111 144.577 155.182 146.305 148.542 146.305Z" fill="#2B2523"/>
<path d="M149.601 185.015C149.966 191.963 127.416 198.814 99.2226 200.311C71.0297 201.808 47.8843 197.375 47.5005 190.427C47.1358 183.48 69.6863 176.628 97.8793 175.131C126.072 173.634 149.218 178.049 149.601 185.015Z" fill="#9C9B9A"/>
<path d="M49.3793 129.147V180.774C49.3793 180.774 49.149 192.788 59.743 193.479C70.3369 194.189 79.9905 195.36 86.343 186.416C92.6955 177.473 92.9449 172.291 101.639 172.291C110.352 172.291 109.181 178.413 110.582 181.714C112.003 185.015 115.764 191.137 128.009 188.777C140.253 186.416 143.074 183.365 143.304 168.299C143.535 153.233 143.304 108.267 143.304 108.267" fill="#BA8A52"/>
<path d="M69.1668 195.398C66.6142 195.398 63.9658 195.206 61.2789 195.033L59.6669 194.918C50.2052 194.285 47.8639 185.361 47.9598 180.735V129.147H50.8386V180.774C50.8386 181.234 50.7809 191.444 59.8587 192.059L61.49 192.174C71.2203 192.845 79.6266 193.421 85.1922 185.61C86.7468 183.422 87.9174 181.465 88.973 179.737C92.1972 174.402 94.3275 170.871 101.678 170.871C109.623 170.871 110.66 175.707 111.332 178.912C111.504 179.757 111.677 180.563 111.946 181.158C114.421 186.915 119.584 188.949 127.76 187.376C138.834 185.245 141.655 183.096 141.885 168.28C142.115 153.406 141.885 108.727 141.885 108.286L144.764 108.267C144.764 108.708 144.994 153.425 144.764 168.337C144.514 183.768 141.597 187.644 128.297 190.216C118.855 192.039 112.272 189.295 109.278 182.309C108.913 181.445 108.702 180.467 108.491 179.526C107.838 176.436 107.263 173.769 101.659 173.769C95.9204 173.769 94.5195 176.11 91.4296 181.234C90.3548 183 89.1457 185.015 87.5336 187.28C82.7548 193.978 76.287 195.398 69.1668 195.398Z" fill="#2B2523"/>
<path d="M123.825 142.063C123.825 156.284 112.751 167.819 99.0861 167.819C85.4214 167.819 74.3477 156.284 74.3477 142.063C74.3477 127.842 85.4214 116.308 99.0861 116.308C112.751 116.288 123.825 127.823 123.825 142.063Z" fill="#D3A76D"/>
<path d="M157.43 62.4555C157.43 62.4555 162.497 34.5889 153.534 24.9545C144.572 15.301 116.513 32.7464 112.617 39.5596C109.009 45.8737 96.2846 80.3424 94.423 85.3899C94.2695 85.8121 94.1735 86.2344 94.1159 86.6758L80.7584 191.003C80.4129 193.632 83.3494 195.417 85.4221 193.786C105.996 177.722 176.545 122.334 180.883 114.773C185.949 105.906 213.912 64.9121 210.4 55.0091C207.751 47.5818 188.502 28.6586 181.689 37.4293C174.856 46.2 157.43 62.4555 157.43 62.4555Z" fill="#BD1823"/>
<path d="M63.7139 155.249C63.7139 155.249 96.6857 154.692 103.921 129.915C110.35 107.941 86.4563 109.035 76.9371 110.839C66.8806 112.739 55.0392 120.857 50.817 129.167C48.0917 134.502 49.3008 141.162 50.817 143.139" fill="#BA8A52"/>
<path d="M63.7348 156.688L63.6772 153.809C64.0034 153.809 95.6893 152.964 102.522 129.512C104.268 123.543 103.769 119.014 101.063 116.039C96.3034 110.8 85.2298 110.723 77.1884 112.258C67.3237 114.139 56.0581 122.008 52.0662 129.819C49.552 134.751 50.8378 140.854 51.9125 142.255L49.6288 144.021C47.652 141.468 46.6155 134.156 49.4943 128.514C53.8317 120.012 65.9994 111.433 76.6317 109.418C79.7984 108.823 96.0157 106.213 103.174 114.101C106.61 117.881 107.301 123.332 105.266 130.318C97.8581 155.805 64.0802 156.668 63.7348 156.688Z" fill="#2B2523"/>
</svg>
