<svg width="222" height="24" viewBox="0 0 222 24" fill="none" xmlns="http://www.w3.org/2000/svg">
<rect width="48" height="24" rx="2" fill="#F5F5F5"/>
<path d="M29.5537 7C30.6837 7.00005 31.5889 7.23234 32.166 7.44824L31.7705 9.75684L31.5088 9.63477C30.9712 9.41848 30.2812 9.21077 29.3271 9.22559C28.1866 9.22568 27.6592 9.7006 27.6592 10.1426C27.6524 10.6415 28.2764 10.9715 29.2959 11.4648C30.9765 12.2246 31.7528 13.1471 31.7422 14.3594C31.72 16.5711 29.7307 17.9998 26.667 18C25.3599 17.9869 24.1015 17.7285 23.4199 17.4316L23.8291 15.0459L24.2051 15.2158C25.1621 15.6136 25.7817 15.7744 26.9482 15.7744C27.7859 15.7744 28.6842 15.4477 28.6914 14.7334C28.6973 14.2673 28.3154 13.9334 27.1816 13.4121C26.0758 12.9014 24.6123 12.0487 24.6279 10.5166C24.645 8.44599 26.674 7 29.5537 7ZM41.999 17.8447H39.2939C39.2939 17.8447 39.0267 16.621 38.9395 16.248C38.514 16.248 35.5436 16.2441 35.207 16.2441C35.0944 16.5307 34.599 17.831 34.5938 17.8447H31.5322L35.8604 8.08008C36.1677 7.38569 36.6896 7.19629 37.3877 7.19629H39.6396L41.999 17.8447ZM21.5947 17.8418H18.6816L20.5039 7.18555H23.418L21.5947 17.8418ZM19.3232 7.19336L14.7354 17.8291L11.6514 17.833L9.04297 8.5127C10.893 9.4358 12.5483 11.2806 13.0791 12.9834L13.3838 14.46L16.2363 7.19336H19.3232ZM37.5938 10.0684C37.4465 10.468 37.1906 11.1134 37.208 11.085C37.208 11.085 36.2873 13.4505 36.0459 14.0645H38.4658C38.3493 13.5329 37.7954 11.0115 37.79 10.9873L37.5938 10.0684Z" fill="#1A1F71"/>
<path fill-rule="evenodd" clip-rule="evenodd" d="M10.7374 7.18652H6.03703L6 7.40797C9.65663 8.29077 12.0762 10.422 13.0804 12.9835L12.0583 8.08587C11.8821 7.41094 11.37 7.20986 10.7374 7.18652Z" fill="#F9A51A"/>
<rect x="58" width="48" height="24" rx="2" fill="#F5F5F5"/>
<path fill-rule="evenodd" clip-rule="evenodd" d="M87.8068 21C92.8843 21 97.0004 16.9706 97.0004 12C97.0004 7.02944 92.8843 3 87.8068 3C82.7294 3 78.6133 7.02944 78.6133 12C78.6133 16.9706 82.7294 21 87.8068 21Z" fill="#F79E1B"/>
<path fill-rule="evenodd" clip-rule="evenodd" d="M76.1935 21C81.271 21 85.3871 16.9706 85.3871 12C85.3871 7.02944 81.271 3 76.1935 3C71.1161 3 67 7.02944 67 12C67 16.9706 71.1161 21 76.1935 21Z" fill="#EB001B"/>
<path d="M82 5.02344C84.0668 6.67378 85.3867 9.1864 85.3867 12.001C85.3866 14.8151 84.0664 17.3263 82 18.9766C79.9337 17.3263 78.6134 14.815 78.6133 12.001C78.6133 9.1865 79.9334 6.67378 82 5.02344Z" fill="#FF5F00"/>
<rect x="116" width="48" height="24" rx="2" fill="#F5F5F5"/>
<path d="M131.317 8.87207C131.657 8.88697 132.613 9.0075 133.226 9.88477C133.177 9.91493 132.086 10.5355 132.099 11.8281C132.113 13.372 133.484 13.8865 133.5 13.8936C133.487 13.9315 133.28 14.6273 132.777 15.3457C132.342 15.9672 131.891 16.5868 131.18 16.5996C130.48 16.6123 130.255 16.1943 129.456 16.1943C128.657 16.1944 128.407 16.587 127.746 16.6123C127.06 16.6372 126.537 15.9399 126.099 15.3203C125.202 14.0535 124.517 11.7393 125.436 10.1768C125.893 9.40106 126.71 8.90975 127.597 8.89746C128.271 8.88526 128.907 9.34082 129.319 9.34082C129.731 9.34072 130.504 8.79217 131.317 8.87207ZM131.328 6.4043C131.395 7.00234 131.15 7.60258 130.785 8.03418C130.42 8.46567 129.822 8.80131 129.237 8.75684C129.157 8.17107 129.452 7.56019 129.79 7.17773C130.167 6.74652 130.803 6.42554 131.328 6.4043Z" fill="#2A2D2E"/>
<path d="M137.418 16H138.489V12.9353H140.655C142.268 12.9353 143.41 11.7986 143.41 10.1681V10.1562C143.41 8.52563 142.268 7.41281 140.655 7.41281H137.418V16ZM140.381 8.36496C141.607 8.36496 142.315 9.03741 142.315 10.1681V10.18C142.315 11.3107 141.607 11.9831 140.381 11.9831H138.489V8.36496H140.381ZM145.929 16.1131C146.791 16.1131 147.464 15.7382 147.869 15.0538H147.964V16H148.999V11.6082C148.999 10.2752 148.124 9.47183 146.559 9.47183C145.191 9.47183 144.215 10.1502 144.048 11.1559L144.042 11.1917H145.078L145.084 11.1738C145.25 10.6739 145.756 10.3883 146.524 10.3883C147.482 10.3883 147.964 10.8167 147.964 11.6082V12.1914L146.125 12.3045C144.631 12.3937 143.786 13.0543 143.786 14.1969V14.2088C143.786 15.3752 144.709 16.1131 145.929 16.1131ZM144.846 14.185V14.1731C144.846 13.5363 145.274 13.1912 146.25 13.1317L147.964 13.0245V13.6077C147.964 14.5242 147.196 15.2145 146.143 15.2145C145.399 15.2145 144.846 14.8336 144.846 14.185ZM150.571 18.2495C151.708 18.2495 152.238 17.8329 152.767 16.3928L155.273 9.5849H154.184L152.428 14.8634H152.333L150.571 9.5849H149.465L151.839 16.006L151.72 16.3868C151.488 17.1247 151.131 17.3925 150.542 17.3925C150.399 17.3925 150.238 17.3866 150.113 17.3628V18.2137C150.256 18.2375 150.435 18.2495 150.571 18.2495Z" fill="#2A2D2E"/>
<rect x="174" width="48" height="24" rx="2" fill="#F5F5F5"/>
<g clip-path="url(#clip0_7040_32025)">
<path d="M192.36 12.104C192.36 11.7638 192.33 11.4241 192.269 11.0889H187.285V13.0105H190.139C190.08 13.3172 189.957 13.6095 189.776 13.8699C189.594 14.1303 189.359 14.3533 189.084 14.5255V15.7761H190.787C191.785 14.9077 192.36 13.623 192.36 12.104Z" fill="#4285F4"/>
<path d="M187.284 16.9807C188.708 16.9807 189.911 16.5381 190.786 15.7756L189.082 14.5274C188.608 14.8325 187.998 15.0048 187.284 15.0048C185.906 15.0048 184.735 14.1276 184.317 12.9453H182.562V14.2313C183.002 15.0578 183.676 15.7526 184.51 16.2381C185.344 16.7237 186.304 16.9808 187.284 16.9807Z" fill="#34A853"/>
<path d="M184.318 12.9453C184.097 12.3258 184.097 11.6548 184.318 11.0353V9.74902H182.563C182.193 10.4446 182 11.2123 182 11.9909C182 12.7695 182.193 13.5372 182.563 14.2328L184.318 12.9453Z" fill="#FBBC04"/>
<path d="M197.135 12.8634V16.3796H195.953V7.693H199.086C199.46 7.68541 199.832 7.74795 200.181 7.87701C200.529 8.00606 200.847 8.19907 201.116 8.44487C201.383 8.67998 201.596 8.96455 201.742 9.28085C201.888 9.59715 201.963 9.93841 201.963 10.2834C201.963 10.6283 201.888 10.9696 201.742 11.2859C201.596 11.6022 201.383 11.8867 201.116 12.1219C200.567 12.6156 199.891 12.862 199.086 12.8612H197.135L197.135 12.8634ZM197.135 8.76361V11.7964H199.117C199.431 11.8019 199.74 11.7198 200.005 11.5604C200.271 11.401 200.48 11.1714 200.608 10.9001C200.736 10.6289 200.777 10.3281 200.725 10.0353C200.673 9.74243 200.531 9.47052 200.316 9.25347C200.306 9.2431 200.296 9.23303 200.284 9.22297C200.135 9.07236 199.954 8.95341 199.752 8.87401C199.551 8.7946 199.334 8.75656 199.115 8.76239L197.135 8.76361ZM204.687 10.2433C205.561 10.2433 206.25 10.4635 206.755 10.9039C207.259 11.3444 207.511 11.9486 207.512 12.7166V16.3796H206.382V15.556H206.331C205.841 16.2356 205.19 16.5752 204.378 16.5748C203.685 16.5748 203.105 16.3807 202.638 15.9925C202.414 15.8143 202.235 15.5911 202.114 15.3394C201.993 15.0876 201.933 14.8135 201.938 14.537C201.938 13.9217 202.184 13.4326 202.677 13.0698C203.169 12.7071 203.826 12.5253 204.647 12.5245C205.348 12.5245 205.927 12.6465 206.38 12.8878V12.6321C206.382 12.4437 206.339 12.2573 206.254 12.0866C206.17 11.9158 206.046 11.7649 205.893 11.6448C205.58 11.3786 205.173 11.2335 204.752 11.2385C204.092 11.2385 203.57 11.5013 203.185 12.027L202.146 11.4066C202.717 10.6306 203.564 10.2428 204.687 10.2433H204.687ZM203.158 14.5608C203.157 14.7026 203.193 14.8425 203.261 14.969C203.329 15.0954 203.428 15.2048 203.549 15.2879C203.811 15.482 204.135 15.5849 204.468 15.5792C204.966 15.5779 205.444 15.3907 205.796 15.0583C206.188 14.7101 206.383 14.3017 206.383 13.833C206.015 13.5558 205.501 13.4171 204.842 13.4167C204.362 13.4167 203.962 13.5259 203.641 13.7442C203.318 13.9672 203.156 14.2368 203.156 14.5608H203.158ZM214.001 10.4382L210.056 19H208.836L210.3 16.0038L207.705 10.4382H208.989L210.862 14.7084H210.888L212.712 10.4382H214.001Z" fill="#5F6368"/>
<path d="M187.284 8.97621C188.037 8.96457 188.765 9.23321 189.31 9.72411L190.819 8.30029C189.863 7.45211 188.596 6.98627 187.284 7.00031C186.304 7.0005 185.344 7.25766 184.51 7.74309C183.677 8.22852 183.002 8.92314 182.562 9.74943L184.317 11.0357C184.735 9.85344 185.906 8.97621 187.284 8.97621Z" fill="#EA4335"/>
</g>
<defs>
<clipPath id="clip0_7040_32025">
<rect width="32" height="12" fill="white" transform="translate(182 7)"/>
</clipPath>
</defs>
</svg>
