<svg width="53" height="32" viewBox="0 0 53 32" fill="none" xmlns="http://www.w3.org/2000/svg">
<path d="M18.9742 25.3417H33.4961C33.9138 25.3417 34.3144 25.1758 34.6098 24.8804C34.9052 24.585 35.0711 24.1844 35.0711 23.7667L40.5555 3.68546C40.5555 3.47704 40.5141 3.27069 40.4338 3.07837C40.3535 2.88605 40.2358 2.71159 40.0876 2.56509C39.9393 2.41859 39.7635 2.30297 39.5702 2.22493C39.3769 2.14689 39.1701 2.10798 38.9617 2.11046H15.1586C14.74 2.11046 14.3384 2.27609 14.0416 2.5712C13.7447 2.8663 13.5767 3.26689 13.5742 3.68546L8.88672 23.7667C8.88672 24.1844 9.05266 24.585 9.34803 24.8804C9.6434 25.1758 10.044 25.3417 10.4617 25.3417H12.5055" stroke="#F09EC6" stroke-width="2.8125"/>
<path d="M37.7063 25.3422H34.4531L39.1406 9.13281H46.8469C46.9628 9.13255 47.0774 9.15758 47.1826 9.20616C47.2879 9.25473 47.3812 9.32568 47.4563 9.41406L50.8125 15.3203C50.9328 15.458 50.9993 15.6344 51 15.8172L47.8781 25.3422H44.5031" stroke="#F09EC6" stroke-width="2.8125"/>
<path d="M15.818 29.8889C17.7389 29.8889 19.2961 28.3107 19.2961 26.3639C19.2961 24.4171 17.7389 22.8389 15.818 22.8389C13.8971 22.8389 12.3398 24.4171 12.3398 26.3639C12.3398 28.3107 13.8971 29.8889 15.818 29.8889Z" stroke="#F09EC6" stroke-width="2.8125"/>
<path d="M41.1656 29.8889C43.0865 29.8889 44.6438 28.3107 44.6438 26.3639C44.6438 24.4171 43.0865 22.8389 41.1656 22.8389C39.2447 22.8389 37.6875 24.4171 37.6875 26.3639C37.6875 28.3107 39.2447 29.8889 41.1656 29.8889Z" stroke="#F09EC6" stroke-width="2.8125"/>
<path d="M20.4461 6.72266H5.08984" stroke="#F09EC6" stroke-width="2.8125" stroke-linecap="round"/>
<path d="M17.4211 11.6357H6.57422" stroke="#F09EC6" stroke-width="2.8125" stroke-linecap="round"/>
<path d="M18.5164 17.167H1.66016" stroke="#F09EC6" stroke-width="2.8125" stroke-linecap="round"/>
</svg>
