<svg width="120" height="325" viewBox="0 0 120 325" fill="none" xmlns="http://www.w3.org/2000/svg">
<path d="M100.14 251.521C100.314 251.521 100.506 251.538 100.68 251.538C107.974 251.538 114.293 245.393 114.293 237.803C114.293 232.25 110.724 227.48 106.163 225.304C110.707 223.128 114.293 218.359 114.293 212.805C114.293 205.215 107.974 199.07 100.68 199.07C100.506 199.07 100.314 199.07 100.14 199.088C100.14 199.088 91.4709 198.304 82.0183 207.948C77.6314 212.335 73.4535 217.227 66.8906 225.304C73.4535 233.382 77.614 238.273 82.0183 242.66C91.4709 252.287 100.14 251.521 100.14 251.521Z" fill="#BD1823"/>
<path d="M32.3011 98.8863L35.6435 89.6252C36.4616 87.4492 39.717 88.4937 39.1425 90.7219L36.5661 100.227C35.6957 103.169 31.3263 101.793 32.3011 98.8863Z" fill="black"/>
<path d="M35.765 0.704336C43.7031 13.0293 50.9623 25.7372 57.5774 38.8107C60.5542 44.9906 63.9139 51.1879 65.6895 57.9596C67.03 65.1144 62.6954 72.2691 64.0184 79.0583C69.589 86.9964 76.5175 94.6037 82.941 102.02C92.7766 112.952 103.274 123.136 112.187 134.886C114.955 138.751 118.071 142.267 119.55 147.02C120.455 151.198 117.653 155.793 115.32 158.265C111.16 163.052 105.519 166.029 100.628 169.633C96.9197 172.766 96.0841 177.762 98.6431 181.975C100.924 186.031 103.483 190.174 106.163 193.813C106.79 194.526 106.703 195.658 105.92 196.215C105.345 196.633 104.597 196.615 104.04 196.232C101.794 194.666 100.053 192.942 98.3123 191.062C92.0976 184.673 87.4845 176.404 93.2292 168.014C97.529 161.782 105.485 159.432 110.115 153.652C111.682 151.824 112.709 150.17 112.674 148.482C106.616 137.515 96.4149 127.122 87.6064 117.53C80.8521 110.393 74.4284 102.994 68.2137 95.4045C64.8888 90.9828 60.3627 86.4045 57.8559 81.3213C55.6451 74.271 59.6489 67.1685 59.7011 60.3445C59.6837 58.3078 58.796 56.5148 58.0996 54.5128C54.5658 45.7565 50.1267 37.0525 45.8965 28.3658C41.6315 19.6618 37.2621 10.9751 33.1016 2.18403C32.736 1.41807 33.0493 0.512848 33.8153 0.147277C34.5116 -0.183477 35.3472 0.060236 35.765 0.704336Z" fill="black"/>
<path d="M91.454 163.61C86.2142 164.846 80.9396 166.97 76.5875 170.26C75.7694 170.921 74.5334 170.765 73.9241 169.894C73.4715 169.233 73.5063 168.397 73.9589 167.788C74.9163 166.465 76.0479 165.229 77.3013 164.185C79.7036 161.887 92.7423 154.523 93.6997 160.529C93.926 161.991 92.8989 163.349 91.454 163.61Z" fill="black"/>
<path d="M62.8877 156.82C61.5647 163.487 61.2687 171.756 67.6923 175.899C69.2591 176.874 68.0753 179.259 66.3693 178.58C57.23 175.342 56.29 163.453 60.172 155.81C60.9206 154.226 63.3577 155.149 62.8877 156.82Z" fill="black"/>
<path d="M3.0555 90.9651C9.11352 92.8452 15.1889 95.3868 21.2817 96.9013C25.9993 97.4235 31.0477 96.9535 35.8523 97.0928C38.655 97.1102 39.038 101.184 36.305 101.741C30.2295 102.681 23.8234 104.039 17.748 102.263C11.8814 100.453 6.58937 98.0676 1.22767 95.2301C0.0961426 94.6208 -0.339128 93.1934 0.287564 92.0618C0.809807 91.0522 1.99361 90.617 3.0555 90.9651Z" fill="black"/>
<path d="M51.6069 66.141C37.9067 66.7503 23.4057 66.5762 10.1059 70.0056C8.24323 70.5453 7.14657 67.847 8.85256 66.9418C18.7056 61.7542 30.0034 60.5704 40.9357 60.2223C44.574 60.1526 48.16 60.2571 51.8505 60.6401C53.365 60.7967 54.4618 62.1546 54.3226 63.6691C54.1659 65.0791 52.9821 66.141 51.6069 66.141Z" fill="black"/>
<path d="M106.252 256.256C100.682 266.022 98.2097 271.679 105.834 280.94C109.159 285.362 114.086 290.132 114.121 296.26C114.295 308.289 105.486 319.169 94.1188 322.407C83.7262 325.488 72.6372 323.573 62.1227 322.807C56.9699 322.337 51.8867 321.937 46.8557 322.145C45.6894 322.198 44.6972 321.292 44.6624 320.126C44.6102 318.977 45.4806 318.02 46.6121 317.933C51.9564 317.532 57.2832 317.793 62.4709 318.089C81.1672 319.378 105.974 321.71 106.67 296.329C106.931 288.757 97.113 280.906 95.1981 272.933C94.1884 268.459 95.4418 263.445 97.7919 259.703C98.993 257.788 104.25 251.155 106.339 254.271C106.74 254.933 106.635 255.681 106.252 256.256Z" fill="black"/>
</svg>
