<svg width="146" height="280" viewBox="0 0 146 280" fill="none" xmlns="http://www.w3.org/2000/svg">
<path d="M14.1528 151.88C13.9787 151.88 13.7872 151.862 13.6132 151.862C6.31916 151.862 0 158.007 0 165.597C0 171.15 3.56872 175.92 8.11224 178.096C3.56872 180.272 0 185.042 0 190.595C0 198.185 6.31916 204.33 13.6132 204.33C13.7872 204.33 13.9787 204.33 14.1528 204.313C14.1528 204.313 22.8221 205.096 32.2747 195.452C36.6616 191.065 40.8394 186.174 47.4023 178.096C40.8394 170.019 36.679 165.127 32.2747 160.74C22.8221 151.114 14.1528 151.88 14.1528 151.88Z" fill="#BD1823"/>
<path d="M13.8931 206.367C21.3612 210.737 32.1195 217.874 30.0653 227.988C27.5934 238.503 21.2916 248.512 22.7539 259.236C24.3206 267.052 33.7558 267.627 40.336 269.106C51.3032 271.004 62.5663 271.578 73.7075 272.675C79.5218 273.319 85.1098 273.667 90.8544 275.373C91.9511 275.704 92.5604 276.87 92.2296 277.967C91.8989 279.046 90.7674 279.656 89.7055 279.36C84.5179 278.228 78.7384 278.071 73.3419 277.758C61.9918 277.201 50.6766 276.853 39.3439 275.217C24.4425 273.058 13.6146 268.271 16.4173 250.967C17.81 242.193 21.7268 234.586 24.2858 226.578C24.5643 225.621 24.6514 224.837 24.4425 223.828C22.5451 217.944 16.9396 213.731 11.839 209.832C9.73259 208.439 11.6301 205.166 13.8931 206.367Z" fill="black"/>
<path d="M94.0398 67.0327C92.5078 74.5878 95.6065 81.9862 104.084 82.404C111.03 82.6477 119.351 81.847 124.434 76.7638C126.593 73.874 130.98 77.0249 128.891 80.0017C128.264 80.7851 127.881 81.0636 127.376 81.5162C120.5 87.1042 106.73 88.5491 98.6355 85.2764C91.15 82.4214 89.1306 73.3344 91.0629 66.2493C91.6026 64.2822 94.5098 65.0481 94.0398 67.0327Z" fill="black"/>
<path d="M97.328 76.8675C103.491 78.6431 110.21 78.2427 116.581 77.7205L123.318 76.9545C124.955 76.7456 125.529 79.1654 123.98 79.7224C117.295 82.1247 109.966 83.2911 102.881 82.1944C100.949 81.7592 93.4808 80.6102 95.152 77.5116C95.622 76.7456 96.5447 76.5541 97.328 76.8675Z" fill="black"/>
<path d="M28.1835 115.548C32.5181 116.367 51.9805 123.887 46.0617 130.136C44.4776 131.599 41.8664 131.233 40.7522 129.388C39.4466 127.281 37.3054 125.279 34.903 123.556C32.4659 121.833 29.698 120.266 26.9824 119.065C24.9108 118.177 26.0249 114.991 28.1835 115.548Z" fill="black"/>
<path d="M103.006 29.6394C116.95 27.063 131.694 32.0243 141.582 42.0165C142.992 43.4092 144.176 44.9933 145.447 46.5078C146.073 47.3086 145.951 48.4575 145.151 49.0842C144.385 49.6935 143.323 49.5891 142.661 48.9101C132.495 38.6916 118.203 32.8599 103.772 33.8695C101.021 34.2351 100.29 30.2138 103.006 29.6394Z" fill="black"/>
<path d="M81.7648 85.5885C80.9814 85.5885 80.3199 84.9966 80.2503 84.1958C80.1632 83.3603 80.7899 82.6117 81.6255 82.5246C86.8653 82.0198 92.9581 80.5053 93.6544 79.0605C94.02 78.2945 94.9253 77.9811 95.6913 78.3467C96.4572 78.7123 96.7705 79.6349 96.4049 80.3835C94.6293 84.0914 84.8633 85.2926 81.904 85.5885C81.8691 85.5885 81.817 85.5885 81.7648 85.5885Z" fill="black"/>
<path d="M83.7669 89.54C83.088 89.54 82.4787 89.1048 82.2872 88.4259C82.0609 87.6077 82.5309 86.7721 83.3491 86.5458C88.4323 85.1358 94.3859 82.9075 95.1518 81.8804C95.5 81.1145 96.3878 80.8011 97.1537 81.1493C97.9197 81.4975 98.2504 82.4375 97.9023 83.2035C96.8055 85.658 88.8327 88.1996 84.1673 89.5052C84.0455 89.5226 83.9061 89.54 83.7669 89.54Z" fill="black"/>
<path d="M92.0541 90.812C91.4796 90.812 90.9226 90.4812 90.6615 89.9241C90.2959 89.1582 90.6441 88.253 91.41 87.8874C93.1682 87.0692 98.1121 84.3536 99.8007 81.7249C100.253 81.0112 101.211 80.8023 101.924 81.2723C102.638 81.7249 102.847 82.6824 102.377 83.3961C99.8529 87.3129 92.9941 90.5334 92.6982 90.6727C92.4893 90.7597 92.263 90.812 92.0541 90.812Z" fill="black"/>
<path d="M107.687 2.48268C100.15 8.87146 93.6913 16.9836 90.053 26.1925C87.9118 31.9198 86.6584 37.9082 84.6391 43.827C82.1149 52.0436 77.258 59.9817 70.8344 65.796C58.1265 76.8153 43.2077 84.8405 28.7068 93.1964C26.9834 94.1538 22.2484 96.7476 20.5598 97.6703C16.6255 99.707 12.2561 103.815 12.2735 107.871C12.9698 110.9 14.8152 113.738 16.3819 116.506C19.6372 122.285 25.3644 127.717 23.9544 134.976C22.7358 142.148 16.2426 147.005 10.4457 149.929C9.40118 150.469 8.13036 150.051 7.59071 149.007C7.08588 148.032 7.41671 146.831 8.32193 146.256C16.9912 140.285 22.7706 134.14 15.024 124.722C11.7861 119.57 7.88674 114.591 6.59854 108.446C6.25038 102.37 10.4108 97.7573 14.7803 94.3627C17.9311 92.2737 22.5617 89.9411 25.8171 88.0262C36.5579 81.9333 47.1246 75.5968 57.3606 68.738C63.8886 64.2989 70.1381 59.2854 74.3509 52.6181C79.8693 44.0707 81.2967 33.591 85.2831 24.208C89.7048 14.355 97.173 6.03394 106.138 0.202222C107.548 -0.633368 109.167 1.31634 107.687 2.48268Z" fill="black"/>
</svg>
