<svg width="152" height="146" viewBox="0 0 152 146" fill="none" xmlns="http://www.w3.org/2000/svg">
<path d="M77.5649 38.6111C77.5649 38.6111 71.965 19.4011 63.255 16.1311C54.545 12.8611 42.315 32.7511 42.005 38.2911C41.715 43.4211 44.575 69.2311 44.995 73.0211C45.035 73.3411 45.0949 73.6311 45.2049 73.9311L69.735 144.091C70.355 145.851 72.7649 146.061 73.5649 144.371C81.4849 127.721 108.585 70.4111 108.925 64.2611C109.325 57.0611 114.045 22.3011 108.695 17.1611C104.685 13.3011 86.525 7.43112 84.985 15.1211C83.455 22.8211 77.5649 38.6111 77.5649 38.6111Z" fill="#BD1823"/>
<path d="M78.5664 65.3624C78.5664 65.3624 80.8865 61.1824 88.2365 61.9724C94.7164 62.6724 96.6165 67.2624 96.6165 67.2624C96.6165 67.2624 93.2264 71.0524 87.5864 70.4524C81.9564 69.8524 80.3664 68.1524 78.5664 65.3624Z" fill="white"/>
<path d="M70.236 64.7325C70.236 64.7325 67.256 60.3125 61.726 60.3125C56.206 60.3125 53.7759 62.3025 52.8359 64.4025C52.8359 64.4025 54.986 69.4825 61.896 69.0925C68.806 68.7025 70.236 64.7325 70.236 64.7325Z" fill="white"/>
<path d="M88.8043 71.5119C88.3743 71.5119 87.9343 71.4919 87.4843 71.4419C81.3043 70.7919 79.5443 68.7319 77.7243 65.9019C77.5243 65.5919 77.5143 65.2019 77.6943 64.8819C77.8043 64.6819 80.4143 60.1219 88.3543 60.9819C95.3443 61.7319 97.4643 66.6719 97.5443 66.8819C97.6943 67.2319 97.6243 67.6419 97.3643 67.9319C97.2243 68.0819 94.0843 71.5119 88.8043 71.5119ZM79.7843 65.3919C81.2343 67.5619 82.7043 68.9219 87.7043 69.4519C91.6243 69.8619 94.3244 67.9819 95.3844 67.0619C94.6744 65.9219 92.6244 63.4519 88.1444 62.9719C82.9844 62.4119 80.6043 64.4419 79.7843 65.3919Z" fill="#12100B"/>
<path d="M86.3665 61.8711L85.5664 70.1511L89.3264 70.5011L89.7164 62.2111L86.3665 61.8711Z" fill="#12100B"/>
<path d="M89.324 71.0016C89.304 71.0016 89.2941 71.0016 89.2741 71.0016L85.5141 70.6516C85.3841 70.6416 85.254 70.5716 85.174 70.4716C85.094 70.3716 85.054 70.2316 85.064 70.1016L85.8741 61.8216C85.8841 61.6916 85.954 61.5616 86.054 61.4816C86.154 61.4016 86.284 61.3616 86.424 61.3716L89.7641 61.7116C90.0241 61.7416 90.224 61.9716 90.214 62.2316L89.824 70.5216C89.814 70.6616 89.7541 70.7816 89.6541 70.8716C89.5541 70.9516 89.444 71.0016 89.324 71.0016ZM86.104 69.7016L88.844 69.9516L89.184 62.6616L86.814 62.4216L86.104 69.7016Z" fill="#12100B"/>
<path d="M61.1454 70.1118C54.2654 70.1118 52.0153 65.0118 51.9253 64.7818C51.8153 64.5318 51.8253 64.2418 51.9353 63.9818C52.8953 61.8518 55.3654 59.3018 61.7454 59.3018C67.7354 59.3018 70.9453 63.9618 71.0753 64.1618C71.2553 64.4218 71.2953 64.7618 71.1853 65.0618C71.1153 65.2518 69.4354 69.6618 61.9654 70.0818C61.6754 70.1018 61.4054 70.1118 61.1454 70.1118ZM53.9654 64.3918C54.5954 65.4718 56.7754 68.3818 61.8454 68.0918C66.6254 67.8218 68.4653 65.7718 69.0653 64.8318C68.1853 63.7818 65.6854 61.3118 61.7354 61.3118C57.7954 61.3118 55.1254 62.3718 53.9654 64.3918Z" fill="#12100B"/>
<path d="M60.2832 60.3613L60.1133 69.0713L63.6033 68.9113V60.4913L60.2832 60.3613Z" fill="#12100B"/>
<path d="M60.1133 69.5724C59.9833 69.5724 59.8533 69.5224 59.7633 69.4324C59.6633 69.3324 59.6133 69.2024 59.6133 69.0624L59.7832 60.3524C59.7832 60.2224 59.8432 60.0924 59.9432 60.0024C60.0432 59.9124 60.1632 59.8524 60.3032 59.8624L63.6233 59.9924C63.8933 60.0024 64.1033 60.2224 64.1033 60.4924V68.9124C64.1033 69.1824 63.8933 69.4024 63.6233 69.4124L60.1333 69.5724C60.1333 69.5724 60.1233 69.5724 60.1133 69.5724ZM60.7733 60.8824L60.6233 68.5524L63.1033 68.4424V60.9824L60.7733 60.8824Z" fill="#12100B"/>
<path d="M75.7144 79.4516C68.4444 79.4516 62.6344 77.0116 60.4344 75.9516L60.3244 75.8916C60.0644 75.7916 59.8444 75.5816 59.7444 75.3016C59.5544 74.7816 59.8244 74.2116 60.3444 74.0216C60.7544 73.8716 61.0444 74.0116 61.3244 74.1516C64.5144 75.7016 75.8445 80.3416 87.7645 74.8316C88.2645 74.6016 88.8644 74.8216 89.0944 75.3216C89.3244 75.8216 89.1044 76.4216 88.6044 76.6516C84.1044 78.7216 79.6944 79.4516 75.7144 79.4516Z" fill="#12100B"/>
<path d="M110.863 93.9011C110.863 93.9011 109.343 105.401 114.253 107.451C119.163 109.491 123.603 108.241 128.873 104.031C134.143 99.8211 136.973 95.1411 137.743 94.0111C136.563 92.7911 128.683 88.1511 110.863 93.9011Z" fill="#D73328"/>
<path d="M118.644 109.432C117.414 109.432 116.174 109.242 114.924 108.822C112.904 108.152 111.434 106.762 110.534 104.702C106.444 95.2815 116.064 74.0515 116.474 73.1515C116.704 72.6515 117.294 72.4315 117.804 72.6615C118.304 72.8915 118.524 73.4815 118.294 73.9915C118.194 74.2015 108.624 95.3115 112.364 103.912C113.034 105.452 114.074 106.432 115.554 106.932C128.694 111.312 141.784 85.4416 141.914 85.1816C142.164 84.6916 142.764 84.4915 143.254 84.7315C143.744 84.9815 143.954 85.5815 143.704 86.0715C143.194 87.1015 131.884 109.432 118.644 109.432Z" fill="#12100B"/>
<path d="M137.347 89.1519C135.067 89.1519 131.967 88.522 127.837 86.522C119.107 82.302 116.967 77.6619 116.457 75.8719C116.117 74.6919 116.157 73.6819 116.557 73.0419C117.747 71.1519 123.947 69.942 133.567 75.522C136.357 77.142 145.337 82.682 143.727 86.052C143.527 86.472 142.717 87.882 140.497 88.662C139.697 88.942 138.657 89.1519 137.347 89.1519ZM118.247 74.102C118.027 74.762 118.857 79.952 128.697 84.722C134.597 87.582 138.007 87.412 139.827 86.772C141.347 86.242 141.827 85.362 141.907 85.192C142.047 84.442 139.367 81.212 132.547 77.252C123.327 71.892 118.707 73.612 118.247 74.102Z" fill="#12100B"/>
<path d="M98.5842 138.281C98.4142 138.281 98.2442 138.241 98.0942 138.151C97.6142 137.881 97.4442 137.271 97.7142 136.791L114.374 107.391C114.644 106.911 115.254 106.741 115.734 107.011C116.214 107.281 116.384 107.891 116.114 108.371L99.4542 137.771C99.2742 138.091 98.9342 138.281 98.5842 138.281Z" fill="#12100B"/>
<path d="M103.643 142.032C103.453 142.032 103.263 141.982 103.093 141.872L93.6234 135.662C93.1634 135.362 93.0334 134.742 93.3334 134.272C93.6334 133.812 94.2534 133.682 94.7134 133.982L104.193 140.192C104.653 140.492 104.783 141.112 104.483 141.582C104.293 141.872 103.973 142.032 103.643 142.032Z" fill="#12100B"/>
<path d="M117.375 88.4319C117.375 89.2719 118.055 89.9419 118.885 89.9419C119.715 89.9419 120.395 89.2619 120.395 88.4319C120.395 87.6019 119.715 86.9219 118.885 86.9219C118.055 86.9219 117.375 87.6019 117.375 88.4319Z" fill="#2B2523"/>
<path d="M118.885 90.4419C117.775 90.4419 116.875 89.5419 116.875 88.4319C116.875 87.3219 117.775 86.4219 118.885 86.4219C119.995 86.4219 120.895 87.3219 120.895 88.4319C120.895 89.5419 119.995 90.4419 118.885 90.4419ZM118.885 87.4219C118.325 87.4219 117.875 87.8719 117.875 88.4319C117.875 88.9919 118.325 89.4419 118.885 89.4419C119.445 89.4419 119.895 88.9919 119.895 88.4319C119.895 87.8719 119.445 87.4219 118.885 87.4219Z" fill="#2B2523"/>
<path d="M127.805 93.592C127.805 94.432 128.485 95.102 129.315 95.102C130.145 95.102 130.825 94.422 130.825 93.592C130.825 92.762 130.145 92.082 129.315 92.082C128.485 92.082 127.805 92.752 127.805 93.592Z" fill="#2B2523"/>
<path d="M129.326 95.602C128.216 95.602 127.316 94.702 127.316 93.592C127.316 92.482 128.216 91.582 129.326 91.582C130.436 91.582 131.336 92.482 131.336 93.592C131.336 94.702 130.436 95.602 129.326 95.602ZM129.326 92.582C128.766 92.582 128.316 93.032 128.316 93.592C128.316 94.152 128.766 94.602 129.326 94.602C129.886 94.602 130.336 94.152 130.336 93.592C130.336 93.032 129.876 92.582 129.326 92.582Z" fill="#2B2523"/>
<path d="M120.995 102.692C120.045 102.692 119.015 102.512 117.915 102.082C114.535 100.752 114.595 96.7723 115.105 94.8523C115.245 94.3223 115.795 94.0023 116.325 94.1423C116.855 94.2823 117.175 94.8323 117.035 95.3623C116.995 95.5323 116.085 99.2223 118.645 100.222C122.325 101.662 124.415 99.3723 124.635 99.1023C124.985 98.6823 125.625 98.6323 126.045 98.9823C126.465 99.3423 126.515 99.9723 126.165 100.392C125.135 101.602 123.315 102.692 120.995 102.692Z" fill="#12100B"/>
<path d="M123.314 66.7823C123.284 66.7823 123.254 66.7823 123.234 66.7823C122.684 66.7323 122.274 66.2522 122.324 65.7022L123.084 56.4923C123.134 55.9423 123.604 55.5323 124.164 55.5823C124.714 55.6223 125.124 56.1123 125.084 56.6623L124.324 65.8722C124.264 66.3822 123.824 66.7823 123.314 66.7823Z" fill="#12100B"/>
<path d="M133.385 68.9912C133.215 68.9912 133.035 68.9512 132.875 68.8512C132.405 68.5712 132.245 67.9612 132.525 67.4812L136.885 60.1112C137.165 59.6412 137.775 59.4812 138.255 59.7612C138.725 60.0412 138.885 60.6512 138.605 61.1312L134.245 68.5012C134.055 68.8112 133.725 68.9912 133.385 68.9912Z" fill="#12100B"/>
<path d="M144.884 74.5717C144.604 74.5717 144.324 74.4516 144.124 74.2216C143.764 73.8016 143.804 73.1716 144.224 72.8116L149.544 68.2117C149.964 67.8517 150.594 67.8916 150.954 68.3116C151.314 68.7316 151.274 69.3616 150.854 69.7216L145.534 74.3217C145.354 74.4917 145.124 74.5717 144.884 74.5717Z" fill="#12100B"/>
<path d="M40.3448 96.7923C40.3448 96.7923 41.8648 108.292 36.9548 110.342C32.0448 112.382 27.6048 111.132 22.3348 106.922C17.0648 102.712 14.2348 98.0323 13.4648 96.9023C14.6448 95.6723 22.5248 91.0423 40.3448 96.7923Z" fill="#D73328"/>
<path d="M32.5565 112.312C19.3165 112.312 8.00654 89.9924 7.48654 88.9524C7.23654 88.4624 7.4365 87.8624 7.9365 87.6124C8.4365 87.3624 9.03658 87.5624 9.27658 88.0624C9.40658 88.3224 22.5066 114.182 35.6366 109.812C37.1166 109.322 38.1565 108.332 38.8265 106.792C42.5665 98.1824 32.9966 77.0824 32.8966 76.8724C32.6666 76.3724 32.8866 75.7724 33.3866 75.5424C33.8866 75.3124 34.4865 75.5324 34.7165 76.0324C35.1265 76.9324 44.7566 98.1624 40.6566 107.582C39.7666 109.642 38.2866 111.032 36.2666 111.702C35.0266 112.122 33.7865 112.312 32.5565 112.312Z" fill="#12100B"/>
<path d="M13.8646 92.0416C12.5446 92.0416 11.5146 91.8316 10.7046 91.5516C8.49461 90.7716 7.67463 89.3616 7.47463 88.9416C5.87463 85.5716 14.8547 80.0316 17.6347 78.4116C27.2447 72.8316 33.4547 74.0416 34.6447 75.9316C35.0447 76.5716 35.0846 77.5816 34.7446 78.7616C34.2346 80.5616 32.0946 85.1916 23.3646 89.4216C19.2446 91.4016 16.1446 92.0416 13.8646 92.0416ZM29.9946 76.3316C27.6446 76.3316 23.8947 77.0916 18.6547 80.1316C11.8247 84.0916 9.15457 87.3216 9.29457 88.0916C9.36457 88.2416 9.85465 89.1216 11.3747 89.6516C13.1947 90.2916 16.6047 90.4516 22.5047 87.6016C32.3547 82.8316 33.1846 77.6416 32.9546 76.9816C32.7646 76.7716 31.7846 76.3316 29.9946 76.3316Z" fill="#12100B"/>
<path d="M52.6232 141.162C52.2732 141.162 51.9332 140.982 51.7532 140.652L35.0931 111.252C34.8231 110.772 34.9931 110.162 35.4731 109.892C35.9531 109.622 36.5631 109.792 36.8331 110.272L53.4932 139.672C53.7632 140.152 53.5932 140.762 53.1132 141.032C52.9632 141.122 52.7932 141.162 52.6232 141.162Z" fill="#12100B"/>
<path d="M47.564 144.922C47.234 144.922 46.914 144.762 46.724 144.472C46.424 144.012 46.554 143.392 47.014 143.092L56.484 136.882C56.944 136.582 57.564 136.712 57.874 137.172C58.174 137.632 58.044 138.252 57.584 138.552L48.104 144.762C47.934 144.872 47.744 144.922 47.564 144.922Z" fill="#12100B"/>
<path d="M33.6758 91.7324C33.6758 92.5624 33.0058 93.2324 32.1758 93.2324C31.3458 93.2324 30.6758 92.5624 30.6758 91.7324C30.6758 90.9024 31.3458 90.2324 32.1758 90.2324C33.0058 90.2324 33.6758 90.9124 33.6758 91.7324Z" fill="#2B2523"/>
<path d="M32.1758 93.7324C31.0758 93.7324 30.1758 92.8324 30.1758 91.7324C30.1758 90.6324 31.0758 89.7324 32.1758 89.7324C33.2758 89.7324 34.1758 90.6324 34.1758 91.7324C34.1758 92.8424 33.2858 93.7324 32.1758 93.7324ZM32.1758 90.7324C31.6258 90.7324 31.1758 91.1824 31.1758 91.7324C31.1758 92.2824 31.6258 92.7324 32.1758 92.7324C32.7258 92.7324 33.1758 92.2824 33.1758 91.7324C33.1758 91.1824 32.7258 90.7324 32.1758 90.7324Z" fill="#2B2523"/>
<path d="M23.6758 96.7324C23.6758 97.5624 23.0058 98.2324 22.1758 98.2324C21.3458 98.2324 20.6758 97.5624 20.6758 96.7324C20.6758 95.9024 21.3458 95.2324 22.1758 95.2324C23.0058 95.2324 23.6758 95.9124 23.6758 96.7324Z" fill="#2B2523"/>
<path d="M22.1758 98.7324C21.0758 98.7324 20.1758 97.8324 20.1758 96.7324C20.1758 95.6324 21.0758 94.7324 22.1758 94.7324C23.2758 94.7324 24.1758 95.6324 24.1758 96.7324C24.1758 97.8424 23.2858 98.7324 22.1758 98.7324ZM22.1758 95.7324C21.6258 95.7324 21.1758 96.1824 21.1758 96.7324C21.1758 97.2824 21.6258 97.7324 22.1758 97.7324C22.7258 97.7324 23.1758 97.2824 23.1758 96.7324C23.1758 96.1824 22.7258 95.7324 22.1758 95.7324Z" fill="#2B2523"/>
<path d="M30.2153 105.572C27.8953 105.572 26.0752 104.482 25.0452 103.272C24.6852 102.852 24.7353 102.222 25.1553 101.862C25.5753 101.502 26.2052 101.562 26.5652 101.972C27.5852 103.172 29.7652 104.182 32.5552 103.092C35.1352 102.082 34.1752 98.272 34.1652 98.232C34.0252 97.702 34.3453 97.152 34.8753 97.012C35.4153 96.882 35.9553 97.192 36.0953 97.722C36.5953 99.642 36.6552 103.622 33.2852 104.952C32.2052 105.392 31.1653 105.572 30.2153 105.572Z" fill="#12100B"/>
<path d="M27.893 69.6613C27.373 69.6613 26.943 69.2613 26.893 68.7413L26.133 59.5313C26.083 58.9813 26.4929 58.5013 27.0429 58.4513C27.5929 58.4013 28.073 58.8213 28.123 59.3613L28.883 68.5713C28.933 69.1213 28.523 69.6013 27.973 69.6513C27.953 69.6613 27.923 69.6613 27.893 69.6613Z" fill="#12100B"/>
<path d="M17.823 71.8721C17.483 71.8721 17.153 71.7021 16.963 71.3821L12.603 64.0121C12.323 63.5321 12.483 62.9221 12.953 62.6421C13.423 62.3621 14.043 62.5221 14.323 62.9921L18.683 70.3621C18.963 70.8421 18.803 71.4521 18.333 71.7321C18.173 71.8321 18.003 71.8721 17.823 71.8721Z" fill="#12100B"/>
<path d="M6.31481 77.4523C6.08481 77.4523 5.85479 77.3723 5.66479 77.2123L0.34484 72.6123C-0.0751599 72.2523 -0.115135 71.6223 0.244865 71.2023C0.604865 70.7823 1.2349 70.7423 1.6549 71.1023L6.97484 75.7023C7.39485 76.0623 7.43482 76.6923 7.07482 77.1123C6.87482 77.3423 6.59481 77.4523 6.31481 77.4523Z" fill="#12100B"/>
<path d="M91.7335 62.0523C91.3035 62.0523 90.9035 61.7723 90.7735 61.3423C90.6135 60.8123 90.9134 60.2523 91.4434 60.1023C93.0734 59.6123 94.4035 58.2423 94.8435 56.6023C94.9835 56.0723 95.5334 55.7523 96.0634 55.8923C96.5934 56.0323 96.9135 56.5823 96.7735 57.1123C96.1635 59.4123 94.2935 61.3323 92.0135 62.0123C91.9235 62.0423 91.8235 62.0523 91.7335 62.0523Z" fill="#12100B"/>
<path d="M96.6951 65.5416C96.2251 65.5416 95.8051 65.2116 95.7151 64.7316C95.6051 64.1916 95.9652 63.6616 96.5052 63.5616C98.0352 63.2616 99.3451 61.8716 99.5551 60.3216C99.6251 59.7716 100.125 59.3816 100.675 59.4616C101.225 59.5316 101.605 60.0316 101.535 60.5816C101.225 62.9816 99.2652 65.0616 96.8852 65.5216C96.8252 65.5416 96.7651 65.5416 96.6951 65.5416Z" fill="#12100B"/>
<path d="M53.0562 63.5815C52.0762 63.5815 51.1063 63.2015 50.3963 62.5115C49.4563 61.5915 49.0663 60.1715 49.4063 58.8915C49.5463 58.3515 50.0963 58.0315 50.6263 58.1815C51.1563 58.3215 51.4762 58.8715 51.3362 59.4015C51.1862 59.9815 51.3662 60.6615 51.7962 61.0915C52.2262 61.5115 52.9063 61.6915 53.4863 61.5315C54.0163 61.3815 54.5662 61.6915 54.7162 62.2315C54.8662 62.7615 54.5563 63.3115 54.0163 63.4615C53.7163 63.5415 53.3862 63.5815 53.0562 63.5815Z" fill="#12100B"/>
<path d="M56.714 61.5111C55.454 61.5111 54.194 60.9611 53.364 60.0011C52.354 58.8411 52.0339 57.1411 52.5439 55.6911C52.7239 55.1711 53.294 54.9011 53.824 55.0811C54.344 55.2611 54.6239 55.8311 54.4339 56.3511C54.1639 57.1311 54.344 58.0711 54.874 58.6911C55.414 59.3111 56.314 59.6311 57.124 59.4711C57.664 59.3611 58.1939 59.7211 58.2939 60.2611C58.3939 60.8011 58.044 61.3311 57.504 61.4311C57.244 61.4911 56.974 61.5111 56.714 61.5111Z" fill="#12100B"/>
<path d="M37.436 31.4419C37.056 31.4419 36.706 31.2219 36.536 30.8719C36.326 30.4319 36.4661 29.9119 36.8561 29.6319L38.7661 28.2719C39.2161 27.952 39.846 28.0519 40.166 28.5019C40.196 28.5519 40.2261 28.6019 40.2561 28.6519L75.2461 19.1919C73.5861 15.1119 72.316 10.8819 71.466 6.56194L70.3461 11.2119C69.9661 12.7619 69.486 14.3419 68.086 15.2519C67.116 15.8819 65.996 16.0019 64.836 15.6019C63.116 15.0119 61.486 13.2819 60.796 11.2919C60.546 10.5719 60.356 9.83195 60.166 9.11195C59.986 8.42195 59.8161 7.74195 59.5961 7.11195C59.4761 8.06194 59.2461 9.01195 58.8461 9.91195C57.9861 11.8119 55.9261 13.7519 53.4061 13.5019C51.8661 13.3519 50.6261 12.4319 49.6261 11.7019L44.3461 7.80195L41.8861 21.0919C41.8161 21.452 41.5661 21.7419 41.2161 21.8619C40.8661 21.9719 40.4861 21.8919 40.2261 21.6419L33.4861 15.3719C33.9061 17.8819 34.796 20.3219 36.086 22.5119C36.366 22.9919 36.2061 23.6019 35.7361 23.8819C35.2561 24.1619 34.6461 24.0019 34.3661 23.5319C32.4561 20.3019 31.3761 16.6119 31.2161 12.8719C31.1961 12.4619 31.426 12.0919 31.796 11.9219C32.166 11.7519 32.5961 11.8219 32.8961 12.1019L40.2561 18.9519L42.676 5.88194C42.736 5.54194 42.976 5.26194 43.296 5.13194C43.616 5.01194 43.9761 5.05195 44.2561 5.26195L50.826 10.1119C51.666 10.7319 52.6261 11.4319 53.6161 11.5319C55.0761 11.6719 56.446 10.4219 57.036 9.11195C57.746 7.54194 57.7561 5.69195 57.7761 3.90195C57.7761 3.51195 58.0061 3.16194 58.3661 3.00194C58.7261 2.84194 59.136 2.90195 59.436 3.16195C61.086 4.60195 61.6161 6.65194 62.1261 8.63194C62.3061 9.34194 62.486 10.0119 62.706 10.6519C63.186 12.0419 64.3661 13.3419 65.5061 13.7319C66.0761 13.9319 66.5661 13.8819 67.0161 13.5919C67.7961 13.0919 68.126 11.9719 68.416 10.7619L70.716 1.26195C70.826 0.791947 71.2661 0.471945 71.7461 0.501945C72.2261 0.531945 72.626 0.901942 72.676 1.38194C73.436 7.62194 75.076 13.7119 77.536 19.4919C77.646 19.7619 77.6461 20.0619 77.5161 20.3219C77.3861 20.5819 77.1561 20.7719 76.8761 20.8519L37.7161 31.4419C37.6161 31.4319 37.526 31.4419 37.436 31.4419Z" fill="#12100B"/>
</svg>
