<svg width="18" height="31" viewBox="0 0 18 31" fill="none" xmlns="http://www.w3.org/2000/svg">
<path d="M9.52146 7.0502C9.52146 7.0502 9.53247 2.40406 7.80572 1.10679C6.07896 -0.19047 2.05391 3.43812 1.62223 4.65169C1.22247 5.77606 0.168581 11.7107 0.0144066 12.5828C0.00119167 12.6555 -0.00211216 12.726 0.00119158 12.7998L0.873378 30.032C0.895403 30.4659 1.41849 30.6697 1.70812 30.3459C4.56255 27.1567 14.3493 16.1641 14.8284 14.8173C15.39 13.2392 18.7158 5.8058 17.8601 4.31031C17.2181 3.18814 13.5597 0.691626 12.7129 2.30495C11.866 3.91827 9.52146 7.0502 9.52146 7.0502Z" fill="#BE1E2D"/>
</svg>
