<svg width="160" height="167" viewBox="0 0 160 167" fill="none" xmlns="http://www.w3.org/2000/svg">
<path d="M60.287 47.5667C60.8289 47.8738 61.2804 48.0724 61.6597 48.3614C62.3279 48.8491 62.4182 49.5354 61.8042 50.0592C61.1359 50.6371 60.7566 51.3596 60.2509 52.0278C59.6188 52.8587 58.7338 53.3824 57.7223 53.6895C57.1805 53.852 56.6567 53.9604 57.2527 54.719C57.5237 55.0802 57.2527 55.5137 56.9457 55.7846C56.6206 56.0736 56.2413 56.3264 55.862 56.5431C55.3382 56.8682 54.4533 57.0308 54.3088 57.4643C54.0379 58.2228 55.1035 58.1687 55.5008 58.5841C56.9276 60.0651 56.4219 62.6298 54.3991 63.8037C53.2612 64.472 52.015 64.761 50.7146 64.8874C50.4075 64.9235 50.0102 64.9235 49.9741 65.3028C49.938 65.7363 50.3895 65.6821 50.6604 65.7363C53.8934 66.4588 55.9343 68.6441 57.3069 71.4436C58.7699 74.4057 57.4153 78.2346 54.5255 79.9324C48.8543 83.2737 42.5509 81.4134 38.7942 77.169C37.2771 75.4532 37.2771 71.4617 38.6858 69.7278C38.9206 69.4208 39.2096 69.2402 39.607 69.3124C40.0404 69.3847 40.3294 69.6556 40.4197 70.089C40.4739 70.3058 40.492 70.5225 40.4739 70.7573C40.4378 74.514 41.2686 75.7602 44.7002 76.9523C47.4816 77.9276 50.2089 78.054 52.7194 76.2299C54.2365 75.1281 54.5255 73.3762 53.4057 71.8951C52.4304 70.6128 51.3287 69.4569 50.0283 68.4816C49.4503 68.0481 49.0891 67.9398 48.782 68.8067C48.4028 69.9265 46.9759 70.36 45.4046 69.8723C44.1403 69.475 44.6099 68.4996 44.7183 67.6327C44.8086 67.0367 45.3685 66.3143 44.8447 65.8988C44.4112 65.5557 43.7972 66.1698 43.2734 66.4046C41.4311 67.1993 39.5889 67.9578 37.7105 68.6803C33.7551 70.2155 29.872 69.9987 25.9888 68.4635C24.255 67.7772 22.5211 67.0728 20.8053 66.3142C17.0666 64.6887 13.2196 65.1403 9.39059 65.7002C8.41529 65.8447 7.45804 66.0253 6.48274 65.8988C5.90478 65.8266 5.2907 65.646 5.25458 64.9055C5.21845 64.165 5.81448 63.876 6.37438 63.7857C8.5959 63.3703 10.8355 62.991 13.0931 62.702C17.5904 62.1421 21.7444 63.4786 25.8443 64.9235C27.9214 65.664 29.9984 66.2601 32.2019 66.3142C33.43 66.3323 34.5498 65.8266 35.6516 65.3931C37.6383 64.5984 39.5708 63.7134 41.5395 62.8646C41.6659 62.8104 41.7743 62.7381 41.9007 62.702C42.7496 62.3588 45.6936 59.8122 46.1451 59.0717C46.3438 58.7466 46.4341 58.4576 46.0367 58.3132C44.4654 57.7894 43.743 56.6154 43.6346 54.8815C42.7135 55.3872 42.2078 56.0194 41.684 56.6154C40.4558 57.97 38.9567 58.9092 37.3493 59.6858C37.0423 59.8303 36.6991 59.9748 36.3559 60.029C35.7238 60.1012 35.0375 60.1193 34.7666 59.3788C34.5137 58.6744 35.1097 58.2951 35.5793 58.0242C37.1506 57.1392 38.4691 55.9471 39.7876 54.737C40.9074 53.7075 41.7743 52.4613 42.4787 51.1067C44.0139 48.1086 46.398 45.9954 49.3781 44.4963C50.6423 43.8642 51.8344 43.0514 53.0445 42.2929C53.3876 42.0761 54.074 41.8775 53.8392 41.4079C53.5683 40.866 52.9181 41.2814 52.5388 41.444C50.7327 42.2206 48.9807 43.0695 47.1927 43.8823C45.2421 44.7492 43.2734 45.6161 41.4673 46.7721C41.2144 46.9346 40.9254 47.1152 40.6364 47.1694C40.0404 47.2958 39.3541 47.5487 38.9026 46.9346C38.4691 46.3386 38.9568 45.8509 39.2457 45.3633C39.8779 44.2796 40.9615 43.6294 41.7021 42.5277C40.9435 42.7444 40.1488 42.8708 39.4444 43.1779C35.4168 44.8756 31.5878 46.9527 27.8491 49.2103C24.273 51.3776 20.5163 52.6419 16.1635 51.775C12.6597 51.0706 9.11968 50.294 5.47132 50.4565C4.17091 50.5107 2.88856 50.5468 1.62427 50.8719C0.992132 51.0345 0.287754 51.197 0.0529587 50.3843C-0.181837 49.5354 0.396122 49.0297 1.15469 48.8491C3.12336 48.3614 5.14621 48.5782 7.13294 48.4517C10.7452 48.235 14.3213 48.8852 17.9155 48.9033C20.426 48.9213 22.5933 48.0183 24.58 46.8082C31.7684 42.4193 39.2999 38.8793 47.5719 37.037C48.3847 36.8564 49.2516 36.9648 50.0824 36.9287C50.4617 36.9106 50.9494 37.1996 51.1661 36.73C51.3467 36.3507 50.8952 36.1159 50.7146 35.827C49.3419 33.6415 48.0235 31.4381 47.2468 28.9276C45.9103 24.5748 46.8676 20.4569 48.4389 16.4112C49.2336 14.3883 50.2089 12.4197 51.1119 10.4329C51.7441 9.04221 52.6471 7.81404 53.7128 6.73037C54.2185 6.22466 54.7422 5.71896 55.4647 5.55641C56.3497 5.35773 56.9638 5.15907 56.8554 3.93091C56.747 2.72081 58.7338 1.54681 60.5399 1.45651C62.6169 1.34814 64.6217 1.61908 66.5723 2.37765C69.7511 3.60581 73.1647 4.27405 76.0183 6.33302C76.8311 6.91098 77.5355 7.56119 77.9509 8.48231C78.0773 8.75323 78.2218 9.0964 78.4566 9.25895C80.8407 10.8845 81.1296 13.395 81.1296 15.9055C81.1296 20.3846 80.1724 24.7013 78.6011 28.9276C77.7161 31.2936 76.5963 33.461 74.9708 35.3935C72.4964 38.3194 69.1731 39.7462 65.6331 40.8299C65.1274 40.9925 64.6036 41.1189 64.0799 41.2273C63.0323 41.4621 62.0751 41.5885 63.231 43.0153C63.8993 43.8642 63.4658 44.8937 62.7614 45.6884C62.1293 46.4469 61.2804 47.0068 60.287 47.5667ZM50.1186 24.0691C50.1547 26.5977 50.6062 28.8192 51.708 30.9324C52.8097 33.0275 53.9295 35.0864 55.3383 36.9829C55.7717 37.5789 55.3563 38.4639 55.9885 38.7709C56.8734 39.2044 57.0721 40.3964 57.7043 40.6312C58.5351 40.9383 58.9144 39.6017 59.6729 39.1322C61.4791 38.0124 63.4477 37.3622 65.3622 36.5494C68.4868 35.1948 71.2863 33.4248 72.8757 30.2641C75.2778 25.514 76.524 20.4569 76.7408 15.1469C76.7769 14.3883 76.4337 14.4606 75.928 14.6592C75.1153 14.9843 74.4289 15.5623 73.4536 15.5623C70.7264 15.5262 68.2159 14.7676 65.7957 13.5394C63.3574 12.3113 61.3165 10.4691 58.9144 9.20477C57.0721 8.22947 56.0968 8.50039 55.0854 10.3065C54.2546 11.7875 53.4057 13.2505 52.7374 14.8037C51.437 17.8199 50.1005 20.8542 50.1186 24.0691ZM62.2015 6.02599C62.1654 6.09823 62.1293 6.18855 62.1112 6.26079C62.9962 6.82069 63.8812 7.41672 64.8023 7.9405C67.1683 9.27702 69.5705 10.5232 72.3158 10.9206C72.7492 10.9748 73.3091 11.047 73.4536 10.5232C73.5801 10.0536 73.0743 9.87302 72.7312 9.69241C70.6 8.55455 68.3062 7.86823 66.0124 7.12772C64.7301 6.73037 63.4658 6.38721 62.2015 6.02599ZM50.0283 61.6364C50.6965 61.6364 51.13 61.6545 51.5815 61.6364C52.1414 61.6003 52.6833 61.3835 52.8097 60.8056C52.9542 60.1373 52.3401 59.9567 51.9066 59.6858C51.1661 59.2162 50.4617 59.2884 49.7935 59.758C49.2336 60.1373 48.168 60.3541 48.3124 61.0946C48.4931 61.9976 49.5587 61.528 50.0283 61.6364Z" fill="black"/>
<path d="M108.548 85.4235C111.6 85.4235 114.671 85.4055 117.723 85.4235C119.818 85.4235 121.895 85.4777 123.99 85.4957C130.041 85.5138 134.61 88.819 139.198 92.2145C144.435 96.0977 150.125 99.0597 156.735 99.8905C157.584 99.9989 158.397 100.198 159.173 100.541C159.589 100.721 160.004 100.956 159.95 101.498C159.896 102.022 159.48 102.202 159.047 102.347C157.981 102.708 156.934 102.473 155.868 102.329C153.358 101.986 150.829 102.076 148.319 101.444C144.399 100.45 141.293 98.1025 138.096 95.8268C135.062 93.6594 132.425 90.9683 128.939 89.4331C126.392 88.3133 123.719 87.934 120.992 87.916C116.73 87.8979 112.449 88.0604 108.187 87.8979C107.699 87.8798 107.211 87.8618 106.525 88.4578C110.733 87.5367 114.147 89.6137 117.795 90.3C119.276 90.571 120.793 90.6432 122.292 90.8057C123.268 90.9141 124.243 90.9864 125.11 91.5282C125.543 91.8172 125.85 92.1784 125.76 92.7383C125.652 93.3343 125.2 93.5149 124.676 93.533C121.552 93.6233 118.481 93.3524 115.447 92.3771C113.226 91.6546 111.058 90.7154 108.638 90.7154C110.336 92.4312 112.359 93.4788 114.707 93.9303C120.215 94.9959 124.406 97.958 127.349 102.726C127.729 103.322 128 104.045 127.313 104.514C126.519 105.056 125.724 104.713 125.236 103.954C124.207 102.311 122.979 100.902 121.498 99.6196C119.493 97.8857 117.109 97.1633 114.616 96.6395C113.406 96.3866 112.142 96.2241 111.022 95.6642C109.957 95.1404 108.963 94.4722 107.934 93.4969C107.789 94.7612 107.464 95.7003 106.489 96.4047C107.229 96.4408 107.97 96.5492 108.692 96.495C110.137 96.3867 111.42 96.8924 112.63 97.5606C114.345 98.5179 114.797 100.089 113.912 101.859C113.749 102.184 113.46 102.546 113.641 102.853C114.327 103.954 114.201 105.074 114.056 106.302C113.948 107.241 115.05 107.296 115.772 107.35C118.77 107.585 121.66 108.253 124.46 109.337C126.248 110.023 127.927 110.962 129.679 111.739C131.106 112.371 132.623 112.606 134.213 112.768C138.349 113.166 142.467 112.696 146.603 112.949C150.612 113.202 154.514 114.069 158.451 114.773C158.668 114.809 158.884 114.899 159.083 114.972C159.607 115.17 160.094 115.459 159.986 116.128C159.878 116.76 159.39 117.013 158.812 117.031C156.681 117.085 154.532 117.067 152.4 116.94C148.987 116.742 145.573 116.579 142.16 116.453C137.373 116.29 132.515 116.489 128.018 114.358C127.422 114.069 126.772 113.834 126.266 113.418C124.387 111.883 122.094 111.269 119.926 110.366C119.023 109.987 118.012 110.005 117.073 109.698C116.206 109.409 116.043 110.149 116.35 110.727C116.82 111.63 117.416 112.461 117.994 113.31C118.283 113.743 118.734 113.527 119.096 113.454C122.455 112.75 125.543 116.055 125.796 118.891C126.013 121.311 125.254 123.46 123.611 125.285C120.649 128.554 116.964 130.378 112.557 130.342C107.067 130.306 104.34 125.393 107.031 120.589C107.952 118.945 109.216 117.554 110.625 116.308C110.787 116.164 110.986 116.037 111.167 115.929C112.738 115.134 112.738 115.134 112.034 113.418C111.925 113.166 111.799 112.931 111.745 112.678C111.456 111.179 110.535 110.456 109.072 109.933C106.976 109.174 105.008 107.982 104.051 105.815C103.473 104.532 103.166 103.16 101.865 102.311C101.45 102.04 101.359 101.353 101.685 100.83C102.154 100.053 102.877 100.324 103.87 100.631C102.678 99.3487 101.703 98.3734 101.359 96.9466C101.233 96.4409 100.691 96.4589 100.258 96.3325C96.9164 95.4113 96.1939 92.8647 98.5599 90.3362C99.0295 89.8304 99.9687 89.3067 99.752 88.7106C99.5172 88.0424 98.4696 88.4939 97.8014 88.3494C94.8755 87.7534 92.3288 86.5794 90.0892 84.4663C87.5065 82.0461 86.0435 79.066 85.0141 75.833C84.2735 73.5031 83.9846 71.0649 83.6775 68.6447C83.1899 64.7976 82.9009 60.9506 82.7925 57.0675C82.7745 56.4534 82.8286 55.8212 82.919 55.2072C83.0093 54.575 83.2802 54.0512 84.0568 54.268C84.4 54.3583 84.6167 54.2499 84.8876 54.0512C88.1928 51.5769 91.8412 49.7346 95.8327 48.669C98.7947 47.8743 101.775 47.5853 104.791 48.4342C106.019 48.7774 106.814 49.4998 107.121 50.746C107.392 51.8297 107.898 52.805 108.457 53.7803C111.492 59.1625 113.876 64.8157 115.014 70.9204C115.917 75.815 114.273 79.8426 110.516 83.0575C109.776 83.6896 109.09 84.3579 108.385 85.0262C108.457 85.1887 108.494 85.2971 108.548 85.4235ZM111.69 74.1353C111.636 73.6657 111.582 73.2683 111.528 72.871C110.805 67.1817 108.53 62.0162 106.2 56.8507C105.694 55.7309 105.243 55.6406 104.231 56.3269C101.359 58.2776 98.0723 59.2348 94.6768 59.3251C91.9857 59.3974 89.2404 59.1084 86.6034 58.422C85.6823 58.1692 85.5198 58.5846 85.6281 59.3973C85.9713 62.0885 86.188 64.7976 86.5854 67.4707C87.1995 71.4983 87.5968 75.5802 89.8003 79.2105C91.9676 82.7685 94.9658 84.8456 99.156 85.2248C100.511 85.3513 101.919 85.279 103.147 86.1279C103.671 86.4891 104.051 86.2543 104.303 85.7125C105.694 82.7505 108.006 80.5109 110.119 78.1087C111.112 76.9709 111.6 75.5802 111.69 74.1353ZM116.693 116.489C116.693 116.742 116.675 116.868 116.693 116.994C116.856 117.843 117.885 118.819 116.693 119.469C115.501 120.137 114.959 118.873 114.436 118.15C113.948 117.482 113.551 117.554 113.027 117.952C111.365 119.162 110.119 120.733 109.577 122.702C108.945 124.959 109.993 126.314 112.305 126.585C115.122 126.928 120.251 124.02 121.407 121.438C122.274 119.505 121.462 117.41 119.547 116.651C119.312 117.085 119.547 117.843 118.843 117.952C117.777 118.114 117.38 117.139 116.693 116.489ZM86.9285 55.6226C90.1073 55.9657 93.0152 56.3089 95.9411 56.0199C98.1445 55.8032 100.185 55.1168 102.064 53.9429C102.786 53.4913 103.744 52.8953 103.563 52.1006C103.364 51.2337 102.208 51.4865 101.45 51.5046C96.5371 51.6491 91.9315 53.0579 87.5246 55.1349C87.3801 55.2071 87.2717 55.3516 86.9285 55.6226ZM102.425 94.0206C103.003 93.9303 103.635 94.2013 103.852 93.6594C104.032 93.1898 103.436 92.937 103.184 92.6119C102.985 92.3771 102.786 92.1242 102.551 91.9436C102.154 91.6546 101.829 90.9864 101.233 91.3656C100.637 91.7269 99.9687 92.2145 99.9507 92.937C99.9326 93.7136 100.818 93.4969 101.287 93.7497C101.63 93.9303 102.1 93.9484 102.425 94.0206Z" fill="black"/>
<path d="M86.89 10.6144C86.005 10.5964 85.102 10.6506 84.2351 10.3796C83.639 10.181 83.1875 9.85587 83.1875 9.16954C83.1875 8.5374 83.4765 8.03169 84.0906 7.81495C86.1134 7.11056 88.1363 7.34537 90.1049 8.04976C90.5745 8.21231 90.8816 8.66383 90.8816 9.20567C90.8816 9.72944 90.4481 9.9281 90.0327 10.1448C89.0393 10.6325 87.9556 10.5603 86.89 10.6144Z" fill="black"/>
<path d="M74.1201 63.1542C72.8739 63.1542 72.4224 62.4679 72.8378 61.619C73.1448 60.9869 73.6506 60.5534 74.2105 60.2102C75.547 59.3614 76.7751 58.2958 78.4006 57.9707C78.9244 57.8623 79.5024 57.772 79.8275 58.3499C80.1345 58.8737 79.8094 59.3433 79.4482 59.6503C77.7866 61.1675 75.9985 62.5221 74.1201 63.1542Z" fill="black"/>
<path d="M79.4863 54.6653C77.8608 54.4847 76.4339 54.8278 75.0252 54.3763C74.104 54.0692 73.2913 53.7261 73.508 52.5702C73.7248 51.4865 74.5736 51.1975 75.5489 51.3781C77.03 51.631 78.5471 51.8296 79.8836 52.5882C80.3893 52.8772 81.2563 52.9856 81.0215 53.8164C80.8047 54.6472 79.9559 54.6111 79.4863 54.6653Z" fill="black"/>
<path d="M83.8748 49.3913C83.8567 50.1499 83.7484 50.5653 83.2607 50.764C82.8273 50.9446 82.448 50.782 82.177 50.475C81.0753 49.1926 79.9375 47.9284 79.2692 46.339C78.8357 45.2914 79.4137 44.5148 80.2264 44.1175C81.0753 43.7021 81.7978 44.2619 82.1409 45.0566C82.7911 46.5738 83.3691 48.109 83.8748 49.3913Z" fill="black"/>
<path d="M81.1837 5.14136C81.1656 3.51586 83.351 0.445442 84.7056 0.0480956C85.4281 -0.168639 86.0783 0.373198 85.8977 1.14983C85.4461 3.04625 84.3986 4.65372 83.1704 6.13473C82.8815 6.4779 82.3938 6.64044 81.9423 6.44177C81.3463 6.17085 81.2379 5.57483 81.1837 5.14136Z" fill="black"/>
<path d="M62.4715 35.2139C56.421 35.232 51.5264 29.9401 51.996 24.0882C52.1044 22.6072 53.3506 21.2526 54.922 20.8192C56.999 20.2412 59.0399 20.4941 60.9183 21.3791C62.7786 22.246 64.5305 22.0654 66.3547 21.4874C67.4564 21.1443 68.522 20.6566 69.6779 20.5121C72.2607 20.2051 73.6514 21.7583 73.0193 24.3411C72.4594 26.5807 71.1228 28.441 69.9489 30.3735C68.9013 32.0713 67.4745 33.3897 65.7226 34.3651C64.6389 34.9611 63.5191 35.3223 62.4715 35.2139Z" fill="#BD1823"/>
<path d="M108.491 72.5094C108.401 75.0921 107.859 77.2595 106.396 79.0294C104.337 81.5038 101.466 81.9915 98.5035 81.6122C94.2772 81.0704 91.9654 78.1445 90.3399 74.5322C89.9606 73.6834 89.7078 72.7622 89.5091 71.8592C89.0214 69.728 89.5271 68.6985 91.4958 67.7773C92.9768 67.091 94.5481 66.802 96.1737 67.1633C99.5692 67.9038 102.965 68.6262 106.432 68.9152C107.119 68.9694 107.57 69.3667 107.859 69.9628C108.311 70.8658 108.582 71.7869 108.491 72.5094Z" fill="#BD1823"/>
<path d="M65.6341 155.283C65.2549 156.042 65.5258 156.837 65.3271 157.559C65.2007 158.047 65.0562 158.534 64.4963 158.661C63.9725 158.787 63.6835 158.426 63.4126 158.047C62.4373 156.692 60.3783 157.379 59.2405 158.354C58.4819 159.004 57.344 159.708 57.7595 160.973C58.1749 162.201 59.4211 162.345 60.5228 162.472C64.7311 162.941 68.7948 162.616 72.4071 160.142C73.9062 159.112 73.9062 158.209 72.4432 157.144C71.8291 156.692 71.1609 156.313 70.6371 155.789C69.8604 154.994 70.1675 153.947 71.215 153.748C73.1476 153.405 76.3625 153.911 77.4642 156.494C78.4034 158.733 77.6268 161.424 75.4955 163.122C72.8405 165.217 69.7521 166.156 66.483 166.463C63.9183 166.698 61.3175 166.752 58.7889 166.048C56.6938 165.47 54.9239 164.44 54.3098 162.273C53.7138 160.142 54.3459 158.246 56.0436 156.728C57.7233 155.229 59.5295 154.091 61.8955 154.344C62.7443 154.435 62.8527 153.983 62.8346 153.297C62.7805 151.346 62.3831 149.396 63.1597 147.481C63.3584 146.993 62.925 146.885 62.654 146.686C61.1008 145.44 60.9563 144.501 62.0761 142.803C62.7443 141.774 62.0761 140.076 61.1369 139.317C59.4572 137.963 58.3194 138.902 57.1454 139.931C54.671 142.117 51.7812 143.399 48.5483 143.923C48.2412 143.977 47.9342 144.031 47.6271 144.049C46.9769 144.067 46.11 144.302 45.9113 143.453C45.7126 142.568 46.5073 142.099 47.2117 141.846C48.476 141.413 49.8306 141.25 51.0407 140.708C54.5807 139.083 57.5788 136.59 60.6131 134.206C61.5884 133.429 62.7805 132.797 63.521 131.19C61.7329 131.948 60.2158 132.526 58.7709 133.249C56.6397 134.296 54.5446 135.38 52.0521 135.001C51.2032 134.874 50.3905 134.621 49.7222 134.08C49.2526 133.7 48.9275 133.159 49.2346 132.544C49.5416 131.912 50.1376 132.075 50.6433 132.274C52.4133 132.96 54.075 132.436 55.6824 131.732C57.633 130.865 59.5656 129.944 61.4981 129.023C61.9677 128.806 62.5999 128.643 62.2386 127.903C61.9497 127.307 61.8413 126.53 60.7937 126.693C56.0436 127.433 51.5283 128.86 47.284 131.1C44.4303 132.599 41.9198 134.567 39.2467 136.337C35.0204 139.137 30.3245 140.22 25.2493 139.534C24.5449 139.444 24.0392 139.119 24.0031 138.378C23.9489 137.529 24.6172 137.331 25.2493 137.276C26.8387 137.15 28.4281 137.042 30.0175 136.843C33.9006 136.337 37.1878 134.585 40.2943 132.346C43.0757 130.341 45.9113 128.535 49.1262 127.18C52.016 125.952 54.9058 124.923 57.9401 124.218C58.9515 123.983 59.0057 123.64 58.1749 122.755C56.2604 120.696 54.4181 118.601 53.1358 116.073C52.2689 114.375 51.727 112.551 51.6006 110.708C51.2394 105.868 51.9076 101.118 53.2622 96.4582C53.7679 94.7063 54.1653 92.9182 55.1586 91.3469C55.5199 90.7689 55.9533 90.2632 56.459 89.8298C56.7661 89.5588 57.2899 89.2337 57.5427 89.4866C58.6264 90.6064 60.0532 90.2271 61.3175 90.4077C64.6046 90.8953 67.8918 90.5883 71.1247 89.8478C71.5401 89.7575 72.0097 89.6672 72.4071 89.2518C71.6666 88.7461 70.8177 88.7641 70.0411 88.7461C67.2416 88.6196 64.4421 88.8544 61.6426 89.0892C60.8479 89.1434 59.981 89.306 59.7823 88.3307C59.5656 87.2831 60.5589 87.1025 61.2633 86.9761C64.1892 86.4523 67.079 85.6215 70.0953 85.7299C71.7749 85.784 73.4727 85.4589 75.0982 86.1453C76.3264 86.669 77.3739 87.3554 77.9519 88.6016C78.0602 88.8364 78.2047 89.1254 78.4215 89.2337C80.2818 90.1729 80.6249 91.9971 80.8778 93.731C81.2571 96.3318 81.4377 98.9507 81.5099 101.57C81.6002 104.495 81.7808 107.439 81.9073 110.365C82.1421 116.235 79.5593 120.588 74.7731 123.839C73.2198 124.887 71.6305 125.862 70.023 126.801C69.4992 127.108 69.2825 127.397 69.7882 127.921C70.9803 129.185 70.9261 130.648 70.4565 132.165C70.2578 132.797 70.0772 133.448 69.8966 134.08C69.6798 134.82 69.734 135.398 70.7093 135.506C71.6666 135.615 71.8111 136.337 71.6485 137.096C71.4679 138.017 71.3957 138.938 71.3053 139.877C71.1789 141.25 70.2578 142.135 69.0477 142.623C67.8557 143.092 66.5914 143.417 65.3632 143.797C65.0381 143.905 64.6227 143.797 64.4421 144.375C66.0495 144.952 67.5486 144.754 68.9574 143.833C69.2464 143.634 69.4992 143.363 69.7882 143.182C70.1494 142.966 70.5468 142.93 70.9261 143.182C71.3234 143.435 71.3415 143.851 71.2512 144.248C70.8899 145.892 69.8243 146.867 68.235 147.319C66.5191 147.806 66.6275 147.788 66.9707 149.54C67.3319 151.455 68.0543 153.297 68.1988 155.265C68.253 156.006 68.4156 156.801 67.5125 157.053C66.6997 157.27 66.5733 156.439 66.2843 155.916C66.1218 155.663 66.0857 155.356 65.6341 155.283ZM77.3017 90.7509C76.2902 91.8526 75.4052 92.7737 74.1951 93.1711C69.0116 94.8688 63.81 95.1036 58.6264 93.1711C57.7053 92.8279 57.3982 92.9905 57.1273 93.8935C55.8811 98.0837 54.8516 102.292 54.5807 106.699C54.3459 110.636 55.1406 114.158 57.5066 117.373C59.8365 120.57 63.2139 122.918 65.002 126.566C65.291 127.144 65.7244 127.18 66.1037 126.566C66.7359 125.501 67.675 124.76 68.7045 124.11C70.5468 122.936 72.4793 121.906 74.2313 120.606C77.0488 118.511 78.891 115.729 79.0355 112.081C79.1078 110.167 78.9091 108.252 78.8188 106.338C78.5479 101.208 78.0783 96.1331 77.3017 90.7509Z" fill="black"/>
<path d="M45.3691 152.828C41.3414 153.261 37.1874 153.225 33.1597 154.399C30.9924 155.031 28.7167 155.266 26.4771 155.645C25.6643 155.79 24.8877 155.519 24.5987 154.724C24.3097 153.947 24.8155 153.279 25.4837 152.954C30.288 150.588 35.1103 148.439 40.7454 148.872C44.0506 149.125 47.3739 149.559 50.7152 149.215C52.7742 148.999 54.4358 148.132 56.1155 147.102C57.1269 146.488 58.2467 146.163 59.3846 145.964C60.1251 145.838 60.9198 146.055 61.1546 146.813C61.4435 147.716 60.685 148.078 59.9806 148.276C58.8066 148.619 57.7952 149.27 56.8018 149.938C54.7248 151.329 52.4671 152.177 49.9566 152.34C48.4395 152.466 46.9946 153.117 45.3691 152.828Z" fill="black"/>
<path d="M82.8818 82.2266C83.4958 82.2446 84.0015 82.2446 84.2363 82.8045C84.4711 83.3644 84.2905 83.9063 83.8209 84.2314C82.5386 85.1344 81.1479 85.8207 79.5765 85.9833C78.9263 86.0555 78.3123 85.893 78.0594 85.1886C77.7885 84.4481 78.222 84.0146 78.7819 83.6534C80.0461 82.7684 81.491 82.4072 82.8818 82.2266Z" fill="black"/>
<path d="M77.1591 78.6682C77.1952 79.5893 77.2494 80.5285 76.9424 81.4316C76.6895 82.154 76.2199 82.732 75.4252 82.6778C74.6305 82.6236 74.5583 81.865 74.4861 81.269C74.2513 79.5351 74.8473 77.9638 75.4252 76.3744C75.5697 75.9952 75.8406 75.67 76.3283 75.7603C76.8159 75.8506 77.123 76.1938 77.1591 76.6815C77.1952 77.3317 77.1591 77.9999 77.1591 78.6682Z" fill="black"/>
<path d="M77.1553 109.897C77.4624 113.545 76.3245 116.706 72.9471 118.873C66.138 123.262 60.2501 119.18 57.866 114.177C56.9088 112.173 56.4933 110.15 57.0894 107.964C57.288 107.224 57.6854 106.718 58.3537 106.339C59.8527 105.49 61.4241 104.948 63.1579 104.93C66.2825 104.93 69.2084 104.081 72.0802 102.961C75.0783 101.787 76.5232 102.745 76.9386 105.941C77.1012 107.206 77.1734 108.452 77.1553 109.897Z" fill="#BD1823"/>
</svg>
