<svg width="210" height="38" viewBox="0 0 210 38" fill="none" xmlns="http://www.w3.org/2000/svg">
<path d="M9.8523 2.4313V17.9236C10.5131 17.8838 11.1466 17.8791 11.7724 17.8027C13.3265 17.6131 14.4469 16.8259 14.9953 15.3271C15.1451 14.9167 15.2669 14.4892 15.3371 14.0593C15.6647 12.0589 15.6265 10.0421 15.5212 8.02919C15.4752 7.14367 15.3503 6.25425 15.167 5.38667C14.9493 4.35682 14.4461 3.4713 13.4576 2.97042C12.3216 2.39541 11.0912 2.42896 9.8523 2.4313ZM9.83669 35.577C10.7238 35.5201 11.5789 35.5201 12.4168 35.4007C14.2721 35.1347 15.4837 34.0978 15.9924 32.2659C16.3303 31.048 16.4231 29.8036 16.4543 28.5506C16.5042 26.5611 16.5089 24.5716 16.1118 22.6094C15.8239 21.1871 15.2317 19.9607 13.7915 19.3482C12.9466 18.9886 12.0517 18.8676 11.1451 18.8255C10.7136 18.8052 10.2806 18.8224 9.83669 18.8224V35.577ZM2.35073 2.42506H0V1.52862H0.413504C4.11397 1.52862 7.81521 1.52472 11.5157 1.5294C13.8321 1.53252 16.1134 1.7775 18.2901 2.62713C20.4411 3.46662 22.2051 4.77266 23.0602 6.99856C24.4076 10.5016 23.4924 14.5477 19.6055 16.6605C18.0498 17.5062 16.3763 17.9548 14.6365 18.199C14.5725 18.2076 14.5085 18.2138 14.4453 18.2279C14.425 18.2326 14.4086 18.2599 14.3431 18.3207C14.8409 18.3886 15.3004 18.4401 15.7553 18.5158C17.9616 18.8809 19.9722 19.6868 21.7378 21.0912C26.0983 24.5599 25.787 31.2462 21.1191 34.2835C19.185 35.5427 17.0434 36.1442 14.7714 36.3408C13.9741 36.4095 13.1697 36.422 12.3684 36.4235C8.40894 36.4321 4.44945 36.4274 0.489962 36.4274H0.00468157V35.5443H2.35073V2.42506Z" fill="black"/>
<path d="M65.0585 35.5274H67.485V36.4082H55.2062V35.5508H57.5461V2.42299H55.2031V1.55542H67.485V2.41285H65.057V18.2742C65.1576 18.1571 65.2255 18.0924 65.277 18.0167C68.0483 13.8864 70.8281 9.76149 73.5775 5.61632C74.016 4.9555 74.353 4.219 74.6698 3.48874C74.9023 2.95274 74.7103 2.63598 74.1338 2.54002C73.5767 2.44718 73.0064 2.43235 72.4119 2.38086V1.56088H79.8081V2.40583C79.539 2.41831 79.2729 2.44796 79.0076 2.44093C77.6813 2.40583 76.653 2.95508 75.904 4.02863C74.5364 5.98847 73.1796 7.95612 71.8213 9.92299C71.2697 10.7196 70.7321 11.5263 70.1743 12.3182C70.0401 12.5085 70.0151 12.6529 70.1228 12.8721C73.7772 20.323 77.4254 27.7769 81.0666 35.2348C81.1821 35.472 81.3194 35.5492 81.5721 35.5391C82.034 35.5203 82.4967 35.5336 82.9835 35.5336V36.3996H70.5137V35.5422H73.1749C70.47 29.8991 67.8009 24.33 65.1311 18.761C65.1069 18.768 65.0827 18.7743 65.0585 18.7813V35.5274Z" fill="black"/>
<path d="M144.002 18.9788C143.998 18.9788 143.995 18.9788 143.991 18.9788C143.991 22.829 143.982 26.6793 144 30.5295C144.003 31.2879 144.05 32.0572 144.185 32.8015C144.586 35.0063 145.899 36.1454 148.035 36.2218C150.034 36.2928 151.456 35.3012 151.987 33.3765C152.181 32.6743 152.305 31.9284 152.307 31.2021C152.33 23.1013 152.325 14.9998 152.316 6.89906C152.316 6.34669 152.253 5.78807 152.156 5.24427C151.751 2.96923 150.428 1.80284 148.214 1.73418C146.24 1.67255 144.855 2.65091 144.336 4.55692C144.146 5.25988 144.021 6.00418 144.017 6.73054C143.986 10.8133 144.002 14.896 144.002 18.9788ZM135.633 18.8547C135.669 15.2651 136.293 11.6902 137.906 8.33306C139.002 6.05099 140.463 4.04668 142.583 2.60254C146.536 -0.0914656 151.486 0.321256 154.989 3.60041C157.261 5.72799 158.689 8.36427 159.552 11.3095C161.223 17.0127 161.098 22.6808 159.003 28.2646C158.078 30.7293 156.706 32.9208 154.674 34.6419C150.618 38.0771 145.171 37.9429 141.281 34.3228C139.133 32.3256 137.792 29.8313 136.883 27.0834C136.011 24.4479 135.651 21.7313 135.633 18.8547Z" fill="black"/>
<path d="M99.4974 25.7997C99.3936 25.806 99.3179 25.8138 99.2423 25.8145C99.062 25.8169 98.8818 25.8153 98.6641 25.8153C98.6337 25.2879 98.6111 24.7761 98.5744 24.2666C98.4995 23.2438 98.3263 22.2405 97.9198 21.2918C97.2567 19.7454 96.0279 18.9964 94.3949 18.8326C94.2014 18.8131 94.0072 18.8115 93.8129 18.8037C93.7364 18.8006 93.6592 18.8029 93.5523 18.8029V35.5334C94.0298 35.5334 94.5143 35.535 94.9988 35.5334C96.4016 35.5295 97.7911 35.4234 99.1237 34.9412C101.431 34.1057 102.828 32.3908 103.69 30.1735C104.285 28.6474 104.59 27.0527 104.787 25.433C104.806 25.2801 104.83 25.1288 104.853 24.9579H105.639C105.506 28.773 105.375 32.5757 105.241 36.4033H83.7039V35.549H86.0484V2.42747H83.6992V1.55756H104.974V10.671H104.173C103.95 9.69731 103.794 8.72597 103.502 7.79754C102.46 4.47704 100.016 2.6194 96.5311 2.46883C95.5504 2.42591 94.5666 2.4618 93.5531 2.4618V17.8511C96.2206 17.912 97.6273 16.8743 98.1711 14.7904C98.3817 13.9837 98.4519 13.1395 98.5736 12.3102C98.6165 12.0192 98.6228 11.7227 98.6462 11.4114H99.4974V25.7997Z" fill="black"/>
<path d="M124.59 2.45946V35.5326H127.72V36.3994H113.967V35.5396H117.086V2.44854C116.253 2.50471 115.472 2.70756 114.726 3.0329C112.546 3.98161 111.291 5.73237 110.532 7.90287C110.016 9.37665 109.792 10.9074 109.68 12.4576C109.673 12.5606 109.669 12.6644 109.659 12.7666C109.657 12.79 109.636 12.8111 109.611 12.854H108.789V1.55912H132.878V12.8508H132.027C131.979 12.3414 131.941 11.8311 131.88 11.324C131.623 9.20033 131.13 7.1531 129.85 5.37972C128.605 3.65705 126.891 2.73096 124.801 2.46024C124.739 2.45244 124.676 2.45946 124.59 2.45946Z" fill="black"/>
<path d="M188.398 2.3909C187.964 2.44083 187.55 2.46346 187.148 2.53992C186.223 2.7139 185.817 3.20699 185.789 4.144C185.782 4.325 185.785 4.50601 185.785 4.68623C185.784 15.3226 185.784 25.959 185.784 36.5946V37.1243C185.115 37.1243 184.484 37.1384 183.855 37.1111C183.748 37.1072 183.612 36.9496 183.55 36.831C182.353 34.5286 181.166 32.2216 179.977 29.9153C176.037 22.2741 172.097 14.6329 168.157 6.9917C168.089 6.86141 168.019 6.73268 167.868 6.62267C167.862 6.75686 167.85 6.89106 167.85 7.02603C167.85 15.8009 167.85 24.5757 167.85 33.3513C167.85 34.7159 168.474 35.3868 169.849 35.4976C170.106 35.5187 170.363 35.5319 170.647 35.5514V36.3956H164.057V35.5733C164.466 35.521 164.868 35.5007 165.255 35.4141C166.095 35.2261 166.54 34.701 166.621 33.8475C166.646 33.5776 166.661 33.3061 166.661 33.0353C166.663 23.5232 166.663 14.0119 166.662 4.49976C166.662 3.02676 166.194 2.53602 164.711 2.45254C164.494 2.44006 164.278 2.42913 164.047 2.41665V1.5483C164.169 1.54127 164.282 1.52879 164.395 1.52879C167.319 1.52723 170.243 1.53269 173.167 1.52021C173.449 1.51865 173.568 1.62709 173.688 1.85803C177.219 8.67926 180.756 15.4966 184.294 22.3147C184.358 22.438 184.428 22.5581 184.569 22.6728C184.578 22.569 184.595 22.4661 184.595 22.3623C184.596 16.3922 184.598 10.4214 184.594 4.45061C184.593 3.32557 184.11 2.75993 182.967 2.54694C182.537 2.46736 182.097 2.44396 181.633 2.39168V1.54908H188.398V2.3909Z" fill="black"/>
<path d="M46.1826 2.27432V1.42157H52.4975V2.27276C52.2237 2.28914 51.9428 2.30397 51.6612 2.32347C50.4784 2.40695 50.0462 2.86259 50.0454 4.03834C50.0438 7.96739 50.0477 23.8396 50.0431 27.7812C50.0415 29.326 49.8987 30.8497 49.3417 32.311C48.549 34.3925 47.0838 35.7836 44.9718 36.4476C42.1927 37.3222 39.363 37.4259 36.5605 36.6184C33.0481 35.6065 31.1467 32.9944 30.7278 29.4625C30.6412 28.7338 30.6287 27.9934 30.6279 27.2584C30.6209 19.1678 30.624 11.0772 30.624 2.98664V2.4327H28.1562V1.55108H40.6316V2.40383H38.1115C38.0959 2.54583 38.0756 2.64413 38.0756 2.74244C38.078 11.8286 38.0772 20.9147 38.0881 30C38.0897 31.253 38.3066 32.4717 38.9471 33.5757C39.6001 34.7015 40.6058 35.3303 41.8729 35.5332C43.5323 35.7992 45.1036 35.5901 46.4635 34.515C47.5659 33.6451 48.208 32.4623 48.4827 31.1188C48.6941 30.0882 48.8322 29.0232 48.8361 27.9731C48.865 20.2312 48.854 12.3591 48.8462 4.61724C48.8455 4.20764 48.8127 3.78556 48.7089 3.39156C48.5053 2.61449 47.8562 2.41553 47.1571 2.33361C46.8388 2.29616 46.5166 2.29382 46.1826 2.27432Z" fill="black"/>
<path d="M201.521 10.0502C201.521 10.0502 201.532 5.40406 199.806 4.10679C198.079 2.80953 194.054 6.43812 193.622 7.65169C193.222 8.77606 192.169 14.7107 192.014 15.5828C192.001 15.6555 191.998 15.726 192.001 15.7998L192.873 33.032C192.895 33.4659 193.418 33.6697 193.708 33.3459C196.563 30.1567 206.349 19.1641 206.828 17.8173C207.39 16.2392 210.716 8.8058 209.86 7.31031C209.218 6.18814 205.56 3.69163 204.713 5.30495C203.866 6.91827 201.521 10.0502 201.521 10.0502Z" fill="#BE1E2D"/>
</svg>
