<svg width="103" height="154" viewBox="0 0 103 154" fill="none" xmlns="http://www.w3.org/2000/svg">
<path d="M71.6092 68.0363C71.6092 68.0363 74.2981 88.454 65.5872 92.0782C56.8781 95.7024 48.9854 93.4803 39.6302 86.0029C30.2751 78.5256 25.2629 70.2317 23.8945 68.2262C25.9817 66.0627 39.9763 57.8416 71.6092 68.0363Z" fill="#F09EC6"/>
<path d="M57.7849 95.5967C34.2878 95.5967 14.2145 55.9735 13.2969 54.133C12.8585 53.2562 13.2152 52.1913 14.092 51.7529C14.9705 51.3163 16.0354 51.6713 16.472 52.5463C16.7046 53.0131 39.9602 98.9085 63.2603 91.1507C65.8817 90.2775 67.7311 88.5257 68.9167 85.796C75.5545 70.5147 58.5676 33.071 58.3954 32.693C57.9872 31.802 58.3777 30.7477 59.2687 30.3395C60.1632 29.9366 61.2156 30.3253 61.6221 31.2163C62.3533 32.8101 79.4343 70.4916 72.1717 87.2088C70.5832 90.865 67.9636 93.3249 64.3837 94.5176C62.1634 95.2577 59.9573 95.5967 57.7849 95.5967Z" fill="#100F0D"/>
<path d="M53.2365 31.739C49.0657 31.739 42.4047 33.0878 33.1063 38.4816C20.9913 45.5099 16.2472 51.2391 16.501 52.6128C16.6323 52.879 17.4878 54.4356 20.1873 55.3851C23.4228 56.521 29.4733 56.8138 39.9448 51.7414C57.4234 43.2825 58.8929 34.0693 58.4989 32.8926C58.1475 32.5217 56.4153 31.739 53.2365 31.739ZM24.6102 59.6074C22.2727 59.6074 20.4305 59.2312 19.0106 58.7342C15.0847 57.3552 13.6346 54.842 13.2832 54.1037C10.4364 48.1207 26.3726 38.2828 31.3244 35.4093C48.3877 25.5128 59.4076 27.6622 61.5126 31.0077C62.2296 32.1472 62.2935 33.9291 61.6918 36.027C60.7778 39.2163 56.9797 47.4409 41.4907 54.9378C34.1606 58.484 28.648 59.6074 24.6102 59.6074Z" fill="#100F0D"/>
<path d="M93.3978 146.798C92.7784 146.798 92.1785 146.473 91.8519 145.898L62.2778 93.709C61.7951 92.8553 62.0933 91.7726 62.947 91.2899C63.8007 90.8071 64.8833 91.1053 65.3661 91.959L94.9401 144.148C95.4229 145 95.1247 146.084 94.271 146.567C93.9942 146.723 93.6942 146.798 93.3978 146.798Z" fill="#100F0D"/>
<path d="M84.4093 153.466C83.8307 153.466 83.2628 153.184 82.9238 152.664C82.386 151.844 82.615 150.743 83.4349 150.205L100.251 139.189C101.073 138.653 102.172 138.884 102.71 139.702C103.246 140.522 103.017 141.622 102.197 142.16L85.3802 153.177C85.0802 153.372 84.743 153.466 84.4093 153.466Z" fill="#100F0D"/>
<path d="M59.7698 59.0711C59.7698 60.5407 58.5771 61.7334 57.1076 61.7334C55.638 61.7334 54.4453 60.5407 54.4453 59.0711C54.4453 57.6016 55.638 56.4089 57.1076 56.4089C58.5771 56.4089 59.7698 57.6016 59.7698 59.0711Z" fill="#211D1D"/>
<path d="M57.1083 57.2956C56.1303 57.2956 55.3334 58.0907 55.3334 59.0704C55.3334 60.0502 56.1303 60.8453 57.1083 60.8453C58.0862 60.8453 58.8831 60.0502 58.8831 59.0704C58.8831 58.0907 58.0862 57.2956 57.1083 57.2956ZM57.1083 62.6201C55.1506 62.6201 53.5586 61.0281 53.5586 59.0704C53.5586 57.1128 55.1506 55.5208 57.1083 55.5208C59.0659 55.5208 60.6579 57.1128 60.6579 59.0704C60.6579 61.0281 59.0659 62.6201 57.1083 62.6201Z" fill="#211D1D"/>
<path d="M42.0237 67.9452C42.0237 69.4147 40.831 70.6074 39.3615 70.6074C37.8919 70.6074 36.6992 69.4147 36.6992 67.9452C36.6992 66.4756 37.8919 65.2829 39.3615 65.2829C40.831 65.2829 42.0237 66.4756 42.0237 67.9452Z" fill="#211D1D"/>
<path d="M39.3622 66.1696C38.3842 66.1696 37.5873 66.9648 37.5873 67.9445C37.5873 68.9242 38.3842 69.7193 39.3622 69.7193C40.3401 69.7193 41.137 68.9242 41.137 67.9445C41.137 66.9648 40.3401 66.1696 39.3622 66.1696ZM39.3622 71.4941C37.4045 71.4941 35.8125 69.9021 35.8125 67.9445C35.8125 65.9868 37.4045 64.3948 39.3622 64.3948C41.3198 64.3948 42.9118 65.9868 42.9118 67.9445C42.9118 69.9021 41.3198 71.4941 39.3622 71.4941Z" fill="#211D1D"/>
<path d="M53.6244 83.6367C49.505 83.6367 46.2695 81.7057 44.4503 79.5617C43.8149 78.8145 43.9054 77.6928 44.6544 77.0592C45.4034 76.4273 46.5215 76.5196 47.1551 77.2633C48.9637 79.3949 52.8328 81.1928 57.7953 79.244C62.3779 77.4443 60.667 70.6893 60.6492 70.6201C60.4007 69.6723 60.9687 68.7033 61.9165 68.453C62.8695 68.2152 63.8368 68.7725 64.0835 69.722C64.9763 73.1279 65.081 80.1953 59.0927 82.5487C57.1457 83.3119 55.3105 83.6367 53.6244 83.6367Z" fill="#100F0D"/>
<path d="M49.5076 19.8994C48.5935 19.8994 47.8161 19.1966 47.7398 18.2701L46.3927 1.92211C46.3129 0.945948 47.0388 0.0887012 48.0167 0.0070591C48.9929 -0.0763588 49.8501 0.654875 49.93 1.63103L51.2788 17.9773C51.3587 18.9552 50.6328 19.8124 49.6549 19.8923C49.6052 19.8959 49.5555 19.8994 49.5076 19.8994Z" fill="#100F0D"/>
<path d="M31.6398 23.8213C31.0328 23.8213 30.4417 23.5107 30.1116 22.9516L22.3698 9.87286C21.8693 9.02981 22.1479 7.94006 22.9928 7.44133C23.834 6.9426 24.9238 7.21948 25.4243 8.0643L33.1643 21.1413C33.6648 21.9861 33.3862 23.0741 32.5414 23.5728C32.2592 23.7414 31.9468 23.8213 31.6398 23.8213Z" fill="#100F0D"/>
<path d="M11.2136 33.7285C10.8019 33.7285 10.3901 33.5865 10.0529 33.2972L0.614322 25.133C-0.12756 24.4923 -0.209202 23.3706 0.433289 22.6287C1.074 21.8868 2.19215 21.8069 2.93581 22.4477L12.3762 30.6101C13.1163 31.2508 13.1979 32.3725 12.5572 33.1144C12.2058 33.5209 11.7106 33.7285 11.2136 33.7285Z" fill="#100F0D"/>
</svg>
