<svg width="317" height="318" viewBox="0 0 317 318" fill="none" xmlns="http://www.w3.org/2000/svg">
<path d="M89.9021 163.512H92.0577V182.976H89.9021V171.881H86.5736V182.976H84.418V163.512H86.5736V169.693H89.9021V163.512Z" fill="white"/>
<path d="M107.494 179.235H103.658L103.214 182.976H101.059L103.278 163.512H107.874L110.125 182.976H107.937L107.494 179.235ZM107.272 177.27L105.94 165.667H105.211L103.88 177.27H107.272Z" fill="white"/>
<path d="M124.33 182.976V170.613L121.128 173.846V182.976H118.973V163.512H121.128V171.215L124.33 167.887V163.512H126.486V182.976H124.33ZM124.805 161.483H120.716V160.057H124.805V161.483Z" fill="white"/>
<path d="M140.275 169.693C140.814 169.693 141.29 169.788 141.67 169.947C142.05 170.105 142.367 170.327 142.589 170.581C142.811 170.866 143.001 171.183 143.096 171.532C143.223 171.881 143.255 172.293 143.255 172.705V179.996C143.255 180.535 143.16 181.01 143.001 181.391C142.843 181.771 142.621 182.088 142.367 182.31C142.082 182.532 141.765 182.722 141.416 182.817C141.068 182.944 140.656 182.976 140.243 182.976H136.027V163.512H142.684V165.667H138.183V169.662H140.275V169.693ZM141.099 172.673C141.099 172.451 141.036 172.261 140.909 172.071C140.782 171.912 140.56 171.817 140.243 171.817H138.183V180.788H140.243C140.497 180.788 140.687 180.725 140.846 180.598C141.004 180.471 141.099 180.249 141.099 179.932V172.673Z" fill="white"/>
<path d="M160.149 163.512V182.976H157.994V165.699H155.521L154.887 180.313C154.856 181.2 154.665 181.898 154.317 182.342C153.968 182.785 153.334 183.007 152.446 183.007H151.273V180.852H152.161C152.383 180.852 152.541 180.82 152.605 180.757C152.668 180.693 152.7 180.535 152.732 180.313L153.461 163.543H160.149V163.512Z" fill="white"/>
<path d="M175.049 182.976V170.613L171.847 173.846V182.976H169.691V163.512H171.847V171.215L175.049 167.886V163.512H177.204V182.976H175.049Z" fill="white"/>
<path d="M188.424 170.803L185.983 163.512H188.266L190.389 169.883H192.038V163.512H194.193V169.883H195.81L197.934 163.512H200.216L197.776 170.803L200.375 182.976H198.156L195.747 171.722H194.162V182.976H192.006V171.722H190.421L188.012 182.976H185.793L188.424 170.803Z" fill="white"/>
<path d="M215.91 163.512V182.976H213.722V176.794H211.535C211.123 176.794 210.742 176.731 210.362 176.636C210.013 176.509 209.665 176.35 209.411 176.128C209.126 175.906 208.936 175.589 208.777 175.209C208.619 174.829 208.523 174.353 208.523 173.814V163.543H210.679V173.814C210.679 174.131 210.774 174.353 210.933 174.48C211.091 174.607 211.281 174.67 211.535 174.67H213.722V163.543H215.91V163.512Z" fill="white"/>
<path d="M231.443 179.235H227.607L227.163 182.976H225.008L227.227 163.512H231.823L234.074 182.976H231.887L231.443 179.235ZM231.221 177.27L229.89 165.667H229.161L227.829 177.27H231.221Z" fill="white"/>
<path d="M99.3487 189.189V228.466H95.0058V193.564H88.7609V228.466H84.418V189.189H99.3487Z" fill="white"/>
<path d="M120.334 189.189V193.532H111.616V201.616H118.178V206.022H111.616V224.059H120.334V228.466H107.273V189.189H120.334Z" fill="white"/>
<path d="M127.277 189.189H131.62V202.028H135.361L139.672 189.189H144.3L139.387 203.898L144.649 228.434H140.179L135.329 205.705H131.652V228.466H127.309V189.189H127.277Z" fill="white"/>
<path d="M162.462 220.921H154.696L153.776 228.434H149.434L153.903 189.189H163.191L167.724 228.466H163.318L162.462 220.921ZM161.987 216.959L159.261 193.532H157.802L155.14 216.959H161.987Z" fill="white"/>
<path d="M188.807 209.953C188.807 211.062 188.649 211.982 188.332 212.743C188.015 213.503 187.571 214.137 187 214.613C186.43 215.088 185.796 215.437 185.035 215.659C184.306 215.881 183.513 216.008 182.689 216.008H178.663V228.466H174.32V189.189H182.689C183.767 189.189 184.718 189.348 185.479 189.665C186.239 189.982 186.873 190.426 187.381 190.965C187.856 191.504 188.237 192.138 188.459 192.898C188.68 193.659 188.807 194.42 188.807 195.244V209.953ZM184.401 195.244C184.401 194.8 184.274 194.388 184.021 194.071C183.767 193.723 183.323 193.564 182.689 193.564H178.663V211.665H182.689C183.165 211.665 183.577 211.538 183.894 211.284C184.211 211.031 184.369 210.587 184.369 209.953V195.244H184.401Z" fill="white"/>
<path d="M207.067 189.189H211.442V228.466H207.099V206.054H200.347V228.466H196.004V189.189H200.347V201.679H207.067V189.189Z" fill="white"/>
<path d="M233.788 189.189V228.466H229.445V209.699H226.941L222.63 228.466H218.16L222.503 209.414C221.394 209.065 220.506 208.463 219.777 207.544C219.048 206.624 218.699 205.325 218.699 203.645V195.276C218.699 194.452 218.826 193.659 219.048 192.93C219.27 192.201 219.618 191.567 220.094 190.996C220.569 190.457 221.172 190.014 221.964 189.697C222.725 189.38 223.676 189.221 224.754 189.221H233.788V189.189ZM229.414 193.564H224.785C224.151 193.564 223.708 193.723 223.454 194.071C223.2 194.42 223.074 194.8 223.074 195.244V203.613C223.074 204.215 223.232 204.659 223.581 204.913C223.93 205.166 224.31 205.293 224.754 205.293H229.382V193.564H229.414Z" fill="white"/>
<path d="M270.117 51.0087C269.293 49.7724 268.215 48.3459 266.82 46.7926C265.457 45.2393 263.935 43.7811 262.319 42.4814C260.702 41.1817 259.275 40.4843 258.103 40.4209C253.411 40.2941 248.085 40.4526 242.126 40.9281C236.166 41.4036 229.89 42.0376 223.296 42.8935C216.702 43.7494 209.95 44.7321 203.103 45.8416C196.224 46.9511 189.567 48.1557 183.132 49.4554C176.697 50.7234 170.642 52.0231 164.936 53.3545C159.262 54.6542 154.285 55.9222 150.037 57.0951C149.593 57.2219 149.784 57.7925 150.544 58.7752C151.337 59.7896 152.32 60.8674 153.556 62.0086C154.761 63.1815 155.997 64.1959 157.201 65.0518C158.406 65.9394 159.294 66.2564 159.769 66.0979C160.657 65.7175 162.052 65.2737 164.049 64.7982C166.014 64.291 168.455 63.7204 171.308 63.1181C174.193 62.4841 177.426 61.8501 181.008 61.1527C184.59 60.4553 188.426 59.7896 192.484 59.0922C189.662 64.7031 186.904 70.4408 184.242 76.2419C181.547 82.043 179.233 87.8441 177.299 93.5818C176.729 95.2936 176.19 96.9737 175.714 98.6855C175.524 98.8123 175.144 99.3512 174.573 100.302C173.907 101.38 173.051 102.775 172.037 104.455C171.023 106.135 169.913 107.974 168.74 109.971C167.536 111.968 166.426 113.87 165.317 115.645C164.239 117.42 163.256 118.974 162.432 120.273C161.576 121.573 161.037 122.365 160.752 122.651C160.625 122.778 160.72 121.953 161.069 120.178C161.418 118.403 161.956 116.089 162.686 113.299C163.415 110.51 164.302 107.371 165.317 103.884C166.331 100.429 167.377 97.0688 168.455 93.8671C169.533 90.6337 170.642 87.749 171.752 85.213C172.861 82.6453 173.907 80.8384 174.89 79.7923C174.953 79.7289 174.763 79.5704 174.319 79.3168C173.876 79.0632 173.21 78.8413 172.386 78.5877C171.53 78.3341 170.579 78.0488 169.501 77.7318C168.423 77.4148 167.282 77.0978 166.077 76.7491C163.288 75.9883 160.086 75.1641 156.504 74.3399C155.933 74.5618 155.268 75.386 154.507 76.8125C153.746 78.239 152.954 80.0776 152.193 82.3283C151.432 84.579 150.64 87.115 149.815 89.9363C149.023 92.7576 148.294 95.7057 147.66 98.7172C146.804 99.9852 145.568 101.856 143.919 104.392C142.271 106.928 140.622 109.464 138.942 112.063C137.262 114.662 135.709 116.976 134.314 119.037C132.919 121.097 132 122.302 131.588 122.651C131.461 122.778 131.556 121.953 131.905 120.178C132.254 118.403 132.792 116.089 133.522 113.299C134.251 110.51 135.138 107.371 136.153 103.884C137.167 100.429 138.213 97.0688 139.291 93.8671C140.369 90.6337 141.478 87.749 142.588 85.213C143.697 82.6453 144.743 80.8384 145.726 79.7923C145.789 79.7289 145.599 79.5704 145.155 79.3168C144.712 79.0632 144.046 78.8413 143.222 78.5877C142.366 78.3341 141.415 78.0488 140.337 77.7318C139.259 77.4148 138.118 77.0978 136.913 76.7491C134.124 75.9883 130.922 75.1641 127.34 74.3399C126.643 74.5618 125.787 75.7347 124.804 77.8586C124.392 78.7462 123.98 79.7289 123.568 80.8384C123.219 81.409 122.87 82.043 122.585 82.5185C121.793 83.9767 121 85.53 119.827 87.5271C118.654 89.4925 116.942 92.0285 115.579 94.1841C113.487 97.4175 111.458 100.334 108.922 103.662C106.386 106.991 103.85 110.256 101.188 112.982C98.5248 115.708 96.3057 117.801 93.7697 119.639C91.4874 121.319 87.6834 122.746 84.7036 122.207C80.1705 121.414 75.1936 116.501 72.1821 112.063C69.0755 107.466 67.2369 102.553 66.6346 97.3224C66.0323 92.0919 66.4127 86.7029 67.7758 81.1871C69.1389 75.6713 71.0726 70.314 73.5769 65.1152C76.0812 59.9164 78.9025 55.0663 82.1042 50.5015C85.2742 45.9684 88.3491 42.0376 91.3289 38.7408C94.3087 35.444 94.9427 34.5564 97.2251 32.8763C99.4758 31.1962 101.98 28.9138 103.787 29.5478C103.85 29.5795 103.882 29.6112 103.945 29.6429C105.182 30.5939 104.833 32.2423 104.484 35.1587C104.136 38.1385 103.216 41.15 102.36 45.3978C101.505 49.6773 99.9196 54.7493 98.1127 59.5043C96.4009 64.0374 95.0378 67.4927 93.3577 71.6137C92.058 74.8154 90.7266 77.288 88.9197 81.3456C88.1589 83.0574 98.4614 83.0257 101.473 81.5358C105.213 79.6655 107.052 76.654 109.588 72.7232C112.124 68.8241 114.406 64.7348 116.467 60.4553C118.527 56.1758 120.208 52.2133 121.539 48.5044C122.87 44.7955 123.853 41.6889 124.265 39.0895C124.899 35.0953 124.646 33.1616 124.233 30.9109C123.251 25.5219 119.32 20.1646 116.594 17.5018C109.113 10.1791 102.741 10.3059 95.6717 10.7497C93.738 10.8765 88.0638 11.8275 85.2108 13.6344C82.3578 15.4413 79.3146 18.0407 76.0812 21.4326C72.8478 24.8245 69.6144 28.8504 66.2859 33.5103C62.9891 38.1702 59.9459 43.2422 57.1563 48.7263C54.3667 54.2104 51.9892 59.9481 50.0238 65.9394C48.0584 71.9307 46.7587 77.9854 46.1564 84.0401C45.5541 90.1265 45.8077 96.0861 46.9489 101.982C48.0901 107.847 49.8336 112.919 52.3062 117.484C54.3667 121.034 58.3609 126.55 64.4156 131.21C67.4271 133.556 71.2945 135.648 75.7325 136.947C79.378 138.025 83.1503 138.406 86.2252 138.215C88.5076 138.057 91.6142 137.391 93.7697 136.377C96.4642 135.109 98.4297 133.777 100.966 131.907C104.548 129.244 106.64 126.994 109.049 124.267C111.522 121.478 113.297 119.386 115.548 116.533C115.674 116.374 115.801 116.216 115.928 116.057C115.896 116.533 115.865 117.008 115.833 117.484C115.706 120.432 115.896 122.556 116.467 123.887C117.164 125.504 118.369 126.93 120.081 128.198C121.793 129.466 123.599 130.481 125.501 131.305C127.403 132.097 129.147 132.7 130.795 133.08C132.444 133.46 133.585 133.619 134.219 133.556C134.568 133.492 135.107 133.08 135.804 132.351C136.501 131.622 137.326 130.607 138.277 129.371C139.228 128.103 140.242 126.677 141.383 125.06C142.493 123.443 143.634 121.763 144.743 120.02C144.87 121.763 145.124 123.063 145.472 123.919C146.17 125.535 147.374 126.962 149.086 128.23C150.798 129.498 152.605 130.512 154.507 131.337C156.409 132.129 158.184 132.731 159.864 133.112C161.544 133.492 162.654 133.651 163.224 133.587C163.7 133.524 164.619 132.7 165.919 131.178C167.219 129.625 168.677 127.691 170.325 125.345C170.991 124.394 171.657 123.412 172.354 122.397C172.449 123.824 172.608 125.25 172.83 126.677C172.83 126.867 173.083 127.089 173.59 127.374C174.098 127.659 174.732 127.976 175.556 128.357C176.38 128.737 177.268 129.118 178.219 129.53C179.201 129.942 180.216 130.322 181.262 130.703C183.703 131.654 186.461 132.636 189.504 133.714C189.631 128.579 190.328 122.999 191.628 116.976C192.896 110.953 194.639 104.709 196.795 98.21C198.95 91.7432 201.518 85.1179 204.498 78.3658C207.478 71.6137 210.743 64.9567 214.293 58.3948C214.42 58.268 213.913 58.0461 212.803 57.6974C211.694 57.3487 210.299 56.9683 208.682 56.5245C214.483 55.7003 220.38 54.9395 226.307 54.2421C232.235 53.513 237.941 52.9741 243.425 52.5937C248.91 52.2133 253.982 52.0231 258.673 52.0231C263.365 52.0231 267.359 52.3084 270.687 52.879C271.163 52.8473 270.941 52.245 270.117 51.0087Z" fill="white"/>
<path d="M246.721 92.5982C246.373 90.823 245.96 89.3331 245.517 88.1285C245.073 86.9239 244.597 86.1314 244.09 85.7193C242.981 84.8634 241.713 84.1343 240.35 83.4686C238.986 82.8029 237.75 82.264 236.609 81.8836C235.499 81.5032 234.548 81.2813 233.819 81.1862C233.09 81.1228 232.773 81.2496 232.932 81.5983C233.344 82.9931 233.597 84.8317 233.661 87.0507C233.724 89.3014 233.661 91.7423 233.439 94.4051C233.217 97.0679 232.837 99.8258 232.298 102.647C231.727 105.468 230.998 108.163 230.079 110.699C227.353 109.938 225.324 108.226 224.024 105.595C222.724 102.964 222.661 99.4454 223.866 95.0391C224.848 92.3763 225.958 89.872 227.162 87.5262C228.399 85.1804 229.793 83.1199 231.41 81.3764C231.695 81.0911 231.378 80.6473 230.523 80.0767C229.635 79.4744 228.494 78.8721 227.099 78.2381C225.704 77.6041 224.151 77.0018 222.439 76.4629C220.727 75.8923 219.142 75.4485 217.652 75.0998C216.67 74.8779 215.402 75.7021 213.817 77.5724C212.232 79.4427 210.678 81.8836 209.093 84.9268C207.508 87.97 206.082 91.3936 204.782 95.2293C203.482 99.0333 202.563 102.806 202.056 106.514C201.517 110.223 201.58 113.647 202.214 116.754C202.848 119.86 204.275 122.269 206.526 123.949C208.142 125.217 209.918 126.454 211.883 127.69C213.848 128.926 215.782 130.004 217.716 130.955C219.649 131.906 221.488 132.635 223.232 133.111C224.975 133.586 226.497 133.745 227.733 133.523C230.174 133.111 232.361 132.413 234.295 131.431C236.229 130.448 237.909 129.212 239.399 127.753C240.857 126.295 242.125 124.647 243.139 122.808C243.678 121.857 245.612 116.88 246.626 111.048C247.545 105.785 247.545 99.6356 247.45 98.5895C247.355 96.3705 247.102 94.3734 246.721 92.5982ZM224.151 121.16C222.534 122.745 220.727 123.601 218.698 123.728C218.572 123.854 218.477 123.601 218.445 122.872C218.413 122.174 218.445 121.16 218.54 119.828C218.635 118.497 218.825 116.912 219.111 115.105C219.396 113.298 219.745 111.333 220.157 109.209C221.266 110.414 222.534 111.491 223.897 112.474C225.26 113.457 226.75 114.344 228.367 115.105C227.162 117.578 225.768 119.607 224.151 121.16Z" fill="white"/>
<path d="M88.8564 267.108C89.7123 267.108 89.7123 265.809 88.8564 265.809C88.0322 265.809 88.0322 267.108 88.8564 267.108Z" fill="white"/>
<path d="M84.4193 242.003C85.2752 242.003 85.2752 240.703 84.4193 240.703C83.5634 240.703 83.5634 242.003 84.4193 242.003Z" fill="white"/>
<path d="M87.2392 240.575C88.0951 240.575 88.0951 239.275 87.2392 239.275C86.415 239.275 86.415 240.575 87.2392 240.575Z" fill="white"/>
<path d="M96.1494 260.641C97.0053 260.641 97.0053 259.342 96.1494 259.342C95.3252 259.342 95.3252 260.641 96.1494 260.641Z" fill="white"/>
<path d="M104.454 257.503C105.31 257.503 105.31 256.203 104.454 256.203C103.63 256.203 103.63 257.503 104.454 257.503Z" fill="white"/>
<path d="M114.091 267.108C114.947 267.108 114.947 265.809 114.091 265.809C113.235 265.809 113.235 267.108 114.091 267.108Z" fill="white"/>
<path d="M124.013 261.054C124.869 261.054 124.869 259.754 124.013 259.754C123.157 259.723 123.157 261.054 124.013 261.054Z" fill="white"/>
<path d="M128.259 260.546C129.115 260.546 129.115 259.247 128.259 259.247C127.435 259.215 127.435 260.546 128.259 260.546Z" fill="white"/>
<path d="M132.224 243.112C133.08 243.112 133.08 241.812 132.224 241.812C131.368 241.812 131.368 243.112 132.224 243.112Z" fill="white"/>
<path d="M132.001 240.671C132.857 240.671 132.857 239.371 132.001 239.371C131.177 239.371 131.177 240.671 132.001 240.671Z" fill="white"/>
<path d="M130.099 240.987C130.955 240.987 130.955 239.688 130.099 239.688C129.243 239.688 129.243 240.987 130.099 240.987Z" fill="white"/>
<path d="M128.356 242.921C129.212 242.921 129.212 241.622 128.356 241.622C127.532 241.59 127.532 242.921 128.356 242.921Z" fill="white"/>
<path d="M119.036 240.798C119.892 240.798 119.892 239.499 119.036 239.499C118.212 239.467 118.212 240.798 119.036 240.798Z" fill="white"/>
<path d="M123.822 243.937C124.678 243.937 124.678 242.637 123.822 242.637C122.966 242.606 122.966 243.937 123.822 243.937Z" fill="white"/>
<path d="M109.017 240.163C109.873 240.163 109.873 238.863 109.017 238.863C108.193 238.863 108.161 240.163 109.017 240.163Z" fill="white"/>
<path d="M94.9427 237.944C95.7986 237.944 95.7986 236.645 94.9427 236.645C94.0868 236.645 94.0868 237.944 94.9427 237.944Z" fill="white"/>
<path d="M205.958 239.149C206.814 239.149 206.814 237.85 205.958 237.85C205.102 237.85 205.102 239.149 205.958 239.149Z" fill="white"/>
<path d="M210.302 238.641C211.158 238.641 211.158 237.342 210.302 237.342C209.478 237.342 209.478 238.641 210.302 238.641Z" fill="white"/>
<path d="M220.857 238.958C221.713 238.958 221.713 237.658 220.857 237.658C220.001 237.658 220.001 238.958 220.857 238.958Z" fill="white"/>
<path d="M221.649 268.851C222.505 268.851 222.505 267.551 221.649 267.551C220.825 267.52 220.825 268.851 221.649 268.851Z" fill="white"/>
<path d="M210.618 268.851C211.474 268.851 211.474 267.551 210.618 267.551C209.763 267.52 209.763 268.851 210.618 268.851Z" fill="white"/>
<path d="M207.255 268.851C208.111 268.851 208.111 267.551 207.255 267.551C206.431 267.52 206.431 268.851 207.255 268.851Z" fill="white"/>
<path d="M201.075 260.927C201.931 260.927 201.931 259.627 201.075 259.627C200.251 259.627 200.251 260.927 201.075 260.927Z" fill="white"/>
<path d="M193.688 258.519C194.544 258.519 194.544 257.219 193.688 257.219C192.864 257.188 192.864 258.519 193.688 258.519Z" fill="white"/>
<path d="M196.321 245.14C197.177 245.14 197.177 243.84 196.321 243.84C195.497 243.84 195.497 245.14 196.321 245.14Z" fill="white"/>
<path d="M191.06 245.964C191.915 245.964 191.915 244.665 191.06 244.665C190.235 244.633 190.235 245.964 191.06 245.964Z" fill="white"/>
<path d="M201.806 245.964C202.662 245.964 202.662 244.665 201.806 244.665C200.95 244.633 200.95 245.964 201.806 245.964Z" fill="white"/>
<path d="M187.224 246.155C188.08 246.155 188.08 244.855 187.224 244.855C186.368 244.855 186.368 246.155 187.224 246.155Z" fill="white"/>
<path d="M175.462 239.974C176.318 239.974 176.318 238.674 175.462 238.674C174.638 238.674 174.638 239.974 175.462 239.974Z" fill="white"/>
<path d="M178.822 238.96C179.678 238.96 179.678 237.66 178.822 237.66C177.966 237.66 177.966 238.96 178.822 238.96Z" fill="white"/>
<path d="M181.325 238.134C182.181 238.134 182.181 236.834 181.325 236.834C180.501 236.834 180.501 238.134 181.325 238.134Z" fill="white"/>
<path d="M156.63 247.074C157.486 247.074 157.486 245.774 156.63 245.774C155.774 245.742 155.774 247.074 156.63 247.074Z" fill="white"/>
<path d="M163.099 257.091C163.955 257.091 163.955 255.791 163.099 255.791C162.274 255.791 162.274 257.091 163.099 257.091Z" fill="white"/>
<path d="M178.915 268.534C179.771 268.534 179.771 267.234 178.915 267.234C178.059 267.234 178.059 268.534 178.915 268.534Z" fill="white"/>
<path d="M197.239 275.033C198.095 275.033 198.095 273.733 197.239 273.733C196.415 273.701 196.384 275.033 197.239 275.033Z" fill="white"/>
<path d="M168.993 284.449C169.849 284.449 169.849 283.149 168.993 283.149C168.138 283.117 168.138 284.449 168.993 284.449Z" fill="white"/>
<path d="M158.661 284.542C159.517 284.542 159.517 283.242 158.661 283.242C157.806 283.242 157.806 284.542 158.661 284.542Z" fill="white"/>
<path d="M154.603 284.132C155.459 284.132 155.459 282.832 154.603 282.832C153.747 282.832 153.747 284.132 154.603 284.132Z" fill="white"/>
<path d="M144.681 290.123C145.537 290.123 145.537 288.823 144.681 288.823C143.825 288.791 143.825 290.123 144.681 290.123Z" fill="white"/>
<path d="M134.759 293.356C135.615 293.356 135.615 292.057 134.759 292.057C133.903 292.057 133.903 293.356 134.759 293.356Z" fill="white"/>
<path d="M126.454 284.132C127.31 284.132 127.31 282.832 126.454 282.832C125.599 282.832 125.599 284.132 126.454 284.132Z" fill="white"/>
<path d="M134.853 281.089C135.709 281.089 135.709 279.789 134.853 279.789C133.997 279.789 133.997 281.089 134.853 281.089Z" fill="white"/>
<path d="M137.896 275.128C138.752 275.128 138.752 273.829 137.896 273.829C137.04 273.797 137.04 275.128 137.896 275.128Z" fill="white"/>
<path d="M147.724 273.29C148.58 273.29 148.58 271.99 147.724 271.99C146.868 271.99 146.868 273.29 147.724 273.29Z" fill="white"/>
<path d="M139.103 263.558C139.959 263.558 139.959 262.258 139.103 262.258C138.247 262.258 138.247 263.558 139.103 263.558Z" fill="white"/>
<path d="M137.77 263.97C138.626 263.97 138.626 262.67 137.77 262.67C136.946 262.67 136.946 263.97 137.77 263.97Z" fill="white"/>
<path d="M131.716 252.938C132.572 252.938 132.572 251.639 131.716 251.639C130.86 251.639 130.86 252.938 131.716 252.938Z" fill="white"/>
<path d="M128.576 254.269C129.431 254.269 129.431 252.969 128.576 252.969C127.72 252.938 127.72 254.269 128.576 254.269Z" fill="white"/>
<path d="M118.243 249.198C119.099 249.198 119.099 247.898 118.243 247.898C117.388 247.898 117.388 249.198 118.243 249.198Z" fill="white"/>
<path d="M118.654 253.255C119.51 253.255 119.51 251.956 118.654 251.956C117.798 251.924 117.798 253.255 118.654 253.255Z" fill="white"/>
<path d="M108.923 251.734C109.779 251.734 109.779 250.434 108.923 250.434C108.067 250.402 108.067 251.734 108.923 251.734Z" fill="white"/>
<path d="M100.618 243.302C101.474 243.302 101.474 242.002 100.618 242.002C99.7626 242.002 99.7626 243.302 100.618 243.302Z" fill="white"/>
<path d="M95.4505 249.294C96.3064 249.294 96.3064 247.994 95.4505 247.994C94.5946 247.994 94.5946 249.294 95.4505 249.294Z" fill="white"/>
<path d="M104.677 269.55C105.533 269.55 105.533 268.25 104.677 268.25C103.821 268.25 103.821 269.55 104.677 269.55Z" fill="white"/>
<path d="M148.74 276.142C149.595 276.142 149.595 274.842 148.74 274.842C147.884 274.811 147.884 276.142 148.74 276.142Z" fill="white"/>
<path d="M187.728 277.253C188.584 277.253 188.584 275.953 187.728 275.953C186.872 275.953 186.872 277.253 187.728 277.253Z" fill="white"/>
<path d="M172.321 267.52C173.177 267.52 173.177 266.221 172.321 266.221C171.497 266.221 171.466 267.52 172.321 267.52Z" fill="white"/>
<path d="M168.993 264.382C169.849 264.382 169.849 263.082 168.993 263.082C168.138 263.082 168.138 264.382 168.993 264.382Z" fill="white"/>
<path d="M161.388 267.204C162.244 267.204 162.244 265.904 161.388 265.904C160.532 265.904 160.532 267.204 161.388 267.204Z" fill="white"/>
<path d="M159.169 267.108C160.025 267.108 160.025 265.809 159.169 265.809C158.313 265.809 158.313 267.108 159.169 267.108Z" fill="white"/>
<path d="M157.646 266.507C158.502 266.507 158.502 265.207 157.646 265.207C156.79 265.207 156.79 266.507 157.646 266.507Z" fill="white"/>
<path d="M151.052 259.405C151.908 259.405 151.908 258.105 151.052 258.105C150.228 258.105 150.196 259.405 151.052 259.405Z" fill="white"/>
<path d="M151.149 258.106C152.005 258.106 152.005 256.807 151.149 256.807C150.325 256.807 150.325 258.106 151.149 258.106Z" fill="white"/>
<path d="M152.763 257.186C153.619 257.186 153.619 255.887 152.763 255.887C151.938 255.887 151.938 257.186 152.763 257.186Z" fill="white"/>
<path d="M159.864 254.968C160.72 254.968 160.72 253.668 159.864 253.668C159.04 253.668 159.009 254.968 159.864 254.968Z" fill="white"/>
<path d="M159.454 245.741C160.31 245.741 160.31 244.441 159.454 244.441C158.63 244.441 158.63 245.741 159.454 245.741Z" fill="white"/>
<path d="M161.197 242.003C162.053 242.003 162.053 240.703 161.197 240.703C160.341 240.703 160.341 242.003 161.197 242.003Z" fill="white"/>
<path d="M167.982 242.7C168.838 242.7 168.838 241.4 167.982 241.4C167.126 241.4 167.126 242.7 167.982 242.7Z" fill="white"/>
<path d="M155.017 244.03C155.873 244.03 155.873 242.73 155.017 242.73C154.161 242.73 154.161 244.03 155.017 244.03Z" fill="white"/>
<path d="M143.255 242.796C144.111 242.796 144.111 241.496 143.255 241.496C142.399 241.496 142.399 242.796 143.255 242.796Z" fill="white"/>
<path d="M221.649 268.725C222.505 268.725 222.505 267.426 221.649 267.426C220.825 267.426 220.825 268.725 221.649 268.725Z" fill="white"/>
<path d="M187.411 265.903C188.267 265.903 188.267 264.604 187.411 264.604C186.587 264.604 186.587 265.903 187.411 265.903Z" fill="white"/>
<path d="M126.833 267.9C127.245 267.9 127.245 267.234 126.833 267.234C126.42 267.266 126.42 267.9 126.833 267.9Z" fill="white"/>
<path d="M123.917 284.987C124.551 284.987 124.551 284.004 123.917 284.004C123.283 284.004 123.283 284.987 123.917 284.987Z" fill="white"/>
<path d="M176.286 269.424C176.698 269.424 176.698 268.758 176.286 268.758C175.842 268.758 175.842 269.424 176.286 269.424Z" fill="white"/>
<path d="M167.348 254.238C167.76 254.238 167.76 253.572 167.348 253.572C166.936 253.572 166.936 254.238 167.348 254.238Z" fill="white"/>
<path d="M172.926 250.181C173.338 250.181 173.338 249.516 172.926 249.516C172.514 249.516 172.514 250.181 172.926 250.181Z" fill="white"/>
<path d="M117.833 257.978C118.245 257.978 118.245 257.312 117.833 257.312C117.42 257.312 117.42 257.978 117.833 257.978Z" fill="white"/>
<path d="M93.3286 261.529C93.7407 261.529 93.7407 260.863 93.3286 260.863C92.9165 260.863 92.9165 261.529 93.3286 261.529Z" fill="white"/>
<path d="M97.4809 243.998C97.893 243.998 97.893 243.332 97.4809 243.332C97.0689 243.332 97.0689 243.998 97.4809 243.998Z" fill="white"/>
<path d="M178.6 258.137C179.235 258.137 179.235 257.154 178.6 257.154C177.966 257.154 177.966 258.137 178.6 258.137Z" fill="white"/>
<path d="M167.345 254.745C168.201 254.745 168.201 253.445 167.345 253.445C166.521 253.445 166.521 254.745 167.345 254.745Z" fill="white"/>
<path d="M127.057 245.679C128.737 245.679 128.737 243.08 127.057 243.08C125.377 243.08 125.377 245.679 127.057 245.679Z" fill="white"/>
<path d="M144.174 267.68C145.854 267.68 145.854 265.08 144.174 265.08C142.494 265.049 142.494 267.68 144.174 267.68Z" fill="white"/>
<path d="M135.045 257.123C136.725 257.123 136.725 254.523 135.045 254.523C133.365 254.523 133.365 257.123 135.045 257.123Z" fill="white"/>
<path d="M150.451 246.693C152.132 246.693 152.132 244.094 150.451 244.094C148.771 244.094 148.771 246.693 150.451 246.693Z" fill="white"/>
<path d="M147.596 239.402C149.276 239.402 149.276 236.803 147.596 236.803C145.916 236.803 145.916 239.402 147.596 239.402Z" fill="white"/>
<path d="M169.28 239.91C170.96 239.91 170.96 237.311 169.28 237.311C167.6 237.311 167.6 239.91 169.28 239.91Z" fill="white"/>
<path d="M162.494 239.625C164.175 239.625 164.175 237.026 162.494 237.026C160.814 236.994 160.814 239.625 162.494 239.625Z" fill="white"/>
<path d="M192.58 239.117C194.26 239.117 194.26 236.518 192.58 236.518C190.9 236.486 190.9 239.117 192.58 239.117Z" fill="white"/>
<path d="M205.037 242.352C206.718 242.352 206.718 239.752 205.037 239.752C203.357 239.721 203.357 242.352 205.037 242.352Z" fill="white"/>
<path d="M197.651 241.939C199.331 241.939 199.331 239.34 197.651 239.34C195.971 239.34 195.971 241.939 197.651 241.939Z" fill="white"/>
<path d="M205.737 272.117C207.417 272.117 207.417 269.518 205.737 269.518C204.057 269.518 204.057 272.117 205.737 272.117Z" fill="white"/>
<path d="M198.951 271.513C200.632 271.513 200.632 268.914 198.951 268.914C197.271 268.914 197.271 271.513 198.951 271.513Z" fill="white"/>
<path d="M193.913 268.693C195.593 268.693 195.593 266.094 193.913 266.094C192.233 266.062 192.201 268.693 193.913 268.693Z" fill="white"/>
<path d="M177.682 261.498C179.362 261.498 179.362 258.899 177.682 258.899C176.002 258.867 176.002 261.498 177.682 261.498Z" fill="white"/>
<path d="M171.022 261.498C172.702 261.498 172.702 258.899 171.022 258.899C169.31 258.867 169.31 261.498 171.022 261.498Z" fill="white"/>
<path d="M164.936 258.136C166.616 258.136 166.616 255.537 164.936 255.537C163.256 255.537 163.256 258.136 164.936 258.136Z" fill="white"/>
<path d="M179.108 249.039C180.788 249.039 180.788 246.44 179.108 246.44C177.428 246.408 177.428 249.039 179.108 249.039Z" fill="white"/>
<path d="M173.244 246.092C174.925 246.092 174.925 243.492 173.244 243.492C171.564 243.492 171.564 246.092 173.244 246.092Z" fill="white"/>
<path d="M185.893 249.23C187.573 249.23 187.573 246.631 185.893 246.631C184.213 246.631 184.213 249.23 185.893 249.23Z" fill="white"/>
<path d="M153.08 287.111C154.76 287.111 154.76 284.512 153.08 284.512C151.4 284.512 151.4 287.111 153.08 287.111Z" fill="white"/>
<path d="M145.979 287.524C147.659 287.524 147.659 284.924 145.979 284.924C144.299 284.892 144.299 287.524 145.979 287.524Z" fill="white"/>
<path d="M140.717 284.48C142.397 284.48 142.397 281.881 140.717 281.881C139.037 281.881 139.037 284.48 140.717 284.48Z" fill="white"/>
<path d="M149.026 270.406C150.706 270.406 150.706 267.807 149.026 267.807C147.346 267.807 147.346 270.406 149.026 270.406Z" fill="white"/>
<path d="M156.221 270.088C157.901 270.088 157.901 267.488 156.221 267.488C154.541 267.488 154.541 270.088 156.221 270.088Z" fill="white"/>
<path d="M122.807 263.938C124.487 263.938 124.487 261.338 122.807 261.338C121.127 261.306 121.095 263.938 122.807 263.938Z" fill="white"/>
<path d="M115.803 264.033C117.483 264.033 117.483 261.434 115.803 261.434C114.123 261.402 114.123 264.033 115.803 264.033Z" fill="white"/>
<path d="M110.35 260.897C112.03 260.897 112.03 258.297 110.35 258.297C108.67 258.265 108.638 260.897 110.35 260.897Z" fill="white"/>
<path d="M206.558 265.683C208.017 265.683 208.048 263.4 206.558 263.4C205.1 263.4 205.1 265.683 206.558 265.683Z" fill="white"/>
<path d="M213.057 275.478C214.357 275.478 214.357 273.449 213.057 273.449C211.726 273.449 211.726 275.478 213.057 275.478Z" fill="white"/>
<path d="M218.827 275.984C220.126 275.984 220.126 273.955 218.827 273.955C217.527 273.955 217.495 275.984 218.827 275.984Z" fill="white"/>
<path d="M215.276 253.509C216.575 253.509 216.575 251.48 215.276 251.48C213.976 251.48 213.976 253.509 215.276 253.509Z" fill="white"/>
<path d="M218.194 246.218C219.493 246.218 219.493 244.189 218.194 244.189C216.894 244.189 216.894 246.218 218.194 246.218Z" fill="white"/>
<path d="M233.916 245.998C235.216 245.998 235.216 243.969 233.916 243.969C232.616 243.969 232.616 245.998 233.916 245.998Z" fill="white"/>
<path d="M211.916 246.314C213.216 246.314 213.216 244.285 211.916 244.285C210.616 244.285 210.616 246.314 211.916 246.314Z" fill="white"/>
<path d="M192.772 253.001C194.071 253.001 194.071 250.973 192.772 250.973C191.472 250.973 191.472 253.001 192.772 253.001Z" fill="white"/>
<path d="M199.174 253.097C200.474 253.097 200.474 251.068 199.174 251.068C197.874 251.068 197.874 253.097 199.174 253.097Z" fill="white"/>
<path d="M197.842 255.031C199.142 255.031 199.142 253.002 197.842 253.002C196.542 253.002 196.542 255.031 197.842 255.031Z" fill="white"/>
<path d="M193.276 246.218C194.575 246.218 194.575 244.189 193.276 244.189C191.976 244.189 191.976 246.218 193.276 246.218Z" fill="white"/>
<path d="M198.065 243.777C199.365 243.777 199.365 241.748 198.065 241.748C196.734 241.748 196.734 243.777 198.065 243.777Z" fill="white"/>
<path d="M204.022 264.541C205.321 264.541 205.321 262.512 204.022 262.512C202.722 262.512 202.722 264.541 204.022 264.541Z" fill="white"/>
<path d="M193.913 275.89C195.212 275.89 195.212 273.861 193.913 273.861C192.581 273.861 192.581 275.89 193.913 275.89Z" fill="white"/>
<path d="M201.994 275.794C203.294 275.794 203.294 273.766 201.994 273.766C200.695 273.766 200.695 275.794 201.994 275.794Z" fill="white"/>
<path d="M198.666 284.703C199.966 284.703 199.966 282.674 198.666 282.674C197.366 282.674 197.366 284.703 198.666 284.703Z" fill="white"/>
<path d="M184.971 274.177C186.271 274.177 186.271 272.148 184.971 272.148C183.671 272.148 183.671 274.177 184.971 274.177Z" fill="white"/>
<path d="M184.084 270.912C185.384 270.912 185.384 268.883 184.084 268.883C182.785 268.883 182.753 270.912 184.084 270.912Z" fill="white"/>
<path d="M190.869 265.65C192.169 265.65 192.169 263.621 190.869 263.621C189.57 263.621 189.57 265.65 190.869 265.65Z" fill="white"/>
<path d="M184.783 265.873C186.083 265.873 186.083 263.844 184.783 263.844C183.484 263.844 183.484 265.873 184.783 265.873Z" fill="white"/>
<path d="M183.069 258.675C184.368 258.675 184.368 256.646 183.069 256.646C181.769 256.646 181.769 258.675 183.069 258.675Z" fill="white"/>
<path d="M178.6 262.513C179.899 262.513 179.899 260.484 178.6 260.484C177.3 260.484 177.3 262.513 178.6 262.513Z" fill="white"/>
<path d="M182.057 253.287C183.357 253.287 183.357 251.258 182.057 251.258C180.757 251.258 180.757 253.287 182.057 253.287Z" fill="white"/>
<path d="M176.381 254.302C177.681 254.302 177.681 252.273 176.381 252.273C175.081 252.273 175.081 254.302 176.381 254.302Z" fill="white"/>
<path d="M174.541 253.097C175.841 253.097 175.841 251.068 174.541 251.068C173.241 251.068 173.241 253.097 174.541 253.097Z" fill="white"/>
<path d="M182.244 243.777C183.544 243.777 183.544 241.748 182.244 241.748C180.945 241.748 180.945 243.777 182.244 243.777Z" fill="white"/>
<path d="M184.592 241.939C185.892 241.939 185.892 239.91 184.592 239.91C183.292 239.942 183.261 241.939 184.592 241.939Z" fill="white"/>
<path d="M183.069 241.335C184.368 241.335 184.368 239.307 183.069 239.307C181.769 239.307 181.769 241.335 183.069 241.335Z" fill="white"/>
<path d="M164.526 248.849C165.825 248.849 165.825 246.82 164.526 246.82C163.226 246.82 163.226 248.849 164.526 248.849Z" fill="white"/>
<path d="M163.194 251.257C164.493 251.257 164.493 249.229 163.194 249.229C161.894 249.229 161.894 251.257 163.194 251.257Z" fill="white"/>
<path d="M161.799 252.685C163.099 252.685 163.099 250.656 161.799 250.656C160.499 250.656 160.499 252.685 161.799 252.685Z" fill="white"/>
<path d="M164.334 243.365C165.634 243.365 165.634 241.336 164.334 241.336C163.003 241.336 163.003 243.365 164.334 243.365Z" fill="white"/>
<path d="M175.873 243.966C177.173 243.966 177.173 241.938 175.873 241.938C174.574 241.938 174.574 243.966 175.873 243.966Z" fill="white"/>
<path d="M170.518 246.218C171.818 246.218 171.818 244.189 170.518 244.189C169.187 244.189 169.187 246.218 170.518 246.218Z" fill="white"/>
<path d="M179.108 251.384C180.407 251.384 180.407 249.355 179.108 249.355C177.808 249.355 177.808 251.384 179.108 251.384Z" fill="white"/>
<path d="M200.694 246.314C201.993 246.314 201.993 244.285 200.694 244.285C199.394 244.285 199.394 246.314 200.694 246.314Z" fill="white"/>
<path d="M170.705 274.558C172.005 274.558 172.005 272.529 170.705 272.529C169.406 272.529 169.406 274.558 170.705 274.558Z" fill="white"/>
<path d="M169.279 274.273C170.579 274.273 170.579 272.244 169.279 272.244C167.98 272.244 167.98 274.273 169.279 274.273Z" fill="white"/>
<path d="M171.721 276.08C173.021 276.08 173.021 274.051 171.721 274.051C170.421 274.051 170.421 276.08 171.721 276.08Z" fill="white"/>
<path d="M181.549 291.392C182.849 291.392 182.849 289.363 181.549 289.363C180.249 289.363 180.249 291.392 181.549 291.392Z" fill="white"/>
<path d="M184.369 288.443C185.669 288.443 185.669 286.414 184.369 286.414C183.07 286.414 183.07 288.443 184.369 288.443Z" fill="white"/>
<path d="M156.315 278.71C157.614 278.71 157.614 276.682 156.315 276.682C155.015 276.682 155.015 278.71 156.315 278.71Z" fill="white"/>
<path d="M163.194 274.367C164.493 274.367 164.493 272.338 163.194 272.338C161.894 272.338 161.894 274.367 163.194 274.367Z" fill="white"/>
<path d="M164.334 266.158C165.634 266.158 165.634 264.129 164.334 264.129C163.003 264.129 163.003 266.158 164.334 266.158Z" fill="white"/>
<path d="M165.635 265.65C166.935 265.65 166.935 263.621 165.635 263.621C164.335 263.621 164.335 265.65 165.635 265.65Z" fill="white"/>
<path d="M176.666 264.033C177.966 264.033 177.966 262.004 176.666 262.004C175.366 262.004 175.366 264.033 176.666 264.033Z" fill="white"/>
<path d="M173.94 265.365C175.239 265.365 175.239 263.336 173.94 263.336C172.64 263.336 172.64 265.365 173.94 265.365Z" fill="white"/>
<path d="M154.413 264.541C155.712 264.541 155.712 262.512 154.413 262.512C153.081 262.512 153.081 264.541 154.413 264.541Z" fill="white"/>
<path d="M154.19 262.513C155.489 262.513 155.489 260.484 154.19 260.484C152.89 260.484 152.89 262.513 154.19 262.513Z" fill="white"/>
<path d="M156.315 260.8C157.614 260.8 157.614 258.771 156.315 258.771C155.015 258.771 155.015 260.8 156.315 260.8Z" fill="white"/>
<path d="M160.783 264.128C162.083 264.128 162.083 262.1 160.783 262.1C159.484 262.1 159.484 264.128 160.783 264.128Z" fill="white"/>
<path d="M151.463 268.091C152.763 268.091 152.763 266.062 151.463 266.062C150.163 266.062 150.163 268.091 151.463 268.091Z" fill="white"/>
<path d="M152.256 274.05C153.556 274.05 153.556 272.021 152.256 272.021C150.956 272.021 150.956 274.05 152.256 274.05Z" fill="white"/>
<path d="M151.244 280.232C152.544 280.232 152.544 278.203 151.244 278.203C149.945 278.203 149.945 280.232 151.244 280.232Z" fill="white"/>
<path d="M149.119 283.371C150.419 283.371 150.419 281.342 149.119 281.342C147.82 281.342 147.82 283.371 149.119 283.371Z" fill="white"/>
<path d="M148.834 291.675C150.134 291.675 150.134 289.646 148.834 289.646C147.534 289.646 147.534 291.675 148.834 291.675Z" fill="white"/>
<path d="M140.94 291.486C142.24 291.486 142.24 289.457 140.94 289.457C139.609 289.457 139.609 291.486 140.94 291.486Z" fill="white"/>
<path d="M145.983 302.455C147.282 302.455 147.282 300.426 145.983 300.426C144.683 300.426 144.683 302.455 145.983 302.455Z" fill="white"/>
<path d="M131.209 307.494C132.509 307.494 132.509 305.465 131.209 305.465C129.909 305.465 129.909 307.494 131.209 307.494Z" fill="white"/>
<path d="M160.276 291.582C161.575 291.582 161.575 289.553 160.276 289.553C158.976 289.553 158.976 291.582 160.276 291.582Z" fill="white"/>
<path d="M166.143 291.994C167.442 291.994 167.442 289.965 166.143 289.965C164.843 289.965 164.843 291.994 166.143 291.994Z" fill="white"/>
<path d="M134.252 287.238C135.552 287.238 135.552 285.209 134.252 285.209C132.953 285.209 132.921 287.238 134.252 287.238Z" fill="white"/>
<path d="M131.811 286.826C133.11 286.826 133.11 284.797 131.811 284.797C130.511 284.797 130.511 286.826 131.811 286.826Z" fill="white"/>
<path d="M119.256 291.486C120.556 291.486 120.556 289.457 119.256 289.457C117.956 289.457 117.956 291.486 119.256 291.486Z" fill="white"/>
<path d="M116.022 276.81C117.322 276.81 117.322 274.781 116.022 274.781C114.691 274.781 114.691 276.81 116.022 276.81Z" fill="white"/>
<path d="M121.983 274.367C123.282 274.367 123.282 272.338 121.983 272.338C120.683 272.338 120.683 274.367 121.983 274.367Z" fill="white"/>
<path d="M126.135 276.904C127.435 276.904 127.435 274.875 126.135 274.875C124.835 274.875 124.835 276.904 126.135 276.904Z" fill="white"/>
<path d="M100.807 280.74C102.107 280.74 102.107 278.711 100.807 278.711C99.5071 278.711 99.5071 280.74 100.807 280.74Z" fill="white"/>
<path d="M135.869 268.187C137.169 268.187 137.169 266.158 135.869 266.158C134.57 266.158 134.57 268.187 135.869 268.187Z" fill="white"/>
<path d="M134.631 269.708C135.931 269.708 135.931 267.68 134.631 267.68C133.331 267.68 133.331 269.708 134.631 269.708Z" fill="white"/>
<path d="M140.623 273.164C141.923 273.164 141.923 271.135 140.623 271.135C139.324 271.135 139.324 273.164 140.623 273.164Z" fill="white"/>
<path d="M144.459 274.177C145.759 274.177 145.759 272.148 144.459 272.148C143.159 272.148 143.159 274.177 144.459 274.177Z" fill="white"/>
<path d="M142.748 260.388C144.048 260.388 144.048 258.359 142.748 258.359C141.449 258.359 141.449 260.388 142.748 260.388Z" fill="white"/>
<path d="M143.35 264.351C144.649 264.351 144.649 262.322 143.35 262.322C142.05 262.322 142.05 264.351 143.35 264.351Z" fill="white"/>
<path d="M144.682 265.365C145.982 265.365 145.982 263.336 144.682 263.336C143.382 263.336 143.382 265.365 144.682 265.365Z" fill="white"/>
<path d="M147.596 256.236C148.896 256.236 148.896 254.207 147.596 254.207C146.296 254.207 146.296 256.236 147.596 256.236Z" fill="white"/>
<path d="M152.479 253.097C153.778 253.097 153.778 251.068 152.479 251.068C151.179 251.068 151.179 253.097 152.479 253.097Z" fill="white"/>
<path d="M146.299 251.068C147.599 251.068 147.599 249.039 146.299 249.039C144.999 249.039 144.999 251.068 146.299 251.068Z" fill="white"/>
<path d="M145.885 252.908C147.185 252.908 147.185 250.879 145.885 250.879C144.585 250.879 144.585 252.908 145.885 252.908Z" fill="white"/>
<path d="M155.397 250.371C156.696 250.371 156.696 248.342 155.397 248.342C154.097 248.342 154.097 250.371 155.397 250.371Z" fill="white"/>
<path d="M157.233 250.974C158.532 250.974 158.532 248.945 157.233 248.945C155.933 248.945 155.933 250.974 157.233 250.974Z" fill="white"/>
<path d="M157.233 243.777C158.532 243.777 158.532 241.748 157.233 241.748C155.933 241.748 155.933 243.777 157.233 243.777Z" fill="white"/>
<path d="M134.947 243.966C136.247 243.966 136.247 241.938 134.947 241.938C133.648 241.938 133.648 243.966 134.947 243.966Z" fill="white"/>
<path d="M128.674 246.726C129.974 246.726 129.974 244.697 128.674 244.697C127.374 244.697 127.374 246.726 128.674 246.726Z" fill="white"/>
<path d="M126.549 248.437C127.849 248.437 127.849 246.408 126.549 246.408C125.249 246.408 125.249 248.437 126.549 248.437Z" fill="white"/>
<path d="M120.78 248.121C122.079 248.121 122.079 246.092 120.78 246.092C119.48 246.092 119.448 248.121 120.78 248.121Z" fill="white"/>
<path d="M115.104 242.572C116.403 242.572 116.403 240.543 115.104 240.543C113.804 240.543 113.804 242.572 115.104 242.572Z" fill="white"/>
<path d="M92.2172 243.873C93.5169 243.873 93.5169 241.844 92.2172 241.844C90.9175 241.844 90.8858 243.873 92.2172 243.873Z" fill="white"/>
<path d="M92.5998 250.466C93.8995 250.466 93.8995 248.438 92.5998 248.438C91.3001 248.438 91.3001 250.466 92.5998 250.466Z" fill="white"/>
<path d="M92.725 260.58C94.0247 260.58 94.0247 258.551 92.725 258.551C91.4253 258.551 91.3936 260.58 92.725 260.58Z" fill="white"/>
<path d="M101.221 263.115C102.521 263.115 102.521 261.086 101.221 261.086C99.9212 261.086 99.9212 263.115 101.221 263.115Z" fill="white"/>
<path d="M105.69 262.703C106.99 262.703 106.99 260.674 105.69 260.674C104.359 260.706 104.359 262.703 105.69 262.703Z" fill="white"/>
<path d="M110.033 248.025C111.333 248.025 111.333 245.996 110.033 245.996C108.734 245.996 108.734 248.025 110.033 248.025Z" fill="white"/>
<path d="M101.916 248.533C103.216 248.533 103.216 246.504 101.916 246.504C100.616 246.504 100.616 248.533 101.916 248.533Z" fill="white"/>
<path d="M105.279 245.71C106.579 245.71 106.579 243.682 105.279 243.682C103.98 243.682 103.98 245.71 105.279 245.71Z" fill="white"/>
<path d="M113.268 264.445C114.567 264.445 114.567 262.416 113.268 262.416C111.968 262.416 111.968 264.445 113.268 264.445Z" fill="white"/>
<path d="M111.049 268.091C112.349 268.091 112.349 266.062 111.049 266.062C109.749 266.062 109.749 268.091 111.049 268.091Z" fill="white"/>
<path d="M118.94 268.091C120.239 268.091 120.239 266.062 118.94 266.062C117.64 266.062 117.64 268.091 118.94 268.091Z" fill="white"/>
<path d="M128.576 263.843C129.876 263.843 129.876 261.814 128.576 261.814C127.277 261.814 127.277 263.843 128.576 263.843Z" fill="white"/>
<path d="M130.1 268.283C131.4 268.283 131.4 266.254 130.1 266.254C128.8 266.254 128.769 268.283 130.1 268.283Z" fill="white"/>
<path d="M121.381 256.14C122.681 256.14 122.681 254.111 121.381 254.111C120.081 254.111 120.081 256.14 121.381 256.14Z" fill="white"/>
<path d="M120.049 259.279C121.349 259.279 121.349 257.25 120.049 257.25C118.749 257.25 118.749 259.279 120.049 259.279Z" fill="white"/>
<path d="M126.041 259.691C127.341 259.691 127.341 257.662 126.041 257.662C124.741 257.662 124.741 259.691 126.041 259.691Z" fill="white"/>
<path d="M134.346 250.466C135.646 250.466 135.646 248.438 134.346 248.438C133.046 248.438 133.046 250.466 134.346 250.466Z" fill="white"/>
<path d="M138.405 251.164C139.704 251.164 139.704 249.135 138.405 249.135C137.105 249.135 137.073 251.164 138.405 251.164Z" fill="white"/>
<path d="M139.924 250.244C141.224 250.244 141.224 248.215 139.924 248.215C138.593 248.247 138.593 250.244 139.924 250.244Z" fill="white"/>
<path d="M165.635 244.189C166.935 244.189 166.935 242.16 165.635 242.16C164.335 242.16 164.335 244.189 165.635 244.189Z" fill="white"/>
<path d="M135.772 264.224C137.072 264.224 137.072 262.195 135.772 262.195C134.441 262.195 134.441 264.224 135.772 264.224Z" fill="white"/>
<path d="M116.912 251.48C118.212 251.48 118.212 249.451 116.912 249.451C115.613 249.451 115.613 251.48 116.912 251.48Z" fill="white"/>
<path d="M115.01 249.863C116.31 249.863 116.31 247.834 115.01 247.834C113.679 247.834 113.679 249.863 115.01 249.863Z" fill="white"/>
<path d="M122.904 250.466C124.204 250.466 124.204 248.438 122.904 248.438C121.605 248.438 121.605 250.466 122.904 250.466Z" fill="white"/>
<path d="M106.706 257.06C108.005 257.06 108.005 255.031 106.706 255.031C105.374 255.031 105.374 257.06 106.706 257.06Z" fill="white"/>
<path d="M107.214 244.158C108.894 244.158 108.894 241.559 107.214 241.559C105.502 241.559 105.502 244.158 107.214 244.158Z" fill="white"/>
<path d="M101.823 240.733C103.503 240.733 103.503 238.133 101.823 238.133C100.142 238.101 100.142 240.733 101.823 240.733Z" fill="white"/>
<path d="M114.186 244.062C115.866 244.062 115.866 241.463 114.186 241.463C112.506 241.463 112.506 244.062 114.186 244.062Z" fill="white"/>
<path d="M120.272 245.9C121.952 245.9 121.952 243.301 120.272 243.301C118.592 243.269 118.592 245.9 120.272 245.9Z" fill="white"/>
<path d="M143.444 247.422C145.124 247.422 145.124 244.823 143.444 244.823C141.764 244.791 141.764 247.422 143.444 247.422Z" fill="white"/>
<path d="M138.182 244.474C139.862 244.474 139.862 241.875 138.182 241.875C136.502 241.875 136.502 244.474 138.182 244.474Z" fill="white"/>
<path d="M147.409 260.262C149.089 260.262 149.089 257.662 147.409 257.662C145.728 257.662 145.728 260.262 147.409 260.262Z" fill="white"/>
<path d="M140.213 259.977C141.893 259.977 141.893 257.377 140.213 257.377C138.533 257.346 138.533 259.977 140.213 259.977Z" fill="white"/>
<path d="M143.065 249.039C143.699 249.039 143.699 248.057 143.065 248.057C142.431 248.057 142.431 249.039 143.065 249.039Z" fill="white"/>
<path d="M141.956 247.707C142.59 247.707 142.59 246.725 141.956 246.725C141.322 246.725 141.322 247.707 141.956 247.707Z" fill="white"/>
<path d="M141.319 250.053C141.953 250.053 141.953 249.07 141.319 249.07C140.685 249.07 140.685 250.053 141.319 250.053Z" fill="white"/>
<path d="M125.44 238.389C126.074 238.389 126.074 237.406 125.44 237.406C124.806 237.406 124.806 238.389 125.44 238.389Z" fill="white"/>
<path d="M105.784 247.01C106.418 247.01 106.418 246.027 105.784 246.027C105.15 246.027 105.15 247.01 105.784 247.01Z" fill="white"/>
<path d="M129.276 265.936C129.91 265.936 129.91 264.953 129.276 264.953C128.642 264.953 128.642 265.936 129.276 265.936Z" fill="white"/>
<path d="M138.784 260.991C139.418 260.991 139.418 260.008 138.784 260.008C138.181 260.008 138.181 260.991 138.784 260.991Z" fill="white"/>
<path d="M148.518 257.123C149.152 257.123 149.152 256.141 148.518 256.141C147.884 256.141 147.884 257.123 148.518 257.123Z" fill="white"/>
<path d="M177.808 252.367C178.442 252.367 178.442 251.385 177.808 251.385C177.174 251.385 177.174 252.367 177.808 252.367Z" fill="white"/>
<path d="M89.682 267.139C89.9039 267.139 89.9039 266.822 89.682 266.822C89.4601 266.791 89.4601 267.139 89.682 267.139Z" fill="white"/>
<path d="M99.0024 274.114C99.2243 274.114 99.2243 273.797 99.0024 273.797C98.7805 273.797 98.7805 274.114 99.0024 274.114Z" fill="white"/>
<path d="M133.619 274.715C133.841 274.715 133.841 274.398 133.619 274.398C133.429 274.398 133.429 274.715 133.619 274.715Z" fill="white"/>
<path d="M180.217 282.926C180.439 282.926 180.439 282.609 180.217 282.609C180.027 282.609 180.027 282.926 180.217 282.926Z" fill="white"/>
<path d="M233.915 233.633H84.418V237.437H233.915V233.633Z" fill="white"/>
<path d="M235.501 275.602C236.357 275.602 236.357 274.303 235.501 274.303C234.677 274.303 234.677 275.602 235.501 275.602Z" fill="white"/>
<path d="M231.19 272.814C232.87 272.814 232.87 270.215 231.19 270.215C229.51 270.215 229.51 272.814 231.19 272.814Z" fill="white"/>
<path d="M228.306 257.692C229.162 257.692 229.162 256.393 228.306 256.393C227.481 256.393 227.481 257.692 228.306 257.692Z" fill="white"/>
<path d="M225.167 256.235C225.801 256.235 225.801 255.252 225.167 255.252C224.533 255.252 224.533 256.235 225.167 256.235Z" fill="white"/>
</svg>
